{"glyphs":{"0":{"ha":950,"x_min":61,"x_max":903,"o":"m 482 -6 q 660 35 582 -6 q 792 144 739 76 q 874 300 846 213 q 903 481 903 388 q 874 661 903 574 q 792 817 846 749 q 660 926 739 885 q 482 967 582 967 q 460 944 460 967 l 460 844 q 338 806 390 839 q 250 724 285 774 q 198 611 215 674 q 181 483 181 549 q 200 351 181 415 q 258 235 219 286 q 352 153 296 185 q 483 122 408 122 q 614 153 557 122 q 708 234 671 183 q 765 349 746 285 q 785 483 785 414 q 776 585 785 535 q 747 681 768 636 q 692 761 726 725 q 608 819 658 797 q 599 821 606 821 q 578 807 585 821 q 577 790 574 799 q 590 778 581 781 q 668 720 639 757 q 713 642 697 683 q 734 558 729 600 q 739 483 739 515 q 724 369 739 425 q 676 267 708 313 q 597 195 644 222 q 483 168 549 168 q 370 196 418 168 q 290 268 322 224 q 242 369 258 313 q 226 483 226 425 q 242 598 226 542 q 289 699 257 654 q 369 772 321 744 q 482 800 417 800 q 499 806 492 800 q 506 822 506 813 l 506 921 q 656 876 590 915 q 766 775 721 836 q 834 637 811 714 q 857 481 857 560 q 832 319 857 397 q 760 178 807 240 q 642 78 713 115 q 482 40 572 40 q 323 78 393 40 q 205 177 253 115 q 132 318 157 239 q 107 481 107 397 q 160 724 107 621 q 308 878 213 828 q 318 910 328 888 q 297 921 311 921 q 288 919 290 921 q 120 747 179 861 q 61 481 61 633 q 90 300 61 388 q 172 144 118 213 q 303 35 225 76 q 482 -6 382 -6 m 369 901 q 393 919 389 901 q 392 939 396 929 q 378 951 388 949 q 369 953 375 953 q 346 936 353 953 l 346 935 q 349 916 343 925 q 369 901 354 907 "},"1":{"ha":700,"x_min":140,"x_max":575,"o":"m 424 -1 q 446 22 446 -1 l 446 460 l 550 460 q 572 482 572 460 l 572 947 q 550 971 572 971 q 533 965 540 971 q 526 947 526 958 l 526 506 l 424 506 q 407 499 414 506 q 400 482 400 493 l 400 22 q 407 5 400 11 q 424 -1 414 -1 m 549 379 q 532 373 539 379 q 525 357 525 367 l 525 103 q 532 85 525 92 q 549 79 539 79 q 571 103 571 79 l 571 357 q 549 379 571 379 m 424 826 q 408 821 415 826 l 154 617 q 146 600 147 610 q 151 583 144 590 q 169 575 158 575 q 183 581 178 575 l 400 756 l 400 606 q 407 590 400 596 q 424 583 414 583 q 446 606 446 583 l 446 804 q 424 826 446 826 m 393 924 q 396 956 411 939 q 378 965 389 965 q 364 960 372 965 l 150 788 q 142 772 143 782 q 146 756 140 763 q 164 747 154 747 q 179 753 174 747 l 393 924 m 540 1 l 549 0 q 572 17 567 0 q 571 37 575 28 q 557 49 567 46 q 549 50 554 50 q 525 33 529 50 q 525 13 521 22 q 540 1 529 4 "},"2":{"ha":911,"x_min":133,"x_max":776,"o":"m 160 151 q 171 154 163 151 q 448 372 328 247 q 650 660 568 496 q 650 678 654 669 q 638 690 646 686 q 629 692 635 692 q 608 678 613 692 q 585 631 607 676 q 510 514 563 585 q 344 336 436 417 q 147 194 253 256 q 137 180 139 189 q 139 163 135 171 q 160 151 146 151 m 211 867 q 152 765 171 822 q 136 646 133 708 q 160 624 136 624 q 176 631 169 624 q 181 647 182 638 q 244 836 176 760 q 460 925 318 918 q 476 933 469 926 q 481 949 482 939 q 474 966 481 960 q 457 971 467 972 q 316 941 378 968 q 211 867 254 914 m 728 803 q 529 867 660 867 q 515 867 522 867 q 501 865 508 867 q 441 858 482 865 q 357 829 400 851 q 258 651 251 771 q 282 629 258 629 q 298 636 292 629 q 304 653 304 643 q 324 739 300 703 q 358 775 338 760 q 403 800 379 790 q 454 815 428 810 q 504 819 481 819 q 517 821 511 821 q 529 821 522 821 q 694 771 643 821 q 726 719 721 744 q 731 692 731 694 q 710 581 731 636 q 656 476 689 526 q 584 381 624 426 q 506 300 544 336 q 410 222 471 267 q 293 132 350 176 q 196 51 236 88 q 160 -1 156 15 l 744 -1 q 761 5 754 -1 q 768 21 768 11 q 761 38 768 31 q 744 44 754 44 l 236 44 q 309 94 268 65 q 392 152 350 122 q 473 212 435 182 q 538 265 511 242 q 622 354 579 306 q 699 458 665 403 q 755 572 733 513 q 776 692 776 631 q 776 704 776 693 q 770 731 775 715 q 756 765 765 746 q 728 803 746 785 m 528 165 q 504 143 504 165 q 510 126 504 133 q 528 119 517 119 l 661 119 q 678 126 671 119 q 685 143 685 133 q 678 159 685 153 q 661 165 671 165 l 528 165 m 715 151 q 718 131 713 140 q 739 118 724 122 q 763 135 756 118 l 763 136 q 761 155 765 146 q 747 167 757 164 q 739 168 744 168 q 715 151 722 168 "},"3":{"ha":924,"x_min":138,"x_max":786,"o":"m 468 507 q 535 529 507 518 q 586 557 564 540 q 626 598 608 574 q 660 661 643 622 q 659 678 663 669 q 647 690 656 688 q 639 692 644 692 q 617 678 622 692 q 587 622 603 643 q 549 586 571 600 q 501 564 528 572 q 439 546 474 556 q 422 524 422 543 l 422 444 q 440 422 422 425 q 513 401 485 413 q 561 375 542 390 q 593 340 581 360 q 617 290 606 319 q 647 278 624 276 q 659 290 656 281 q 660 307 663 299 q 630 366 646 342 q 592 408 614 390 q 540 440 569 426 q 468 463 510 453 l 468 507 m 140 310 q 167 187 140 242 q 238 92 193 132 q 340 28 282 51 q 463 0 399 4 q 485 21 485 0 q 480 38 486 31 q 464 46 474 44 q 360 69 410 49 q 271 123 310 89 q 209 205 232 157 q 186 310 186 253 q 179 326 186 319 q 163 333 172 333 q 147 326 153 333 q 140 310 140 319 m 376 958 q 279 917 324 944 q 203 852 235 890 q 155 765 172 814 q 138 661 138 717 q 160 638 138 638 q 176 644 169 638 q 183 661 183 650 q 240 824 183 757 q 388 914 296 892 q 402 925 397 917 q 404 942 407 933 q 382 960 400 960 q 376 958 378 960 m 264 661 q 271 644 264 650 q 288 638 278 638 q 310 661 310 638 q 331 735 310 706 q 387 784 353 765 q 461 810 421 803 q 539 818 501 818 q 713 747 663 818 q 736 702 732 724 q 740 678 740 681 q 676 538 740 581 q 653 524 664 529 q 632 517 642 519 q 611 511 621 513 q 597 503 603 510 q 590 488 590 497 q 597 473 590 479 q 611 465 603 467 q 667 447 643 463 q 708 409 692 432 q 731 358 724 386 q 739 300 739 329 q 734 275 739 297 q 711 226 729 253 q 539 153 661 153 l 538 153 q 457 159 497 153 q 385 182 417 165 q 333 230 353 199 q 313 310 313 261 q 306 326 313 319 q 290 333 300 333 q 274 326 281 333 q 267 310 267 319 q 290 211 267 250 q 351 149 313 172 q 437 116 389 125 q 535 107 485 107 l 539 107 q 675 136 619 107 q 751 204 718 158 q 785 300 785 250 q 757 417 785 375 q 700 479 729 460 q 692 484 696 482 q 685 489 689 486 q 763 568 739 515 q 786 679 786 621 q 781 709 786 681 q 751 772 776 738 q 658 844 715 825 q 539 864 600 864 q 443 853 492 864 q 355 817 394 842 q 290 755 315 793 q 264 661 264 717 m 458 922 q 482 939 475 922 l 482 940 q 481 959 485 950 q 467 971 476 968 q 458 972 464 972 q 435 956 439 972 q 458 922 425 931 "},"4":{"ha":956,"x_min":79,"x_max":872,"o":"m 872 236 q 850 260 872 260 l 561 260 q 544 253 551 260 q 538 236 538 246 l 538 22 q 561 0 538 0 q 583 22 583 0 l 583 214 l 850 214 q 872 236 872 214 m 464 236 q 457 252 464 246 q 440 258 450 258 l 147 258 l 538 867 l 538 383 l 365 383 l 478 575 q 481 592 483 582 q 471 606 478 601 q 458 608 467 608 q 439 597 444 608 l 306 372 q 306 349 299 361 q 325 338 313 338 l 561 338 q 583 360 583 338 l 583 942 q 560 964 583 964 q 539 954 549 965 l 86 249 q 86 225 79 236 q 106 213 93 213 l 440 213 q 457 219 450 213 q 464 236 464 226 m 682 874 q 660 851 660 874 l 660 360 q 682 338 660 338 l 768 338 q 792 360 792 338 q 785 376 792 369 q 768 383 779 383 l 706 383 l 706 851 q 699 867 706 861 q 682 874 692 874 m 682 0 q 699 6 692 0 q 706 22 706 13 l 706 136 q 699 152 706 146 q 682 158 692 158 q 660 136 660 158 l 660 22 q 682 0 660 0 m 822 369 q 825 349 819 358 q 846 336 831 340 q 869 353 863 336 l 869 354 q 868 373 872 364 q 854 386 864 382 q 835 383 843 386 q 822 369 826 381 "},"5":{"ha":904,"x_min":118,"x_max":785,"o":"m 329 943 q 353 919 329 919 l 657 919 q 674 926 667 919 q 681 943 681 932 q 674 959 681 953 q 657 965 667 965 l 353 965 q 329 943 329 965 m 138 275 q 123 265 128 272 q 121 247 118 257 q 165 142 135 189 q 238 62 196 94 q 334 11 281 29 q 447 -7 388 -7 q 604 26 540 -7 q 708 110 668 60 q 767 220 749 161 q 785 329 785 279 q 764 447 785 392 q 705 545 743 503 q 615 614 667 588 q 499 646 563 640 q 478 647 488 646 q 458 647 468 647 q 385 641 417 647 q 331 628 353 635 l 344 718 q 342 735 347 728 q 326 744 336 742 q 309 740 317 744 q 300 725 301 736 l 278 596 q 288 574 275 583 q 301 569 294 569 q 311 572 308 569 q 383 594 346 588 q 458 601 421 601 q 478 601 469 601 q 494 600 488 600 q 594 572 549 594 q 671 515 639 550 q 721 432 703 479 q 739 329 739 385 q 722 231 739 281 q 674 142 704 181 q 574 63 632 86 q 447 39 515 39 q 266 97 343 39 q 165 257 189 154 q 138 275 161 275 m 225 847 l 210 840 l 203 828 l 147 468 q 165 443 144 447 l 283 414 q 289 413 285 413 q 307 422 300 413 q 444 493 357 493 q 511 480 481 493 q 563 444 542 467 q 597 390 585 421 q 610 324 610 360 q 597 258 610 289 q 561 203 583 226 q 509 167 539 181 q 446 154 479 154 q 342 181 386 154 q 293 257 301 208 q 265 275 289 275 q 250 265 256 272 q 247 249 244 258 q 312 146 258 183 q 446 108 365 108 q 527 126 489 108 q 594 172 565 143 q 639 240 622 201 q 656 324 656 279 q 640 408 656 368 q 596 476 624 447 q 529 522 568 506 q 444 539 490 539 q 352 519 396 539 q 279 461 308 500 l 196 482 l 244 801 l 736 801 q 758 824 758 801 q 736 847 758 847 l 225 847 m 735 918 q 758 935 753 918 q 757 955 761 946 q 743 967 753 964 q 735 968 740 968 q 711 951 715 968 l 711 950 q 714 931 708 940 q 735 918 719 922 "},"6":{"ha":910,"x_min":113,"x_max":797,"o":"m 113 339 q 140 206 113 268 q 213 98 167 144 q 322 24 260 51 q 456 -3 385 -3 q 588 24 526 -3 q 697 98 650 51 q 770 206 743 144 q 797 339 797 268 q 772 469 797 410 q 703 574 747 529 q 601 647 660 619 q 472 681 542 675 q 508 731 488 701 q 554 795 529 761 q 606 865 579 829 q 658 933 632 901 q 663 951 665 942 q 654 967 661 960 q 640 971 649 971 q 622 963 629 971 q 549 866 586 917 q 481 772 511 815 q 430 700 450 729 q 410 671 410 671 q 410 647 403 660 q 431 635 417 635 q 497 631 465 635 q 563 615 529 626 q 701 507 650 579 q 751 339 751 435 q 728 224 751 278 q 664 131 704 171 q 570 67 624 90 q 456 43 517 43 q 340 67 394 43 q 246 131 286 90 q 182 224 206 171 q 158 339 158 278 q 152 356 158 349 q 136 363 146 363 q 119 356 126 363 q 113 339 113 349 m 133 440 q 149 429 138 432 l 288 400 q 302 402 296 400 q 313 413 308 404 q 372 476 333 453 q 456 499 410 499 q 517 486 489 499 q 567 452 546 474 q 601 401 589 431 q 614 339 614 372 q 601 277 614 306 q 567 226 589 249 q 517 192 546 204 q 456 179 489 179 q 348 219 393 179 q 296 321 303 260 q 271 340 293 343 q 251 315 249 338 q 273 243 256 276 q 318 185 290 210 q 381 147 346 161 q 456 133 417 133 q 535 149 497 133 q 600 194 572 165 q 644 260 628 222 q 660 339 660 297 q 644 419 660 382 q 600 485 628 457 q 535 528 572 513 q 456 544 497 544 q 355 519 401 544 q 281 449 308 493 l 186 468 q 216 526 197 492 q 265 610 235 561 q 340 723 296 658 q 444 871 385 788 q 449 887 450 878 q 439 903 447 896 q 426 907 433 907 q 407 897 415 907 q 336 799 376 856 q 257 683 296 743 q 184 564 218 622 q 132 460 150 506 q 133 440 129 450 m 449 956 l 449 954 q 450 935 444 944 q 472 921 456 926 q 496 939 489 921 q 494 958 499 949 q 481 971 490 968 q 472 972 478 972 q 449 956 453 972 "},"7":{"ha":804,"x_min":103,"x_max":735,"o":"m 364 -1 q 385 13 378 -1 l 732 811 q 731 828 735 819 q 719 842 728 838 q 715 842 717 842 q 710 843 713 843 q 689 829 696 843 l 343 31 q 344 13 339 22 q 364 -1 349 4 m 467 800 q 489 822 489 800 q 467 846 489 846 l 128 846 q 106 822 106 846 q 128 800 106 800 l 467 800 m 211 -1 q 232 13 225 -1 l 661 936 q 660 957 667 949 q 640 968 653 968 l 207 968 q 190 962 197 968 q 183 944 183 956 q 190 928 183 935 q 207 922 197 922 l 604 922 l 190 32 q 190 13 186 22 q 201 1 193 4 q 211 -1 210 -1 m 129 919 q 153 938 149 919 q 151 958 156 949 q 138 969 147 967 q 129 971 135 971 q 106 954 113 971 l 106 953 q 108 934 103 943 q 129 919 114 925 "},"8":{"ha":946,"x_min":139,"x_max":807,"o":"m 472 974 q 369 956 418 974 q 282 907 319 939 q 222 829 244 875 q 200 726 200 783 q 203 694 200 717 q 211 647 206 671 q 226 606 217 624 q 250 588 236 588 q 261 590 258 588 q 272 603 269 594 q 271 621 275 613 q 246 726 246 669 q 265 811 246 774 q 315 874 283 849 q 387 914 346 900 q 472 928 428 928 q 559 914 518 928 q 631 874 600 900 q 681 809 663 847 q 700 724 700 771 q 647 572 700 633 q 610 539 628 549 q 592 528 593 529 q 576 522 590 528 q 539 505 561 515 q 488 481 517 494 q 431 454 460 468 q 381 428 408 443 q 332 394 354 414 q 294 350 310 375 q 279 293 279 325 q 296 225 279 256 q 339 173 313 194 q 399 140 365 151 q 468 128 433 128 q 547 140 511 128 q 610 176 583 153 q 651 229 636 199 q 667 294 667 260 q 663 323 667 304 q 651 360 658 342 q 634 391 644 378 q 610 404 624 404 q 594 399 600 404 q 587 383 588 392 q 593 367 586 374 q 621 294 621 335 q 578 208 621 242 q 468 174 535 174 q 363 213 406 174 q 325 293 325 250 q 337 332 325 314 q 367 365 349 350 q 408 391 386 379 q 451 413 431 403 q 509 440 481 426 q 560 463 538 453 q 597 480 582 474 q 611 486 611 486 q 633 500 613 488 q 679 540 654 513 q 724 610 703 565 q 746 724 746 656 q 724 828 746 782 q 664 906 701 874 q 577 956 626 939 q 472 974 528 974 m 471 -4 q 601 18 540 -4 q 708 79 663 40 q 781 170 754 118 q 807 281 807 222 q 806 308 807 289 q 801 347 804 326 q 790 381 797 367 q 769 396 782 396 q 765 395 767 396 q 761 394 764 394 q 749 383 753 392 q 747 365 744 375 q 758 325 754 346 q 761 281 761 304 q 738 188 761 231 q 676 112 715 144 q 583 60 636 79 q 471 42 531 42 q 359 60 411 42 q 268 111 307 79 q 207 187 229 143 q 185 281 185 231 q 261 447 185 375 q 290 469 276 460 q 315 486 303 479 q 340 499 328 493 l 482 558 q 533 581 508 568 q 578 610 558 593 q 610 651 597 628 q 622 707 622 675 q 610 765 622 738 q 578 812 599 792 q 530 844 557 832 q 472 856 503 856 q 415 844 442 856 q 367 812 388 832 q 335 765 347 792 q 324 708 324 739 q 324 688 324 700 q 328 664 325 675 q 339 644 332 653 q 357 636 346 636 q 365 638 363 636 q 377 649 374 640 q 378 667 381 658 q 369 708 369 688 q 400 780 369 750 q 472 810 431 810 q 546 780 515 810 q 576 707 576 750 q 566 667 576 683 q 540 638 556 650 q 503 617 524 625 q 465 601 483 608 l 324 542 q 292 526 321 540 q 232 482 264 513 q 139 281 139 397 q 165 169 139 221 q 235 78 190 117 q 341 18 281 40 q 471 -4 401 -4 m 708 450 l 708 449 q 711 430 706 439 q 732 415 717 421 q 756 433 751 415 q 755 453 760 443 q 740 465 750 463 q 732 467 738 467 q 708 450 715 467 "},"9":{"ha":897,"x_min":107,"x_max":790,"o":"m 107 633 q 132 501 107 561 q 200 396 157 440 q 302 324 243 351 q 431 292 361 297 q 396 241 417 271 q 350 176 375 211 q 298 106 325 142 q 246 38 271 71 q 249 6 231 21 q 263 0 257 0 q 281 10 274 0 q 354 106 317 56 q 422 200 392 157 q 473 272 453 243 q 493 301 493 300 q 494 325 501 311 q 474 336 486 339 q 349 356 407 336 q 247 415 290 376 q 178 508 203 453 q 153 633 153 563 q 176 748 153 694 q 240 842 200 801 q 334 906 281 882 q 449 929 388 929 q 563 906 510 929 q 657 842 617 882 q 721 748 697 801 q 744 633 744 694 q 768 610 744 610 q 790 633 790 610 q 763 766 790 704 q 690 874 736 828 q 581 948 643 921 q 449 975 519 975 q 316 948 378 975 q 208 874 254 921 q 134 766 161 828 q 107 633 107 704 m 769 531 q 754 543 765 540 l 615 571 q 611 572 614 572 q 590 560 597 572 q 531 497 569 519 q 449 474 493 474 q 387 486 415 474 q 336 520 358 499 q 301 571 314 542 q 289 633 289 600 q 301 695 289 667 q 336 745 314 724 q 387 779 358 767 q 449 792 415 792 q 555 752 510 792 q 607 651 600 713 q 615 635 608 642 q 632 631 622 629 q 648 639 642 632 q 653 656 654 646 q 631 728 649 694 q 585 785 613 761 q 523 824 558 810 q 449 838 488 838 q 368 822 406 838 q 303 778 331 806 q 259 713 275 750 q 243 633 243 675 q 259 553 243 590 q 303 488 275 515 q 368 444 331 460 q 449 428 406 428 q 548 453 501 428 q 622 524 594 479 l 717 503 q 688 446 707 481 q 638 363 668 411 q 565 249 608 314 q 460 101 521 185 q 455 85 453 94 q 464 69 457 76 q 478 65 471 65 q 496 75 490 65 q 567 173 526 117 q 646 290 607 229 q 719 408 685 350 q 771 511 753 467 q 769 531 775 522 m 432 1 q 456 18 450 1 q 454 38 458 29 q 440 50 450 47 q 432 51 438 51 q 408 35 415 51 l 408 33 q 411 15 406 24 q 432 1 417 6 "},"\u0000":{"ha":0,"x_min":0,"x_max":0,"o":""},"\r":{"ha":292,"x_min":0,"x_max":0,"o":""}," ":{"ha":292,"x_min":0,"x_max":0,"o":""},"A":{"ha":950,"x_min":40,"x_max":882,"o":"m 68 1 q 90 15 83 1 l 419 901 l 574 432 q 596 415 581 415 q 599 416 599 415 q 603 417 600 417 q 617 428 613 419 q 618 446 621 436 l 453 950 q 431 965 446 965 l 411 965 q 389 950 396 965 l 47 32 q 68 1 40 10 m 854 1 l 861 3 q 875 32 882 10 l 758 351 q 738 364 751 364 l 413 364 q 389 342 389 364 q 395 325 389 332 q 413 318 401 318 l 721 318 l 832 15 q 854 1 839 1 m 224 75 q 246 90 239 75 l 440 660 q 439 677 443 668 q 425 689 435 686 q 422 690 424 689 q 418 690 421 690 q 396 675 404 690 l 203 106 q 224 75 196 83 m 706 76 l 713 78 q 726 89 722 81 q 728 106 731 97 l 689 226 q 667 242 682 242 l 374 242 q 351 219 351 242 q 358 203 351 210 q 374 196 364 196 l 650 196 l 685 92 q 706 76 689 76 m 701 417 l 708 418 q 722 429 718 421 q 724 447 726 438 l 583 874 q 561 889 578 889 q 554 888 557 889 q 540 858 533 881 l 679 432 q 701 417 686 417 m 199 -1 q 222 15 215 -1 l 222 17 q 221 35 225 26 q 207 49 217 44 q 203 49 204 49 q 199 50 201 50 q 175 32 182 50 q 178 12 172 21 q 199 -1 183 3 "},"Á":{"ha":950,"x_min":49,"x_max":882,"o":"m 569 1044 q 581 1049 576 1044 l 746 1193 q 751 1213 756 1203 q 735 1225 746 1225 l 575 1225 q 561 1218 568 1225 l 447 1074 q 444 1054 440 1064 q 461 1044 450 1044 l 569 1044 m 497 1081 l 583 1189 l 688 1189 l 563 1081 l 497 1081 m 65 3 l 72 1 q 94 17 88 1 l 424 901 l 578 432 q 600 417 585 417 q 607 418 606 417 q 621 429 617 421 q 622 446 625 438 l 457 950 q 435 965 453 965 l 415 965 q 393 951 400 965 l 51 32 q 52 15 49 24 q 65 3 56 6 m 544 860 l 685 433 q 713 418 690 417 q 726 429 722 421 q 728 447 731 438 l 588 874 q 565 889 583 889 q 558 888 561 889 q 545 876 549 885 q 544 860 542 868 m 429 689 q 422 690 428 690 q 401 675 406 690 l 207 106 q 228 75 200 83 q 250 90 246 75 l 444 660 q 443 678 447 669 q 429 689 439 686 m 393 342 q 400 326 393 332 q 417 319 407 319 l 725 319 l 836 17 q 865 3 843 1 q 878 15 875 6 q 879 32 882 24 l 763 351 q 742 365 756 365 l 417 365 q 400 358 407 365 q 393 342 393 351 m 710 76 l 717 78 q 731 89 726 81 q 732 107 735 97 l 693 226 q 671 243 686 243 l 378 243 q 362 236 368 243 q 356 219 356 229 q 378 197 356 197 l 654 197 l 689 92 q 710 76 694 76 m 179 33 l 179 32 q 182 13 176 22 q 203 -1 188 4 q 226 17 222 -1 q 225 36 229 26 q 211 49 221 46 q 203 50 208 50 q 179 33 186 50 "},"B":{"ha":889,"x_min":126,"x_max":750,"o":"m 150 1 q 172 25 172 1 l 172 925 l 383 925 q 489 917 438 925 q 582 888 540 910 q 649 826 624 867 q 674 721 674 786 q 673 702 674 711 q 671 685 672 693 q 674 668 668 675 q 689 658 679 661 q 706 663 699 658 q 715 678 714 667 q 719 721 719 699 q 691 846 719 797 q 615 922 663 894 q 508 960 568 950 q 383 971 447 971 l 150 971 q 133 965 140 971 q 126 949 126 958 l 126 25 q 133 8 126 14 q 150 1 140 1 m 472 1 q 678 80 606 1 q 750 290 750 158 q 676 500 750 428 q 467 572 601 572 l 381 572 q 364 565 371 572 q 357 549 357 558 q 364 533 357 539 q 381 526 371 526 l 467 526 q 644 467 583 526 q 704 290 704 408 q 645 113 704 178 q 472 47 586 47 l 274 47 q 258 40 264 47 q 251 24 251 33 q 274 1 251 1 l 472 1 m 436 125 q 515 131 479 125 q 576 153 550 136 q 616 201 601 171 q 631 282 631 232 q 616 363 631 331 q 576 415 601 394 q 515 443 550 435 q 436 451 479 451 l 381 451 q 358 429 358 451 q 365 413 358 419 q 381 406 371 406 l 436 406 q 497 401 469 406 q 544 382 524 396 q 574 344 564 368 q 585 282 585 321 q 574 221 585 243 q 544 188 564 199 q 497 174 525 176 q 436 171 469 171 l 296 171 l 296 807 l 414 807 q 507 786 469 807 q 544 704 544 765 q 535 653 544 674 q 534 635 531 644 q 546 622 538 626 q 556 621 549 621 q 574 631 567 621 q 585 654 581 640 q 590 682 589 668 q 590 704 590 696 q 585 751 590 725 q 560 799 579 776 q 507 838 542 822 q 414 853 472 853 l 272 853 q 250 831 250 853 l 250 149 q 272 125 250 125 l 436 125 m 668 583 q 692 600 685 583 q 690 620 694 611 q 676 632 686 629 q 668 633 674 633 q 644 617 649 633 q 646 597 640 606 q 668 583 651 588 "},"C":{"ha":981,"x_min":58,"x_max":926,"o":"m 210 578 q 232 593 225 578 q 272 674 246 638 q 332 739 297 711 q 409 782 367 767 q 499 797 451 797 q 610 773 557 797 q 703 704 663 749 q 719 697 710 697 q 735 703 729 697 q 742 719 742 710 q 736 735 743 728 q 629 815 690 786 q 499 843 568 843 q 395 826 444 843 q 306 776 346 808 q 235 701 265 744 q 188 608 204 658 q 210 578 181 586 m 499 129 q 674 183 596 129 q 794 324 753 236 q 794 341 797 332 q 783 354 792 350 q 774 356 779 356 q 753 343 760 356 q 649 219 717 264 q 499 175 581 175 q 383 201 436 175 q 293 269 331 226 q 235 369 256 313 q 214 485 214 425 q 208 501 214 494 q 192 508 201 508 l 104 508 q 139 664 108 589 q 222 797 169 739 q 345 890 274 856 q 501 925 417 925 q 623 904 565 925 q 728 846 681 883 q 813 758 776 808 q 871 649 850 707 q 893 633 879 633 q 897 634 896 633 q 900 635 899 635 q 913 647 910 638 q 914 665 917 656 q 849 787 890 731 q 755 884 808 843 q 637 948 701 925 q 501 971 572 971 q 323 930 404 971 q 183 822 242 889 q 91 667 124 754 q 58 485 58 579 q 81 463 58 463 l 169 463 q 199 335 172 396 q 269 229 225 275 q 371 156 313 183 q 499 129 429 129 m 501 -1 q 638 22 572 -1 q 760 89 704 46 q 857 192 815 132 q 922 326 899 253 q 907 356 926 349 q 903 356 904 356 q 900 357 901 357 q 878 340 882 357 q 819 219 857 274 q 733 126 782 165 q 624 66 683 88 q 501 44 565 44 q 367 70 429 44 q 254 140 304 96 q 169 244 204 185 q 117 371 133 304 q 107 384 115 381 q 90 388 99 388 q 75 377 81 385 q 72 360 69 369 q 133 214 92 281 q 231 99 174 147 q 357 25 288 51 q 501 -1 426 -1 m 764 632 q 788 649 782 632 q 786 669 790 660 q 772 681 782 678 q 764 682 769 682 q 740 665 747 682 q 743 645 738 654 q 764 632 749 636 "},"D":{"ha":972,"x_min":165,"x_max":865,"o":"m 308 922 l 458 922 q 565 902 503 922 q 683 832 626 882 q 790 672 760 764 q 819 479 819 579 q 782 261 819 353 q 655 103 742 158 q 458 49 568 49 l 332 49 l 332 721 q 310 744 332 744 q 293 738 300 744 q 286 721 286 732 l 286 25 q 293 9 286 15 q 310 3 300 3 l 458 3 q 638 41 561 3 q 765 144 714 79 q 840 295 815 208 q 865 479 865 382 q 821 715 865 611 q 761 816 799 769 q 676 896 724 863 q 574 949 629 929 q 458 968 518 968 l 308 968 q 292 961 299 968 q 285 944 285 954 q 292 928 285 935 q 308 922 299 922 m 188 1 q 204 8 197 1 q 211 25 211 15 l 211 804 l 428 804 q 519 787 474 804 q 600 738 564 769 q 676 624 654 688 q 697 489 697 561 q 675 348 697 404 q 622 256 653 292 q 557 203 590 221 q 501 179 524 186 q 488 168 492 176 q 486 150 483 160 q 515 135 490 135 q 618 190 575 154 q 689 272 661 225 q 730 374 717 318 q 743 489 743 429 q 711 660 743 583 q 598 797 672 744 q 428 850 524 850 l 188 850 q 172 843 178 850 q 165 826 165 836 l 165 25 q 172 8 165 15 q 188 1 178 1 m 432 119 q 456 136 449 119 l 456 138 q 454 156 458 147 q 440 169 450 165 q 421 167 431 169 q 408 153 411 165 q 410 133 404 142 q 432 119 415 124 "},"E":{"ha":757,"x_min":108,"x_max":660,"o":"m 132 -3 l 636 -3 q 652 4 646 -3 q 658 21 658 11 q 636 43 658 43 l 154 43 l 154 401 l 511 401 q 528 408 521 401 q 535 424 535 414 q 528 440 535 433 q 511 447 521 447 l 132 447 q 115 440 122 447 q 108 424 108 433 l 108 21 q 115 4 108 11 q 132 -3 122 -3 m 132 522 l 511 522 q 528 529 521 522 q 535 546 535 536 q 528 562 535 556 q 511 568 521 568 l 154 568 l 154 951 q 148 968 154 961 q 132 975 142 975 q 115 968 122 975 q 108 951 108 961 l 108 546 q 115 529 108 536 q 132 522 122 522 m 633 850 l 250 850 q 234 843 240 850 q 228 826 228 836 l 228 649 q 234 632 228 639 q 250 625 240 625 q 267 632 260 625 q 274 649 274 639 l 274 804 l 633 804 q 650 810 643 804 q 657 826 657 817 q 650 843 657 836 q 633 850 643 850 m 246 925 l 636 925 q 653 932 646 925 q 660 949 660 939 q 653 965 660 958 q 636 971 646 971 l 246 971 q 224 949 224 971 q 230 932 224 939 q 246 925 236 925 m 250 349 q 228 325 228 349 l 228 138 q 250 115 228 115 l 551 115 q 568 122 561 115 q 575 138 575 128 q 568 154 575 147 q 551 161 561 161 l 274 161 l 274 325 q 267 342 274 336 q 250 349 260 349 m 638 163 q 629 164 635 164 q 606 147 613 164 q 608 127 603 136 q 629 114 614 118 q 653 131 646 114 l 653 132 q 651 151 656 142 q 638 163 647 160 "},"É":{"ha":757,"x_min":108,"x_max":660,"o":"m 471 1044 q 482 1049 478 1044 l 647 1193 q 653 1213 657 1203 q 636 1225 647 1225 l 476 1225 q 463 1218 469 1225 l 349 1074 q 346 1054 342 1064 q 363 1044 351 1044 l 471 1044 m 399 1081 l 485 1189 l 589 1189 l 464 1081 l 399 1081 m 132 -3 l 636 -3 q 652 4 646 -3 q 658 21 658 11 q 636 43 658 43 l 154 43 l 154 401 l 511 401 q 528 408 521 401 q 535 424 535 414 q 528 440 535 433 q 511 447 521 447 l 132 447 q 115 440 122 447 q 108 424 108 433 l 108 21 q 115 4 108 11 q 132 -3 122 -3 m 132 522 l 511 522 q 528 529 521 522 q 535 546 535 536 q 528 562 535 556 q 511 568 521 568 l 154 568 l 154 951 q 148 968 154 961 q 132 975 142 975 q 115 968 122 975 q 108 951 108 961 l 108 546 q 115 529 108 536 q 132 522 122 522 m 633 850 l 250 850 q 234 843 240 850 q 228 826 228 836 l 228 649 q 234 632 228 639 q 250 625 240 625 q 267 632 260 625 q 274 649 274 639 l 274 804 l 633 804 q 650 810 643 804 q 657 826 657 817 q 650 843 657 836 q 633 850 643 850 m 246 925 l 636 925 q 653 932 646 925 q 660 949 660 939 q 653 965 660 958 q 636 971 646 971 l 246 971 q 224 949 224 971 q 230 932 224 939 q 246 925 236 925 m 250 349 q 228 325 228 349 l 228 138 q 250 115 228 115 l 551 115 q 568 122 561 115 q 575 138 575 128 q 568 154 575 147 q 551 161 561 161 l 274 161 l 274 325 q 267 342 274 336 q 250 349 260 349 m 638 163 q 629 164 635 164 q 606 147 613 164 q 608 127 603 136 q 629 114 614 118 q 653 131 646 114 l 653 132 q 651 151 656 142 q 638 163 647 160 "},"F":{"ha":700,"x_min":69,"x_max":633,"o":"m 217 528 l 597 528 q 619 550 619 528 q 613 567 619 560 q 597 574 607 574 l 240 574 l 240 725 q 233 742 240 735 q 217 749 226 749 q 201 742 207 749 q 194 725 194 735 l 194 550 q 217 528 194 528 m 214 931 l 606 931 q 622 937 615 931 q 629 954 629 943 q 622 970 629 964 q 606 976 615 976 l 214 976 q 192 954 192 976 q 214 931 192 931 m 194 24 q 217 1 194 1 q 233 8 226 1 q 240 24 240 14 l 240 406 l 538 406 q 554 412 547 406 q 561 428 561 418 q 554 445 561 439 q 538 451 547 451 l 217 451 q 200 444 210 451 q 194 428 194 439 l 194 24 m 92 1 q 108 8 101 1 q 115 24 115 14 l 115 807 l 528 807 q 545 814 539 807 q 551 831 551 821 q 528 853 551 853 l 92 853 q 69 831 69 853 l 69 24 q 92 1 69 1 m 614 854 q 606 856 611 856 q 582 839 589 856 l 582 838 q 585 819 579 828 q 606 806 590 810 q 629 822 625 806 q 628 842 633 833 q 614 854 624 851 "},"G":{"ha":1043,"x_min":74,"x_max":981,"o":"m 240 486 q 261 603 240 546 q 319 704 282 660 q 410 776 357 749 q 526 803 463 803 q 609 791 567 803 q 688 757 651 779 q 699 754 690 754 q 718 765 713 754 q 721 782 724 772 q 711 796 718 792 q 622 835 669 821 q 526 849 574 849 q 407 824 467 849 q 300 751 347 799 q 224 637 253 704 q 194 486 194 569 q 217 344 194 411 q 281 228 239 278 q 385 149 322 178 q 526 119 447 119 q 654 146 596 119 q 754 220 713 172 q 819 334 796 268 q 842 479 842 400 q 835 496 842 489 q 819 503 829 503 l 472 503 q 456 496 463 503 q 450 479 450 489 q 472 457 450 457 l 796 457 q 773 346 792 399 q 721 253 754 293 q 640 189 688 213 q 526 165 592 165 q 403 190 457 165 q 314 258 350 215 q 259 360 278 301 q 240 486 240 419 m 674 333 q 691 340 685 333 q 697 357 697 347 q 674 379 697 379 l 472 379 q 450 357 450 379 q 456 340 450 347 q 472 333 463 333 l 674 333 m 528 -7 q 698 26 621 -7 q 833 122 775 60 q 928 274 890 185 q 978 478 965 364 q 958 503 981 500 q 942 499 949 506 q 933 483 935 493 q 894 316 922 396 q 818 174 867 236 q 697 76 769 113 q 528 40 625 40 q 367 75 442 40 q 238 169 293 110 q 151 311 182 229 q 119 486 119 393 q 149 655 119 575 q 233 795 179 735 q 363 890 288 856 q 532 925 439 925 q 638 910 585 925 q 737 867 690 894 q 822 803 783 840 q 889 719 861 765 q 908 708 896 708 q 921 711 917 708 q 931 726 928 717 q 928 743 933 735 q 855 835 899 793 q 759 908 811 878 q 649 954 707 938 q 532 971 590 971 q 346 932 431 971 q 201 827 261 893 q 107 673 140 761 q 74 486 74 585 q 109 292 74 382 q 206 136 144 203 q 349 31 267 69 q 528 -7 432 -7 m 760 703 q 783 721 776 703 q 782 741 786 732 q 768 753 778 750 q 760 754 765 754 q 736 738 740 754 l 736 736 q 739 717 733 726 q 760 703 744 708 "},"H":{"ha":921,"x_min":111,"x_max":810,"o":"m 235 310 l 235 28 q 258 6 235 6 q 281 28 281 6 l 281 310 q 258 332 281 332 q 235 310 235 332 m 663 626 q 686 649 686 626 l 686 943 q 680 960 686 953 q 663 967 674 967 q 647 960 653 967 q 640 943 640 953 l 640 649 q 663 626 640 626 m 786 10 q 803 17 796 10 q 810 33 810 24 l 810 847 q 803 863 810 857 q 786 869 796 869 q 764 847 764 869 l 764 33 q 770 17 764 24 q 786 10 776 10 m 258 517 l 640 517 l 640 113 q 647 96 640 103 q 663 89 653 89 q 680 96 674 89 q 686 113 686 103 l 686 540 q 663 563 686 563 l 281 563 l 281 944 q 258 967 281 967 q 235 944 235 967 l 235 540 q 241 524 235 531 q 258 517 247 517 m 135 518 q 157 540 157 518 l 157 944 q 135 967 157 967 q 118 960 125 967 q 111 944 111 954 l 111 540 q 118 524 111 531 q 135 518 125 518 m 135 10 q 151 17 144 10 q 157 33 157 24 l 157 392 l 553 392 q 575 414 575 392 q 569 431 575 424 q 553 438 563 438 l 135 438 q 118 431 125 438 q 111 414 111 424 l 111 33 q 118 17 111 24 q 135 10 125 10 m 672 60 q 668 60 669 60 q 664 61 667 61 q 640 43 644 61 q 643 24 638 33 q 664 10 649 14 q 688 26 681 10 l 688 28 q 686 47 690 38 q 672 60 682 56 "},"I":{"ha":382,"x_min":104,"x_max":281,"o":"m 231 101 q 253 79 231 79 q 269 85 263 79 q 276 101 276 92 l 276 483 q 269 500 276 493 q 253 507 263 507 l 150 507 l 150 949 q 143 965 150 958 q 126 972 136 972 q 110 965 117 972 q 104 949 104 958 l 104 483 q 126 461 104 461 l 231 461 l 231 101 m 106 358 l 106 22 q 128 0 106 0 q 151 22 151 0 l 151 358 q 128 381 151 381 q 106 358 106 381 m 276 607 l 276 846 q 269 863 276 856 q 253 869 263 869 q 237 863 243 869 q 231 846 231 856 l 231 607 q 253 585 231 585 q 269 591 263 585 q 276 607 276 597 m 244 0 l 253 -1 q 276 15 272 -1 l 276 17 q 276 36 281 26 q 261 49 272 46 q 257 49 258 49 q 253 50 256 50 q 229 33 236 50 l 229 32 q 231 13 226 22 q 244 0 235 3 "},"Í":{"ha":382,"x_min":104,"x_max":449,"o":"m 263 1044 q 274 1049 269 1044 l 439 1193 q 444 1213 449 1203 q 428 1225 439 1225 l 268 1225 q 254 1218 261 1225 l 140 1074 q 138 1054 133 1064 q 154 1044 143 1044 l 263 1044 m 190 1081 l 276 1189 l 381 1189 l 256 1081 l 190 1081 m 231 461 l 231 101 q 253 79 231 79 q 269 85 263 79 q 276 101 276 92 l 276 483 q 269 500 276 493 q 253 507 263 507 l 150 507 l 150 949 q 143 965 150 958 q 126 972 136 972 q 110 965 117 972 q 104 949 104 958 l 104 483 q 126 461 104 461 l 231 461 m 106 358 l 106 22 q 128 0 106 0 q 151 22 151 0 l 151 358 q 128 381 151 381 q 106 358 106 381 m 276 607 l 276 846 q 269 863 276 856 q 253 869 263 869 q 237 863 243 869 q 231 846 231 856 l 231 607 q 253 585 231 585 q 269 591 263 585 q 276 607 276 597 m 244 0 l 253 -1 q 276 15 272 -1 l 276 17 q 276 36 281 26 q 261 49 272 46 q 257 49 258 49 q 253 50 256 50 q 229 33 236 50 l 229 32 q 231 13 226 22 q 244 0 235 3 "},"J":{"ha":753,"x_min":97,"x_max":656,"o":"m 136 164 q 187 92 156 124 q 256 40 218 61 q 338 7 294 18 q 424 -4 381 -4 q 469 -1 443 -4 q 515 17 496 3 q 532 39 532 21 l 532 828 q 525 844 532 838 q 508 850 518 850 l 249 850 q 226 828 226 850 q 233 811 226 818 q 249 804 239 804 l 486 804 l 486 53 q 456 44 474 46 q 424 42 439 42 q 413 42 418 42 q 401 43 408 42 q 343 53 386 43 q 253 97 300 64 q 168 202 193 142 q 143 335 143 263 q 137 351 143 344 q 121 358 131 358 q 103 351 110 358 q 97 335 97 344 q 136 164 97 236 m 253 281 q 241 267 244 276 q 242 250 238 258 q 304 172 263 204 q 400 128 346 139 q 422 146 419 128 q 420 163 425 156 q 406 174 415 171 q 333 208 365 182 q 283 269 300 233 q 263 282 278 282 q 253 281 256 282 m 121 924 l 610 924 l 610 192 q 632 169 610 169 q 649 176 642 169 q 656 192 656 182 l 656 947 q 649 963 656 957 q 632 969 642 969 l 121 969 q 104 963 111 969 q 97 947 97 957 q 104 930 97 936 q 121 924 111 924 m 254 360 q 246 361 251 361 q 222 344 226 361 l 222 343 q 224 324 218 333 q 246 310 229 315 q 269 328 263 310 q 268 347 272 338 q 254 360 264 357 "},"K":{"ha":928,"x_min":142,"x_max":850,"o":"m 168 526 q 185 533 178 526 q 192 550 192 540 l 192 949 q 185 965 192 958 q 168 972 178 972 q 152 965 158 972 q 146 949 146 958 l 146 550 q 152 533 146 540 q 168 526 158 526 m 146 108 q 152 92 146 99 q 168 85 158 85 q 185 92 178 85 q 192 108 192 99 l 192 340 l 661 939 q 657 971 676 957 q 643 975 651 975 q 625 967 632 975 l 150 363 q 146 349 146 357 l 146 108 m 314 692 l 314 825 q 307 841 314 835 q 290 847 300 847 q 268 825 268 847 l 268 692 q 274 675 268 682 q 290 668 281 668 q 307 675 300 668 q 314 692 314 682 m 290 6 q 307 12 300 6 q 314 28 314 18 l 314 278 l 372 351 l 632 11 q 650 3 639 3 q 664 7 658 3 q 668 39 681 21 l 390 403 q 372 411 385 411 q 354 403 361 411 l 272 299 q 268 285 268 294 l 268 28 q 290 6 268 6 m 832 971 q 817 975 826 975 q 800 967 807 975 l 439 511 q 439 483 429 497 l 799 14 q 817 6 807 6 q 831 10 826 6 q 840 26 839 17 q 836 42 842 35 l 486 497 l 835 939 q 832 971 850 956 m 144 39 q 147 19 142 28 q 168 6 153 10 q 192 22 188 6 l 192 24 q 190 42 194 33 q 176 54 186 51 q 168 56 174 56 q 144 39 151 56 "},"L":{"ha":657,"x_min":69,"x_max":590,"o":"m 196 33 q 203 17 196 24 q 219 10 210 10 l 561 10 q 577 17 571 10 q 583 33 583 24 q 561 56 583 56 l 219 56 q 203 49 210 56 q 196 33 196 43 m 92 131 l 485 131 q 508 153 508 131 q 502 169 508 163 q 485 176 496 176 l 115 176 l 115 957 q 92 979 115 979 q 69 957 69 979 l 69 153 q 92 131 69 131 m 194 832 l 194 264 q 217 242 194 242 q 233 248 226 242 q 240 264 240 254 l 240 832 q 233 848 240 842 q 217 854 226 854 q 194 832 194 854 m 563 128 q 586 144 582 128 l 586 146 q 586 165 590 156 q 571 178 582 175 q 567 178 568 178 q 563 179 565 179 q 539 163 546 179 l 539 161 q 542 142 536 151 q 563 128 547 132 "},"M":{"ha":1154,"x_min":135,"x_max":1038,"o":"m 899 43 q 890 44 896 44 q 867 28 874 44 q 869 8 864 17 q 890 -6 875 -1 q 914 11 910 -6 q 913 31 917 22 q 899 43 908 40 m 281 -4 q 297 3 290 -4 q 304 19 304 10 l 304 454 q 297 470 304 464 q 281 476 290 476 q 258 454 258 476 l 258 19 q 265 3 258 10 q 281 -4 271 -4 m 519 521 q 531 524 522 521 q 542 538 539 529 q 539 556 544 547 l 356 882 q 336 894 350 894 q 325 892 333 894 q 314 877 317 886 q 317 860 311 868 l 499 532 q 519 521 506 521 m 158 -4 q 174 3 168 -4 q 181 19 181 10 l 181 850 l 485 267 q 504 256 489 256 q 525 267 517 253 l 857 860 q 858 877 861 868 q 847 890 856 886 q 836 893 844 893 q 817 882 824 893 l 506 326 l 178 954 q 167 965 174 963 q 153 967 161 967 q 135 944 135 963 l 135 19 q 142 3 135 10 q 158 -4 149 -4 m 890 74 q 907 80 900 74 q 914 96 914 86 l 914 454 q 907 470 914 464 q 890 476 900 476 q 868 454 868 476 l 868 96 q 890 74 868 74 m 1015 -4 q 1031 3 1025 -4 q 1038 19 1038 10 l 1038 944 q 1021 967 1038 963 q 1006 965 1013 967 q 994 956 999 963 l 549 139 q 546 122 543 131 q 557 108 549 113 q 568 104 564 104 q 589 117 582 104 l 992 854 l 992 19 q 999 3 992 10 q 1015 -4 1006 -4 "},"N":{"ha":922,"x_min":96,"x_max":844,"o":"m 264 89 l 264 482 q 240 506 264 506 q 218 482 218 506 l 218 89 q 240 67 218 67 q 264 89 264 67 m 118 -3 q 135 3 128 -3 q 142 19 142 10 l 142 867 l 671 8 q 690 -3 678 -3 q 703 0 694 -3 q 710 32 722 13 l 138 960 q 118 971 131 971 q 115 970 117 971 q 113 969 114 969 q 96 947 96 965 l 96 19 q 118 -3 96 -3 m 299 868 l 671 275 q 697 265 678 265 q 714 288 714 269 l 714 947 q 707 964 714 957 q 690 971 700 971 q 674 964 681 971 q 668 947 668 957 l 668 367 l 338 893 q 318 903 332 903 q 306 900 310 903 q 299 868 286 888 m 813 893 q 797 886 803 893 q 790 869 790 879 l 790 19 q 813 -3 790 -3 q 836 19 836 -3 l 836 869 q 830 886 836 879 q 813 893 824 893 m 806 924 l 813 922 q 836 939 832 922 l 838 940 q 821 972 844 963 q 817 973 818 972 q 814 974 817 974 q 790 956 794 974 l 789 956 q 790 936 786 946 q 806 924 794 926 "},"O":{"ha":993,"x_min":47,"x_max":946,"o":"m 47 492 q 81 309 47 397 q 174 153 114 221 q 316 46 233 86 q 497 6 399 6 q 677 46 594 6 q 819 153 760 86 q 913 309 879 221 q 946 492 946 397 q 913 674 946 586 q 819 828 879 761 q 678 937 760 896 q 497 978 596 978 q 474 956 474 978 l 474 856 q 348 819 404 851 q 251 737 292 786 q 190 624 211 688 q 168 494 168 561 q 192 360 168 425 q 259 244 215 294 q 363 164 303 194 q 497 133 424 133 q 632 163 571 133 q 736 243 693 193 q 803 358 779 293 q 828 494 828 424 q 813 603 828 551 q 772 698 799 654 q 707 776 744 742 q 622 831 669 810 q 614 832 619 832 q 593 818 597 832 q 592 801 589 810 q 604 789 596 792 q 734 674 686 753 q 782 494 782 594 q 762 376 782 433 q 704 276 742 319 q 614 206 667 232 q 497 179 561 179 q 381 206 433 179 q 292 276 329 232 q 234 378 254 321 q 214 494 214 435 q 234 613 214 556 q 291 714 254 669 q 381 785 328 758 q 497 811 433 811 q 519 833 519 811 l 519 932 q 674 888 604 926 q 794 788 744 849 q 872 651 844 728 q 900 492 900 574 q 870 328 900 407 q 787 187 840 249 q 660 88 733 125 q 497 51 586 51 q 334 88 408 51 q 206 186 260 125 q 123 327 153 247 q 93 492 93 407 q 108 612 93 553 q 153 723 124 671 q 225 817 182 775 q 322 889 268 860 q 334 902 331 893 q 332 921 338 911 q 313 932 325 932 q 301 929 304 932 q 194 851 242 899 q 115 747 147 804 q 65 624 82 689 q 47 492 47 558 m 361 947 l 361 946 q 363 927 357 936 q 385 913 368 918 q 408 931 401 913 q 407 950 411 940 q 393 963 403 960 q 385 964 390 964 q 361 947 365 964 "},"Ó":{"ha":993,"x_min":47,"x_max":946,"o":"m 554 1044 q 565 1049 561 1044 l 731 1193 q 736 1213 740 1203 q 719 1225 731 1225 l 560 1225 q 546 1218 553 1225 l 432 1074 q 429 1054 425 1064 q 446 1044 435 1044 l 554 1044 m 482 1081 l 568 1189 l 672 1189 l 547 1081 l 482 1081 m 47 492 q 81 309 47 397 q 174 153 114 221 q 316 46 233 86 q 497 6 399 6 q 677 46 594 6 q 819 153 760 86 q 913 309 879 221 q 946 492 946 397 q 913 674 946 586 q 819 828 879 761 q 678 937 760 896 q 497 978 596 978 q 474 956 474 978 l 474 856 q 348 819 404 851 q 251 737 292 786 q 190 624 211 688 q 168 494 168 561 q 192 360 168 425 q 259 244 215 294 q 363 164 303 194 q 497 133 424 133 q 632 163 571 133 q 736 243 693 193 q 803 358 779 293 q 828 494 828 424 q 813 603 828 551 q 772 698 799 654 q 707 776 744 742 q 622 831 669 810 q 614 832 619 832 q 593 818 597 832 q 592 801 589 810 q 604 789 596 792 q 734 674 686 753 q 782 494 782 594 q 762 376 782 433 q 704 276 742 319 q 614 206 667 232 q 497 179 561 179 q 381 206 433 179 q 292 276 329 232 q 234 378 254 321 q 214 494 214 435 q 234 613 214 556 q 291 714 254 669 q 381 785 328 758 q 497 811 433 811 q 519 833 519 811 l 519 932 q 674 888 604 926 q 794 788 744 849 q 872 651 844 728 q 900 492 900 574 q 870 328 900 407 q 787 187 840 249 q 660 88 733 125 q 497 51 586 51 q 334 88 408 51 q 206 186 260 125 q 123 327 153 247 q 93 492 93 407 q 108 612 93 553 q 153 723 124 671 q 225 817 182 775 q 322 889 268 860 q 334 902 331 893 q 332 921 338 911 q 313 932 325 932 q 301 929 304 932 q 194 851 242 899 q 115 747 147 804 q 65 624 82 689 q 47 492 47 558 m 361 947 l 361 946 q 363 927 357 936 q 385 913 368 918 q 408 931 401 913 q 407 950 411 940 q 393 963 403 960 q 385 964 390 964 q 361 947 365 964 "},"P":{"ha":735,"x_min":125,"x_max":636,"o":"m 272 103 q 289 109 282 103 q 296 125 296 115 l 296 400 l 381 400 q 451 413 408 400 q 533 458 493 426 q 613 566 589 501 q 636 699 636 631 q 619 806 636 756 q 570 892 603 856 q 490 950 538 929 q 381 971 442 971 l 271 971 q 254 965 261 971 q 247 949 247 958 q 254 932 247 939 q 271 925 261 925 l 381 925 q 470 908 431 925 q 536 860 510 890 q 576 789 563 831 q 590 699 590 747 q 506 493 590 563 q 434 456 469 465 q 381 446 399 446 l 272 446 q 250 424 250 446 l 250 125 q 272 103 250 103 m 125 825 l 125 19 q 131 3 125 10 q 149 -4 138 -4 q 165 3 158 -4 q 171 19 171 10 l 171 803 l 329 803 q 383 797 357 803 q 427 778 408 792 q 458 742 446 764 q 469 689 469 721 q 428 597 469 626 q 329 568 386 568 l 296 568 l 296 642 q 289 658 296 651 q 272 664 282 664 q 250 642 250 664 l 250 544 q 272 522 250 522 l 329 522 q 401 533 367 522 q 460 565 435 543 q 501 617 486 586 q 515 689 515 647 q 500 761 515 731 q 460 811 485 792 q 401 840 435 831 q 329 849 367 849 l 149 849 q 131 842 138 849 q 125 825 125 835 m 265 696 l 272 694 q 296 711 292 694 l 297 711 q 296 731 300 722 q 281 743 292 740 q 274 744 278 744 q 249 728 256 744 l 249 726 q 250 708 246 717 q 265 696 254 699 "},"Q":{"ha":1068,"x_min":42,"x_max":1071,"o":"m 1046 -28 q 1068 -7 1065 -28 q 1063 10 1069 3 q 1047 18 1057 17 q 901 49 969 24 q 785 142 832 75 l 783 144 q 767 153 775 153 q 750 147 756 153 q 630 71 697 99 q 490 43 563 43 q 327 80 401 43 q 199 178 253 117 q 117 320 146 240 q 88 485 88 400 q 102 603 88 544 q 145 712 117 661 q 215 806 174 763 q 310 878 257 849 q 319 910 329 890 q 299 921 313 921 q 288 918 292 921 q 183 838 229 885 q 106 735 138 792 q 58 615 75 679 q 42 485 42 551 q 75 302 42 390 q 167 147 108 214 q 309 38 226 79 q 490 -3 392 -3 q 635 23 565 -3 q 763 97 704 49 q 829 37 793 60 q 903 0 865 14 q 977 -20 940 -14 q 1046 -28 1014 -26 m 1046 94 q 1068 114 1065 94 q 1065 131 1071 124 q 1050 140 1060 138 q 872 228 939 157 q 899 284 882 247 q 922 350 915 321 l 925 360 q 939 485 939 417 q 906 667 939 579 q 813 822 872 754 q 672 931 754 890 q 490 971 589 971 q 474 964 481 971 q 468 947 468 957 l 468 849 q 342 811 399 843 q 244 730 285 779 q 183 617 204 681 q 161 488 161 554 q 185 352 161 418 q 253 236 210 286 q 357 156 296 186 q 492 125 418 125 q 599 144 543 125 q 693 201 656 164 q 701 217 701 208 q 697 233 704 226 q 588 327 647 294 q 464 360 528 360 q 448 353 454 360 q 442 336 442 346 q 464 314 442 314 q 559 290 513 314 q 646 222 606 267 q 573 185 611 199 q 492 171 535 171 q 375 198 428 171 q 285 269 322 225 q 227 369 247 313 q 207 488 207 426 q 227 604 207 547 q 285 706 247 661 q 374 776 322 750 q 490 803 426 803 q 507 810 500 803 q 514 826 514 817 l 514 924 q 669 881 599 919 q 789 781 739 842 q 866 643 839 719 q 893 485 893 567 q 890 427 893 456 q 879 371 886 399 l 878 361 q 865 322 874 344 q 847 281 856 300 q 831 247 838 261 q 825 233 825 233 q 828 208 818 218 q 1046 94 907 115 m 747 271 l 750 271 q 768 285 764 271 l 792 343 q 810 395 804 371 q 817 422 815 419 q 821 454 819 438 q 822 488 822 471 q 808 595 822 543 q 766 691 793 647 q 701 768 739 735 q 617 822 664 801 q 608 825 611 825 q 588 811 592 825 q 587 793 583 801 q 599 781 590 785 q 728 665 679 744 q 776 488 776 586 q 775 458 776 472 q 771 431 774 444 q 766 406 771 428 q 750 361 761 385 l 740 338 q 618 429 690 393 q 471 465 546 465 q 451 460 460 465 q 442 442 442 456 q 465 419 444 419 q 613 381 544 419 q 728 279 682 343 q 747 271 735 271 m 371 904 q 394 921 388 904 l 394 922 q 393 941 397 932 q 378 953 389 950 q 371 954 376 954 q 347 938 351 954 l 346 938 q 349 917 343 926 q 371 904 354 908 "},"R":{"ha":896,"x_min":132,"x_max":785,"o":"m 278 290 q 261 284 268 290 q 254 268 254 278 l 254 26 q 261 9 254 15 q 278 3 268 3 q 300 26 300 3 l 300 268 q 278 290 300 290 m 560 104 l 292 506 q 272 515 282 515 q 260 511 264 515 q 253 479 240 499 l 522 79 q 540 68 529 68 q 554 72 549 68 q 563 88 561 78 q 560 104 565 97 m 178 813 l 432 813 q 506 806 472 813 q 564 784 540 800 q 601 740 588 768 q 614 667 614 711 q 567 549 614 581 q 440 517 521 517 l 397 517 q 381 510 388 517 q 374 494 374 504 q 381 478 374 485 q 397 471 388 471 l 440 471 q 660 667 660 471 q 643 759 660 722 q 597 818 626 796 q 524 849 567 840 q 432 858 482 858 l 156 858 q 138 851 144 858 q 132 835 132 844 l 132 26 q 156 3 132 3 q 178 26 178 3 l 178 813 m 517 368 q 713 463 642 385 q 785 669 785 542 q 704 895 785 824 q 476 967 624 967 l 279 967 q 257 944 257 967 q 279 921 257 921 l 476 921 q 672 862 606 921 q 739 669 739 803 q 720 563 739 610 q 667 482 701 515 q 583 431 632 449 q 476 413 535 413 q 456 400 463 413 q 457 376 449 386 l 704 13 q 724 3 711 3 q 736 7 731 3 q 742 39 754 19 l 517 368 m 592 51 q 583 53 589 53 q 560 36 567 53 l 560 35 q 563 16 557 25 q 583 3 568 7 q 607 19 603 3 l 608 19 q 607 40 611 31 q 592 51 603 49 "},"S":{"ha":844,"x_min":88,"x_max":747,"o":"m 169 525 q 243 472 201 493 q 324 432 285 450 l 344 424 q 510 340 453 375 q 556 264 567 306 q 558 247 553 254 q 578 236 564 239 q 600 253 596 236 q 590 322 610 289 q 539 375 575 351 q 462 420 507 399 q 363 465 417 442 l 342 475 q 259 516 296 494 q 196 563 222 538 q 157 619 169 588 q 146 690 144 650 q 150 718 146 693 q 181 768 154 743 q 270 811 218 804 q 372 818 322 818 q 422 812 396 817 q 472 797 447 807 q 518 773 497 788 q 551 736 539 758 q 572 651 575 703 q 577 635 571 642 q 594 628 583 628 q 618 649 615 628 q 518 826 622 769 q 435 856 476 850 q 374 864 393 863 q 253 854 314 864 q 149 800 193 844 q 121 765 131 783 q 106 731 111 747 q 101 704 101 715 q 100 690 100 693 q 169 525 93 594 m 413 -3 l 414 -3 q 429 3 422 -3 q 436 19 436 10 q 431 36 438 29 q 414 43 425 43 q 299 69 351 46 q 207 133 246 93 q 136 321 132 213 q 131 338 138 332 q 115 346 125 344 q 90 324 93 346 q 109 204 88 261 q 174 101 131 147 q 280 28 218 54 q 413 -3 342 1 m 693 179 q 731 240 722 211 q 739 271 739 268 q 737 338 742 307 q 704 399 732 368 q 633 456 681 426 q 497 525 585 485 q 406 567 450 546 q 331 610 363 589 q 282 655 299 632 q 269 701 265 678 q 266 719 271 711 q 251 728 261 726 q 234 725 242 728 q 224 710 226 722 q 293 581 211 642 q 372 533 325 557 q 478 483 418 510 q 604 420 558 447 q 671 369 650 393 q 692 329 688 350 q 694 274 696 308 q 660 209 685 233 q 601 171 635 185 q 531 153 568 157 q 458 149 493 149 q 403 157 432 151 q 349 174 375 163 q 301 204 322 186 q 269 250 281 222 q 247 264 263 264 q 243 263 244 264 q 239 263 242 263 q 227 249 231 258 q 226 232 224 240 q 265 175 240 199 q 322 136 290 151 q 388 113 353 121 q 457 103 424 104 q 584 115 524 103 q 693 179 644 128 m 665 864 q 418 969 576 961 q 401 963 408 969 q 394 947 394 957 q 400 931 393 938 q 417 924 407 924 q 540 897 485 919 q 631 833 594 874 q 681 749 664 797 q 694 646 697 700 q 717 621 692 624 q 740 643 738 621 q 665 864 747 774 m 260 308 l 260 310 q 258 329 263 319 q 244 342 254 339 q 240 342 242 342 q 236 343 239 343 q 213 326 217 343 l 213 325 q 214 306 208 315 q 236 292 219 296 q 260 308 253 292 "},"T":{"ha":838,"x_min":63,"x_max":774,"o":"m 386 22 l 386 357 q 364 381 386 381 q 347 374 354 381 q 340 357 340 368 l 340 22 q 347 6 340 13 q 364 0 354 0 q 386 22 386 0 m 465 607 q 472 591 465 597 q 489 585 479 585 q 511 607 511 585 l 511 801 l 746 801 q 769 824 769 801 q 763 840 769 833 q 746 847 757 847 l 489 847 q 472 840 479 847 q 465 824 465 833 l 465 607 m 256 847 l 86 847 q 69 840 75 847 q 63 824 63 833 q 86 801 63 801 l 256 801 q 278 824 278 801 q 272 840 278 833 q 256 847 265 847 m 385 946 q 363 969 385 969 l 86 969 q 63 946 63 969 q 86 924 63 924 l 339 924 l 339 483 q 346 467 339 474 q 363 461 353 461 l 465 461 l 465 129 q 472 112 465 118 q 489 106 479 106 q 511 129 511 106 l 511 483 q 505 500 511 493 q 489 507 499 507 l 385 507 l 385 946 m 489 969 q 472 963 479 969 q 465 946 465 957 q 472 930 465 936 q 489 924 479 924 l 669 924 q 692 946 692 924 q 669 969 692 969 l 489 969 m 754 971 q 747 972 753 972 q 724 956 728 972 l 722 954 q 725 935 719 944 q 746 921 731 926 q 769 939 765 921 l 771 939 q 769 958 774 949 q 754 971 765 968 "},"U":{"ha":957,"x_min":83,"x_max":874,"o":"m 206 824 l 206 467 q 248 276 206 363 q 365 143 290 189 q 378 140 369 140 q 397 150 392 140 q 400 167 403 158 q 389 182 397 176 q 328 236 354 204 q 285 306 301 268 q 260 385 268 344 q 251 467 251 426 l 251 824 q 245 840 251 833 q 229 847 239 847 q 212 840 218 847 q 206 824 206 833 m 83 469 q 110 299 83 386 q 187 142 136 213 q 310 28 238 72 q 478 -17 383 -17 q 494 -10 488 -17 q 501 7 501 -3 l 501 107 q 614 149 567 114 q 692 235 661 185 q 736 347 722 286 q 750 467 750 408 l 750 854 q 728 878 750 878 q 711 872 718 878 q 704 854 704 865 l 704 467 q 692 360 704 415 q 652 258 679 304 q 582 182 625 213 q 478 151 539 151 q 462 144 468 151 q 456 128 456 138 l 456 31 q 328 73 388 36 q 224 169 268 110 q 155 305 181 228 q 129 469 129 382 l 129 935 q 123 951 129 944 q 107 958 117 958 q 90 951 96 958 q 83 935 83 944 l 83 469 m 578 36 q 565 25 569 33 q 565 7 561 17 q 594 -6 571 -10 q 716 68 664 18 q 803 182 768 118 q 856 318 838 246 q 874 458 874 390 l 874 933 q 867 950 874 943 q 850 957 860 957 q 834 950 840 957 q 828 933 828 943 l 828 458 q 812 331 828 396 q 765 208 796 265 q 687 105 733 150 q 578 36 640 60 m 736 957 q 732 958 733 957 q 728 958 731 958 q 704 942 711 958 l 704 940 q 707 921 701 931 q 728 907 713 911 q 751 924 744 907 l 751 925 q 750 944 754 935 q 736 957 746 953 "},"Ú":{"ha":957,"x_min":83,"x_max":874,"o":"m 513 1044 q 524 1049 519 1044 l 689 1193 q 694 1213 699 1203 q 678 1225 689 1225 l 518 1225 q 504 1218 511 1225 l 390 1074 q 388 1054 383 1064 q 404 1044 393 1044 l 513 1044 m 440 1081 l 526 1189 l 631 1189 l 506 1081 l 440 1081 m 206 824 l 206 467 q 248 276 206 363 q 365 143 290 189 q 378 140 369 140 q 397 150 392 140 q 400 167 403 158 q 389 182 397 176 q 328 236 354 204 q 285 306 301 268 q 260 385 268 344 q 251 467 251 426 l 251 824 q 245 840 251 833 q 229 847 239 847 q 212 840 218 847 q 206 824 206 833 m 83 469 q 110 299 83 386 q 187 142 136 213 q 310 28 238 72 q 478 -17 383 -17 q 494 -10 488 -17 q 501 7 501 -3 l 501 107 q 614 149 567 114 q 692 235 661 185 q 736 347 722 286 q 750 467 750 408 l 750 854 q 728 878 750 878 q 711 872 718 878 q 704 854 704 865 l 704 467 q 692 360 704 415 q 652 258 679 304 q 582 182 625 213 q 478 151 539 151 q 462 144 468 151 q 456 128 456 138 l 456 31 q 328 73 388 36 q 224 169 268 110 q 155 305 181 228 q 129 469 129 382 l 129 935 q 123 951 129 944 q 107 958 117 958 q 90 951 96 958 q 83 935 83 944 l 83 469 m 578 36 q 565 25 569 33 q 565 7 561 17 q 594 -6 571 -10 q 716 68 664 18 q 803 182 768 118 q 856 318 838 246 q 874 458 874 390 l 874 933 q 867 950 874 943 q 850 957 860 957 q 834 950 840 957 q 828 933 828 943 l 828 458 q 812 331 828 396 q 765 208 796 265 q 687 105 733 150 q 578 36 640 60 m 736 957 q 732 958 733 957 q 728 958 731 958 q 704 942 711 958 l 704 940 q 707 921 701 931 q 728 907 713 911 q 751 924 744 907 l 751 925 q 750 944 754 935 q 736 957 746 953 "},"Ü":{"ha":1011,"x_min":83,"x_max":874,"o":"m 672 1044 q 689 1051 682 1044 q 696 1068 696 1057 l 696 1197 q 689 1215 696 1208 q 672 1221 682 1221 l 542 1221 q 519 1197 519 1221 l 519 1068 q 542 1044 519 1044 l 672 1044 m 565 1090 l 565 1175 l 650 1175 l 650 1090 l 565 1090 m 422 1044 q 439 1051 432 1044 q 446 1068 446 1057 l 446 1197 q 439 1215 446 1208 q 422 1221 432 1221 l 292 1221 q 269 1197 269 1221 l 269 1068 q 292 1044 269 1044 l 422 1044 m 315 1090 l 315 1175 l 400 1175 l 400 1090 l 315 1090 m 206 824 l 206 467 q 248 276 206 363 q 365 143 290 189 q 378 140 369 140 q 397 150 392 140 q 400 167 403 158 q 389 182 397 176 q 328 236 354 204 q 285 306 301 268 q 260 385 268 344 q 251 467 251 426 l 251 824 q 245 840 251 833 q 229 847 239 847 q 212 840 218 847 q 206 824 206 833 m 83 469 q 110 299 83 386 q 187 142 136 213 q 310 28 238 72 q 478 -17 383 -17 q 494 -10 488 -17 q 501 7 501 -3 l 501 107 q 614 149 567 114 q 692 235 661 185 q 736 347 722 286 q 750 467 750 408 l 750 854 q 728 878 750 878 q 711 872 718 878 q 704 854 704 865 l 704 467 q 692 360 704 415 q 652 258 679 304 q 582 182 625 213 q 478 151 539 151 q 462 144 468 151 q 456 128 456 138 l 456 31 q 328 73 388 36 q 224 169 268 110 q 155 305 181 228 q 129 469 129 382 l 129 935 q 123 951 129 944 q 107 958 117 958 q 90 951 96 958 q 83 935 83 944 l 83 469 m 578 36 q 565 25 569 33 q 565 7 561 17 q 594 -6 571 -10 q 716 68 664 18 q 803 182 768 118 q 856 318 838 246 q 874 458 874 390 l 874 933 q 867 950 874 943 q 850 957 860 957 q 834 950 840 957 q 828 933 828 943 l 828 458 q 812 331 828 396 q 765 208 796 265 q 687 105 733 150 q 578 36 640 60 m 736 957 q 732 958 733 957 q 728 958 731 958 q 704 942 711 958 l 704 940 q 707 921 701 931 q 728 907 713 911 q 751 924 744 907 l 751 925 q 750 944 754 935 q 736 957 746 953 "},"V":{"ha":968,"x_min":92,"x_max":894,"o":"m 444 0 l 451 1 q 465 32 472 11 l 138 950 q 117 965 132 965 q 113 965 114 965 q 108 964 111 964 q 96 951 100 960 q 94 933 92 943 l 422 15 q 444 0 428 0 m 544 360 q 567 375 560 360 l 732 854 q 731 872 735 864 q 717 883 726 881 q 710 885 715 885 q 688 869 694 885 l 522 389 q 524 372 519 381 q 544 360 529 363 m 550 0 q 571 17 567 0 l 892 935 q 890 952 894 943 q 878 964 886 961 q 874 965 875 964 q 869 965 872 965 q 849 949 853 965 l 550 94 l 296 853 q 274 868 292 868 q 267 867 269 868 q 253 838 246 860 l 528 17 q 550 0 532 3 m 738 917 q 761 933 754 917 l 761 935 q 760 953 764 944 q 746 967 756 963 q 726 965 735 967 q 714 950 718 963 q 717 930 711 939 q 738 917 722 921 "},"W":{"ha":1157,"x_min":50,"x_max":1107,"o":"m 879 457 q 903 478 899 457 l 960 865 q 956 882 963 875 q 940 890 950 889 q 938 892 939 892 q 915 872 918 892 l 857 483 q 879 457 854 461 m 778 72 l 788 74 q 799 85 796 76 q 800 103 803 94 l 664 431 q 643 446 660 446 q 635 443 640 446 q 622 431 625 440 q 622 414 618 422 l 757 86 q 778 72 763 72 m 949 -1 l 951 -1 q 972 18 969 1 l 1104 944 q 1101 961 1107 954 q 1085 969 1094 968 q 1068 965 1075 969 q 1060 950 1061 960 l 938 104 l 678 697 q 657 711 674 711 q 636 697 643 711 l 358 106 q 358 88 354 97 q 369 75 361 79 q 379 72 375 72 q 400 86 393 72 l 657 633 l 928 13 q 949 -1 935 -1 m 264 465 l 267 467 q 286 492 289 469 l 228 950 q 219 965 226 960 q 203 969 213 969 q 183 944 181 967 l 240 486 q 249 472 243 478 q 264 465 256 465 m 208 -1 q 229 13 222 -1 l 617 829 q 617 847 621 838 q 606 858 614 856 q 596 861 603 861 q 575 849 582 861 l 219 100 l 97 950 q 89 965 96 960 q 72 969 82 969 q 56 961 63 968 q 53 944 50 954 l 185 18 q 208 -1 188 3 m 949 919 q 972 936 968 919 l 972 938 q 972 957 976 947 q 957 969 968 967 q 953 970 954 969 q 949 971 951 971 q 925 954 932 971 l 925 953 q 928 933 922 943 q 949 919 933 924 "},"X":{"ha":922,"x_min":68,"x_max":856,"o":"m 442 357 l 624 71 q 643 61 629 61 q 654 64 649 61 q 661 96 674 76 l 488 369 l 850 938 q 853 955 856 946 q 843 969 850 964 q 831 972 835 972 q 811 963 818 972 l 442 382 q 442 357 435 368 m 847 29 l 613 400 q 593 411 606 411 q 581 407 588 411 q 574 375 561 394 l 808 6 q 828 -6 817 -6 q 840 -3 835 -6 q 851 13 849 3 q 847 29 853 22 m 522 693 q 535 690 526 690 q 554 700 549 690 l 663 871 q 656 903 675 890 q 644 907 651 907 q 625 896 632 907 l 515 725 q 513 708 510 717 q 522 693 515 699 m 81 -3 q 92 -6 86 -6 q 111 6 104 -6 l 481 586 q 481 610 490 599 l 257 963 q 238 972 250 972 q 226 969 232 972 q 219 938 207 957 l 435 597 l 74 29 q 70 13 68 22 q 81 -3 72 3 m 311 567 q 331 556 318 556 q 343 560 338 556 q 350 592 360 572 l 114 963 q 94 972 107 972 q 82 969 90 972 q 72 955 75 964 q 75 938 69 946 l 311 567 m 278 58 q 297 69 290 58 l 407 242 q 400 274 419 261 q 388 276 396 276 q 368 267 376 276 l 258 94 q 256 77 253 86 q 265 63 258 68 q 278 58 272 58 m 661 958 l 661 957 q 664 938 658 947 q 685 925 669 929 q 708 942 703 925 q 707 962 711 953 q 693 974 703 971 q 685 975 690 975 q 661 958 665 975 "},"Y":{"ha":858,"x_min":54,"x_max":804,"o":"m 68 964 q 57 951 60 960 q 58 933 54 942 l 354 389 l 354 21 q 361 5 354 11 q 378 -1 368 -1 q 400 21 400 -1 l 400 394 q 397 406 400 400 l 99 956 q 78 967 92 967 q 68 964 71 967 m 519 21 l 519 303 q 497 325 519 325 q 481 319 488 325 q 474 303 474 313 l 474 21 q 481 5 474 11 q 497 -1 488 -1 q 519 21 519 -1 m 246 896 q 235 883 238 892 q 236 865 232 874 l 479 419 q 499 408 486 408 l 500 408 q 521 419 514 408 l 800 933 q 801 951 804 942 q 790 964 799 960 q 779 967 788 967 q 760 956 767 967 l 500 478 l 276 888 q 257 899 269 899 q 246 896 249 899 m 483 665 q 503 676 496 665 l 611 872 q 613 890 615 881 q 601 904 610 900 q 590 907 593 907 q 571 894 578 907 l 463 699 q 461 681 458 690 q 472 668 464 672 q 483 665 475 665 m 228 968 q 219 969 225 969 q 196 953 203 969 q 199 933 193 942 q 219 919 204 924 q 243 936 236 919 l 243 938 q 242 956 246 947 q 228 968 238 965 "},"Z":{"ha":910,"x_min":114,"x_max":824,"o":"m 389 168 q 372 162 379 168 q 365 146 365 156 q 372 128 365 135 q 389 122 379 122 l 703 122 q 719 128 713 122 q 726 146 726 135 q 719 162 726 156 q 703 168 713 168 l 389 168 m 800 754 q 785 760 794 760 q 768 753 774 760 l 124 39 q 121 14 114 28 q 142 0 125 0 l 782 0 q 799 7 792 0 q 806 24 806 14 q 799 40 806 33 q 782 46 792 46 l 193 46 l 803 722 q 800 754 818 739 m 485 806 q 501 812 494 806 q 508 828 508 818 q 501 844 508 838 q 485 851 494 851 l 253 851 q 235 844 242 851 q 229 828 229 838 q 253 806 229 806 l 485 806 m 817 958 q 796 972 813 972 l 157 972 q 141 965 147 972 q 135 949 135 958 q 157 926 135 926 l 744 926 l 146 261 q 140 245 139 254 q 147 229 140 236 q 163 222 157 222 q 181 231 172 222 l 814 933 q 817 958 824 944 m 789 169 q 781 171 786 171 q 757 154 764 171 l 757 153 q 760 134 754 143 q 781 121 765 125 q 804 138 800 121 q 803 158 807 149 q 789 169 799 167 "},"a":{"ha":950,"x_min":40,"x_max":882,"o":"m 68 1 q 90 15 83 1 l 419 901 l 574 432 q 596 415 581 415 q 599 416 599 415 q 603 417 600 417 q 617 428 613 419 q 618 446 621 436 l 453 950 q 431 965 446 965 l 411 965 q 389 950 396 965 l 47 32 q 68 1 40 10 m 854 1 l 861 3 q 875 32 882 10 l 758 351 q 738 364 751 364 l 413 364 q 389 342 389 364 q 395 325 389 332 q 413 318 401 318 l 721 318 l 832 15 q 854 1 839 1 m 224 75 q 246 90 239 75 l 440 660 q 439 677 443 668 q 425 689 435 686 q 422 690 424 689 q 418 690 421 690 q 396 675 404 690 l 203 106 q 224 75 196 83 m 706 76 l 713 78 q 726 89 722 81 q 728 106 731 97 l 689 226 q 667 242 682 242 l 374 242 q 351 219 351 242 q 358 203 351 210 q 374 196 364 196 l 650 196 l 685 92 q 706 76 689 76 m 701 417 l 708 418 q 722 429 718 421 q 724 447 726 438 l 583 874 q 561 889 578 889 q 554 888 557 889 q 540 858 533 881 l 679 432 q 701 417 686 417 m 199 -1 q 222 15 215 -1 l 222 17 q 221 35 225 26 q 207 49 217 44 q 203 49 204 49 q 199 50 201 50 q 175 32 182 50 q 178 12 172 21 q 199 -1 183 3 "},"á":{"ha":950,"x_min":40,"x_max":882,"o":"m 569 1044 q 581 1049 576 1044 l 746 1193 q 751 1213 756 1203 q 735 1225 746 1225 l 575 1225 q 561 1218 568 1225 l 447 1074 q 444 1054 440 1064 q 461 1044 450 1044 l 569 1044 m 497 1081 l 583 1189 l 688 1189 l 563 1081 l 497 1081 m 68 1 q 90 15 83 1 l 419 901 l 574 432 q 596 415 581 415 q 599 416 599 415 q 603 417 600 417 q 617 428 613 419 q 618 446 621 436 l 453 950 q 431 965 446 965 l 411 965 q 389 950 396 965 l 47 32 q 68 1 40 10 m 854 1 l 861 3 q 875 32 882 10 l 758 351 q 738 364 751 364 l 413 364 q 389 342 389 364 q 395 325 389 332 q 413 318 401 318 l 721 318 l 832 15 q 854 1 839 1 m 224 75 q 246 90 239 75 l 440 660 q 439 677 443 668 q 425 689 435 686 q 422 690 424 689 q 418 690 421 690 q 396 675 404 690 l 203 106 q 224 75 196 83 m 706 76 l 713 78 q 726 89 722 81 q 728 106 731 97 l 689 226 q 667 242 682 242 l 374 242 q 351 219 351 242 q 358 203 351 210 q 374 196 364 196 l 650 196 l 685 92 q 706 76 689 76 m 701 417 l 708 418 q 722 429 718 421 q 724 447 726 438 l 583 874 q 561 889 578 889 q 554 888 557 889 q 540 858 533 881 l 679 432 q 701 417 686 417 m 199 -1 q 222 15 215 -1 l 222 17 q 221 35 225 26 q 207 49 217 44 q 203 49 204 49 q 199 50 201 50 q 175 32 182 50 q 178 12 172 21 q 199 -1 183 3 "},"b":{"ha":888,"x_min":126,"x_max":750,"o":"m 150 1 q 172 25 172 1 l 172 925 l 383 925 q 489 917 438 925 q 582 888 540 910 q 649 826 624 867 q 674 721 674 786 q 673 702 674 711 q 671 685 672 693 q 674 668 668 675 q 689 658 679 661 q 706 663 699 658 q 715 678 714 667 q 719 721 719 699 q 691 846 719 797 q 615 922 663 894 q 508 960 568 950 q 383 971 447 971 l 150 971 q 133 965 140 971 q 126 949 126 958 l 126 25 q 133 8 126 14 q 150 1 140 1 m 472 1 q 678 80 606 1 q 750 290 750 158 q 676 500 750 428 q 467 572 601 572 l 381 572 q 364 565 371 572 q 357 549 357 558 q 364 533 357 539 q 381 526 371 526 l 467 526 q 644 467 583 526 q 704 290 704 408 q 645 113 704 178 q 472 47 586 47 l 274 47 q 258 40 264 47 q 251 24 251 33 q 274 1 251 1 l 472 1 m 436 125 q 515 131 479 125 q 576 153 550 136 q 616 201 601 171 q 631 282 631 232 q 616 363 631 331 q 576 415 601 394 q 515 443 550 435 q 436 451 479 451 l 381 451 q 358 429 358 451 q 365 413 358 419 q 381 406 371 406 l 436 406 q 497 401 469 406 q 544 382 524 396 q 574 344 564 368 q 585 282 585 321 q 574 221 585 243 q 544 188 564 199 q 497 174 525 176 q 436 171 469 171 l 296 171 l 296 807 l 414 807 q 507 786 469 807 q 544 704 544 765 q 535 653 544 674 q 534 635 531 644 q 546 622 538 626 q 556 621 549 621 q 574 631 567 621 q 585 654 581 640 q 590 682 589 668 q 590 704 590 696 q 585 751 590 725 q 560 799 579 776 q 507 838 542 822 q 414 853 472 853 l 272 853 q 250 831 250 853 l 250 149 q 272 125 250 125 l 436 125 m 668 583 q 692 600 685 583 q 690 620 694 611 q 676 632 686 629 q 668 633 674 633 q 644 617 649 633 q 646 597 640 606 q 668 583 651 588 "},"c":{"ha":981,"x_min":58,"x_max":926,"o":"m 210 578 q 232 593 225 578 q 272 674 246 638 q 332 739 297 711 q 409 782 367 767 q 499 797 451 797 q 610 773 557 797 q 703 704 663 749 q 719 697 710 697 q 735 703 729 697 q 742 719 742 710 q 736 735 743 728 q 629 815 690 786 q 499 843 568 843 q 395 826 444 843 q 306 776 346 808 q 235 701 265 744 q 188 608 204 658 q 210 578 181 586 m 499 129 q 674 183 596 129 q 794 324 753 236 q 794 341 797 332 q 783 354 792 350 q 774 356 779 356 q 753 343 760 356 q 649 219 717 264 q 499 175 581 175 q 383 201 436 175 q 293 269 331 226 q 235 369 256 313 q 214 485 214 425 q 208 501 214 494 q 192 508 201 508 l 104 508 q 139 664 108 589 q 222 797 169 739 q 345 890 274 856 q 501 925 417 925 q 623 904 565 925 q 728 846 681 883 q 813 758 776 808 q 871 649 850 707 q 893 633 879 633 q 897 634 896 633 q 900 635 899 635 q 913 647 910 638 q 914 665 917 656 q 849 787 890 731 q 755 884 808 843 q 637 948 701 925 q 501 971 572 971 q 323 930 404 971 q 183 822 242 889 q 91 667 124 754 q 58 485 58 579 q 81 463 58 463 l 169 463 q 199 335 172 396 q 269 229 225 275 q 371 156 313 183 q 499 129 429 129 m 501 -1 q 638 22 572 -1 q 760 89 704 46 q 857 192 815 132 q 922 326 899 253 q 907 356 926 349 q 903 356 904 356 q 900 357 901 357 q 878 340 882 357 q 819 219 857 274 q 733 126 782 165 q 624 66 683 88 q 501 44 565 44 q 367 70 429 44 q 254 140 304 96 q 169 244 204 185 q 117 371 133 304 q 107 384 115 381 q 90 388 99 388 q 75 377 81 385 q 72 360 69 369 q 133 214 92 281 q 231 99 174 147 q 357 25 288 51 q 501 -1 426 -1 m 764 632 q 788 649 782 632 q 786 669 790 660 q 772 681 782 678 q 764 682 769 682 q 740 665 747 682 q 743 645 738 654 q 764 632 749 636 "},"d":{"ha":972,"x_min":165,"x_max":865,"o":"m 308 922 l 458 922 q 565 902 503 922 q 683 832 626 882 q 790 672 760 764 q 819 479 819 579 q 782 261 819 353 q 655 103 742 158 q 458 49 568 49 l 332 49 l 332 721 q 310 744 332 744 q 293 738 300 744 q 286 721 286 732 l 286 25 q 293 9 286 15 q 310 3 300 3 l 458 3 q 638 41 561 3 q 765 144 714 79 q 840 295 815 208 q 865 479 865 382 q 821 715 865 611 q 761 816 799 769 q 676 896 724 863 q 574 949 629 929 q 458 968 518 968 l 308 968 q 292 961 299 968 q 285 944 285 954 q 292 928 285 935 q 308 922 299 922 m 188 1 q 204 8 197 1 q 211 25 211 15 l 211 804 l 428 804 q 519 787 474 804 q 600 738 564 769 q 676 624 654 688 q 697 489 697 561 q 675 348 697 404 q 622 256 653 292 q 557 203 590 221 q 501 179 524 186 q 488 168 492 176 q 486 150 483 160 q 515 135 490 135 q 618 190 575 154 q 689 272 661 225 q 730 374 717 318 q 743 489 743 429 q 711 660 743 583 q 598 797 672 744 q 428 850 524 850 l 188 850 q 172 843 178 850 q 165 826 165 836 l 165 25 q 172 8 165 15 q 188 1 178 1 m 432 119 q 456 136 449 119 l 456 138 q 454 156 458 147 q 440 169 450 165 q 421 167 431 169 q 408 153 411 165 q 410 133 404 142 q 432 119 415 124 "},"e":{"ha":757,"x_min":108,"x_max":660,"o":"m 132 -3 l 636 -3 q 652 4 646 -3 q 658 21 658 11 q 636 43 658 43 l 154 43 l 154 401 l 511 401 q 528 408 521 401 q 535 424 535 414 q 528 440 535 433 q 511 447 521 447 l 132 447 q 115 440 122 447 q 108 424 108 433 l 108 21 q 115 4 108 11 q 132 -3 122 -3 m 132 522 l 511 522 q 528 529 521 522 q 535 546 535 536 q 528 562 535 556 q 511 568 521 568 l 154 568 l 154 951 q 148 968 154 961 q 132 975 142 975 q 115 968 122 975 q 108 951 108 961 l 108 546 q 115 529 108 536 q 132 522 122 522 m 633 850 l 250 850 q 234 843 240 850 q 228 826 228 836 l 228 649 q 234 632 228 639 q 250 625 240 625 q 267 632 260 625 q 274 649 274 639 l 274 804 l 633 804 q 650 810 643 804 q 657 826 657 817 q 650 843 657 836 q 633 850 643 850 m 246 925 l 636 925 q 653 932 646 925 q 660 949 660 939 q 653 965 660 958 q 636 971 646 971 l 246 971 q 224 949 224 971 q 230 932 224 939 q 246 925 236 925 m 250 349 q 228 325 228 349 l 228 138 q 250 115 228 115 l 551 115 q 568 122 561 115 q 575 138 575 128 q 568 154 575 147 q 551 161 561 161 l 274 161 l 274 325 q 267 342 274 336 q 250 349 260 349 m 638 163 q 629 164 635 164 q 606 147 613 164 q 608 127 603 136 q 629 114 614 118 q 653 131 646 114 l 653 132 q 651 151 656 142 q 638 163 647 160 "},"é":{"ha":757,"x_min":108,"x_max":660,"o":"m 471 1044 q 482 1049 478 1044 l 647 1193 q 653 1213 657 1203 q 636 1225 647 1225 l 476 1225 q 463 1218 469 1225 l 349 1074 q 346 1054 342 1064 q 363 1044 351 1044 l 471 1044 m 399 1081 l 485 1189 l 589 1189 l 464 1081 l 399 1081 m 132 -3 l 636 -3 q 652 4 646 -3 q 658 21 658 11 q 636 43 658 43 l 154 43 l 154 401 l 511 401 q 528 408 521 401 q 535 424 535 414 q 528 440 535 433 q 511 447 521 447 l 132 447 q 115 440 122 447 q 108 424 108 433 l 108 21 q 115 4 108 11 q 132 -3 122 -3 m 132 522 l 511 522 q 528 529 521 522 q 535 546 535 536 q 528 562 535 556 q 511 568 521 568 l 154 568 l 154 951 q 148 968 154 961 q 132 975 142 975 q 115 968 122 975 q 108 951 108 961 l 108 546 q 115 529 108 536 q 132 522 122 522 m 633 850 l 250 850 q 234 843 240 850 q 228 826 228 836 l 228 649 q 234 632 228 639 q 250 625 240 625 q 267 632 260 625 q 274 649 274 639 l 274 804 l 633 804 q 650 810 643 804 q 657 826 657 817 q 650 843 657 836 q 633 850 643 850 m 246 925 l 636 925 q 653 932 646 925 q 660 949 660 939 q 653 965 660 958 q 636 971 646 971 l 246 971 q 224 949 224 971 q 230 932 224 939 q 246 925 236 925 m 250 349 q 228 325 228 349 l 228 138 q 250 115 228 115 l 551 115 q 568 122 561 115 q 575 138 575 128 q 568 154 575 147 q 551 161 561 161 l 274 161 l 274 325 q 267 342 274 336 q 250 349 260 349 m 638 163 q 629 164 635 164 q 606 147 613 164 q 608 127 603 136 q 629 114 614 118 q 653 131 646 114 l 653 132 q 651 151 656 142 q 638 163 647 160 "},"f":{"ha":700,"x_min":69,"x_max":633,"o":"m 217 528 l 597 528 q 619 550 619 528 q 613 567 619 560 q 597 574 607 574 l 240 574 l 240 725 q 233 742 240 735 q 217 749 226 749 q 201 742 207 749 q 194 725 194 735 l 194 550 q 217 528 194 528 m 214 931 l 606 931 q 622 937 615 931 q 629 954 629 943 q 622 970 629 964 q 606 976 615 976 l 214 976 q 192 954 192 976 q 214 931 192 931 m 194 24 q 217 1 194 1 q 233 8 226 1 q 240 24 240 14 l 240 406 l 538 406 q 554 412 547 406 q 561 428 561 418 q 554 445 561 439 q 538 451 547 451 l 217 451 q 200 444 210 451 q 194 428 194 439 l 194 24 m 92 1 q 108 8 101 1 q 115 24 115 14 l 115 807 l 528 807 q 545 814 539 807 q 551 831 551 821 q 528 853 551 853 l 92 853 q 69 831 69 853 l 69 24 q 92 1 69 1 m 614 854 q 606 856 611 856 q 582 839 589 856 l 582 838 q 585 819 579 828 q 606 806 590 810 q 629 822 625 806 q 628 842 633 833 q 614 854 624 851 "},"g":{"ha":1043,"x_min":74,"x_max":981,"o":"m 240 486 q 261 603 240 546 q 319 704 282 660 q 410 776 357 749 q 526 803 463 803 q 609 791 567 803 q 688 757 651 779 q 699 754 690 754 q 718 765 713 754 q 721 782 724 772 q 711 796 718 792 q 622 835 669 821 q 526 849 574 849 q 407 824 467 849 q 300 751 347 799 q 224 637 253 704 q 194 486 194 569 q 217 344 194 411 q 281 228 239 278 q 385 149 322 178 q 526 119 447 119 q 654 146 596 119 q 754 220 713 172 q 819 334 796 268 q 842 479 842 400 q 835 496 842 489 q 819 503 829 503 l 472 503 q 456 496 463 503 q 450 479 450 489 q 472 457 450 457 l 796 457 q 773 346 792 399 q 721 253 754 293 q 640 189 688 213 q 526 165 592 165 q 403 190 457 165 q 314 258 350 215 q 259 360 278 301 q 240 486 240 419 m 674 333 q 691 340 685 333 q 697 357 697 347 q 674 379 697 379 l 472 379 q 450 357 450 379 q 456 340 450 347 q 472 333 463 333 l 674 333 m 528 -7 q 698 26 621 -7 q 833 122 775 60 q 928 274 890 185 q 978 478 965 364 q 958 503 981 500 q 942 499 949 506 q 933 483 935 493 q 894 316 922 396 q 818 174 867 236 q 697 76 769 113 q 528 40 625 40 q 367 75 442 40 q 238 169 293 110 q 151 311 182 229 q 119 486 119 393 q 149 655 119 575 q 233 795 179 735 q 363 890 288 856 q 532 925 439 925 q 638 910 585 925 q 737 867 690 894 q 822 803 783 840 q 889 719 861 765 q 908 708 896 708 q 921 711 917 708 q 931 726 928 717 q 928 743 933 735 q 855 835 899 793 q 759 908 811 878 q 649 954 707 938 q 532 971 590 971 q 346 932 431 971 q 201 827 261 893 q 107 673 140 761 q 74 486 74 585 q 109 292 74 382 q 206 136 144 203 q 349 31 267 69 q 528 -7 432 -7 m 760 703 q 783 721 776 703 q 782 741 786 732 q 768 753 778 750 q 760 754 765 754 q 736 738 740 754 l 736 736 q 739 717 733 726 q 760 703 744 708 "},"h":{"ha":921,"x_min":111,"x_max":810,"o":"m 235 310 l 235 28 q 258 6 235 6 q 281 28 281 6 l 281 310 q 258 332 281 332 q 235 310 235 332 m 663 626 q 686 649 686 626 l 686 943 q 680 960 686 953 q 663 967 674 967 q 647 960 653 967 q 640 943 640 953 l 640 649 q 663 626 640 626 m 786 10 q 803 17 796 10 q 810 33 810 24 l 810 847 q 803 863 810 857 q 786 869 796 869 q 764 847 764 869 l 764 33 q 770 17 764 24 q 786 10 776 10 m 258 517 l 640 517 l 640 113 q 647 96 640 103 q 663 89 653 89 q 680 96 674 89 q 686 113 686 103 l 686 540 q 663 563 686 563 l 281 563 l 281 944 q 258 967 281 967 q 235 944 235 967 l 235 540 q 241 524 235 531 q 258 517 247 517 m 135 518 q 157 540 157 518 l 157 944 q 135 967 157 967 q 118 960 125 967 q 111 944 111 954 l 111 540 q 118 524 111 531 q 135 518 125 518 m 135 10 q 151 17 144 10 q 157 33 157 24 l 157 392 l 553 392 q 575 414 575 392 q 569 431 575 424 q 553 438 563 438 l 135 438 q 118 431 125 438 q 111 414 111 424 l 111 33 q 118 17 111 24 q 135 10 125 10 m 672 60 q 668 60 669 60 q 664 61 667 61 q 640 43 644 61 q 643 24 638 33 q 664 10 649 14 q 688 26 681 10 l 688 28 q 686 47 690 38 q 672 60 682 56 "},"i":{"ha":382,"x_min":104,"x_max":281,"o":"m 231 101 q 253 79 231 79 q 269 85 263 79 q 276 101 276 92 l 276 483 q 269 500 276 493 q 253 507 263 507 l 150 507 l 150 949 q 143 965 150 958 q 126 972 136 972 q 110 965 117 972 q 104 949 104 958 l 104 483 q 126 461 104 461 l 231 461 l 231 101 m 106 358 l 106 22 q 128 0 106 0 q 151 22 151 0 l 151 358 q 128 381 151 381 q 106 358 106 381 m 276 607 l 276 846 q 269 863 276 856 q 253 869 263 869 q 237 863 243 869 q 231 846 231 856 l 231 607 q 253 585 231 585 q 269 591 263 585 q 276 607 276 597 m 244 0 l 253 -1 q 276 15 272 -1 l 276 17 q 276 36 281 26 q 261 49 272 46 q 257 49 258 49 q 253 50 256 50 q 229 33 236 50 l 229 32 q 231 13 226 22 q 244 0 235 3 "},"í":{"ha":382,"x_min":104,"x_max":449,"o":"m 263 1044 q 274 1049 269 1044 l 439 1193 q 444 1213 449 1203 q 428 1225 439 1225 l 268 1225 q 254 1218 261 1225 l 140 1074 q 138 1054 133 1064 q 154 1044 143 1044 l 263 1044 m 190 1081 l 276 1189 l 381 1189 l 256 1081 l 190 1081 m 231 461 l 231 101 q 253 79 231 79 q 269 85 263 79 q 276 101 276 92 l 276 483 q 269 500 276 493 q 253 507 263 507 l 150 507 l 150 949 q 143 965 150 958 q 126 972 136 972 q 110 965 117 972 q 104 949 104 958 l 104 483 q 126 461 104 461 l 231 461 m 106 358 l 106 22 q 128 0 106 0 q 151 22 151 0 l 151 358 q 128 381 151 381 q 106 358 106 381 m 276 607 l 276 846 q 269 863 276 856 q 253 869 263 869 q 237 863 243 869 q 231 846 231 856 l 231 607 q 253 585 231 585 q 269 591 263 585 q 276 607 276 597 m 244 0 l 253 -1 q 276 15 272 -1 l 276 17 q 276 36 281 26 q 261 49 272 46 q 257 49 258 49 q 253 50 256 50 q 229 33 236 50 l 229 32 q 231 13 226 22 q 244 0 235 3 "},"j":{"ha":753,"x_min":97,"x_max":656,"o":"m 136 164 q 187 92 156 124 q 256 40 218 61 q 338 7 294 18 q 424 -4 381 -4 q 469 -1 443 -4 q 515 17 496 3 q 532 39 532 21 l 532 828 q 525 844 532 838 q 508 850 518 850 l 249 850 q 226 828 226 850 q 233 811 226 818 q 249 804 239 804 l 486 804 l 486 53 q 456 44 474 46 q 424 42 439 42 q 413 42 418 42 q 401 43 408 42 q 343 53 386 43 q 253 97 300 64 q 168 202 193 142 q 143 335 143 263 q 137 351 143 344 q 121 358 131 358 q 103 351 110 358 q 97 335 97 344 q 136 164 97 236 m 253 281 q 241 267 244 276 q 242 250 238 258 q 304 172 263 204 q 400 128 346 139 q 422 146 419 128 q 420 163 425 156 q 406 174 415 171 q 333 208 365 182 q 283 269 300 233 q 263 282 278 282 q 253 281 256 282 m 121 924 l 610 924 l 610 192 q 632 169 610 169 q 649 176 642 169 q 656 192 656 182 l 656 947 q 649 963 656 957 q 632 969 642 969 l 121 969 q 104 963 111 969 q 97 947 97 957 q 104 930 97 936 q 121 924 111 924 m 254 360 q 246 361 251 361 q 222 344 226 361 l 222 343 q 224 324 218 333 q 246 310 229 315 q 269 328 263 310 q 268 347 272 338 q 254 360 264 357 "},"k":{"ha":928,"x_min":142,"x_max":850,"o":"m 168 526 q 185 533 178 526 q 192 550 192 540 l 192 949 q 185 965 192 958 q 168 972 178 972 q 152 965 158 972 q 146 949 146 958 l 146 550 q 152 533 146 540 q 168 526 158 526 m 146 108 q 152 92 146 99 q 168 85 158 85 q 185 92 178 85 q 192 108 192 99 l 192 340 l 661 939 q 657 971 676 957 q 643 975 651 975 q 625 967 632 975 l 150 363 q 146 349 146 357 l 146 108 m 314 692 l 314 825 q 307 841 314 835 q 290 847 300 847 q 268 825 268 847 l 268 692 q 274 675 268 682 q 290 668 281 668 q 307 675 300 668 q 314 692 314 682 m 290 6 q 307 12 300 6 q 314 28 314 18 l 314 278 l 372 351 l 632 11 q 650 3 639 3 q 664 7 658 3 q 668 39 681 21 l 390 403 q 372 411 385 411 q 354 403 361 411 l 272 299 q 268 285 268 294 l 268 28 q 290 6 268 6 m 832 971 q 817 975 826 975 q 800 967 807 975 l 439 511 q 439 483 429 497 l 799 14 q 817 6 807 6 q 831 10 826 6 q 840 26 839 17 q 836 42 842 35 l 486 497 l 835 939 q 832 971 850 956 m 144 39 q 147 19 142 28 q 168 6 153 10 q 192 22 188 6 l 192 24 q 190 42 194 33 q 176 54 186 51 q 168 56 174 56 q 144 39 151 56 "},"l":{"ha":657,"x_min":69,"x_max":590,"o":"m 196 33 q 203 17 196 24 q 219 10 210 10 l 561 10 q 577 17 571 10 q 583 33 583 24 q 561 56 583 56 l 219 56 q 203 49 210 56 q 196 33 196 43 m 92 131 l 485 131 q 508 153 508 131 q 502 169 508 163 q 485 176 496 176 l 115 176 l 115 957 q 92 979 115 979 q 69 957 69 979 l 69 153 q 92 131 69 131 m 194 832 l 194 264 q 217 242 194 242 q 233 248 226 242 q 240 264 240 254 l 240 832 q 233 848 240 842 q 217 854 226 854 q 194 832 194 854 m 563 128 q 586 144 582 128 l 586 146 q 586 165 590 156 q 571 178 582 175 q 567 178 568 178 q 563 179 565 179 q 539 163 546 179 l 539 161 q 542 142 536 151 q 563 128 547 132 "},"m":{"ha":1154,"x_min":135,"x_max":1038,"o":"m 899 43 q 890 44 896 44 q 867 28 874 44 q 869 8 864 17 q 890 -6 875 -1 q 914 11 910 -6 q 913 31 917 22 q 899 43 908 40 m 281 -4 q 297 3 290 -4 q 304 19 304 10 l 304 454 q 297 470 304 464 q 281 476 290 476 q 258 454 258 476 l 258 19 q 265 3 258 10 q 281 -4 271 -4 m 519 521 q 531 524 522 521 q 542 538 539 529 q 539 556 544 547 l 356 882 q 336 894 350 894 q 325 892 333 894 q 314 877 317 886 q 317 860 311 868 l 499 532 q 519 521 506 521 m 158 -4 q 174 3 168 -4 q 181 19 181 10 l 181 850 l 485 267 q 504 256 489 256 q 525 267 517 253 l 857 860 q 858 877 861 868 q 847 890 856 886 q 836 893 844 893 q 817 882 824 893 l 506 326 l 178 954 q 167 965 174 963 q 153 967 161 967 q 135 944 135 963 l 135 19 q 142 3 135 10 q 158 -4 149 -4 m 890 74 q 907 80 900 74 q 914 96 914 86 l 914 454 q 907 470 914 464 q 890 476 900 476 q 868 454 868 476 l 868 96 q 890 74 868 74 m 1015 -4 q 1031 3 1025 -4 q 1038 19 1038 10 l 1038 944 q 1021 967 1038 963 q 1006 965 1013 967 q 994 956 999 963 l 549 139 q 546 122 543 131 q 557 108 549 113 q 568 104 564 104 q 589 117 582 104 l 992 854 l 992 19 q 999 3 992 10 q 1015 -4 1006 -4 "},"n":{"ha":922,"x_min":96,"x_max":844,"o":"m 264 89 l 264 482 q 240 506 264 506 q 218 482 218 506 l 218 89 q 240 67 218 67 q 264 89 264 67 m 118 -3 q 135 3 128 -3 q 142 19 142 10 l 142 867 l 671 8 q 690 -3 678 -3 q 703 0 694 -3 q 710 32 722 13 l 138 960 q 118 971 131 971 q 115 970 117 971 q 113 969 114 969 q 96 947 96 965 l 96 19 q 118 -3 96 -3 m 299 868 l 671 275 q 697 265 678 265 q 714 288 714 269 l 714 947 q 707 964 714 957 q 690 971 700 971 q 674 964 681 971 q 668 947 668 957 l 668 367 l 338 893 q 318 903 332 903 q 306 900 310 903 q 299 868 286 888 m 813 893 q 797 886 803 893 q 790 869 790 879 l 790 19 q 813 -3 790 -3 q 836 19 836 -3 l 836 869 q 830 886 836 879 q 813 893 824 893 m 806 924 l 813 922 q 836 939 832 922 l 838 940 q 821 972 844 963 q 817 973 818 972 q 814 974 817 974 q 790 956 794 974 l 789 956 q 790 936 786 946 q 806 924 794 926 "},"ñ":{"ha":922,"x_min":97,"x_max":842,"o":"m 219 485 l 219 92 q 226 75 219 82 q 243 68 233 68 q 259 75 253 68 q 265 92 265 82 l 265 485 q 259 501 265 494 q 243 508 253 508 q 226 501 233 508 q 219 485 219 494 m 114 972 q 97 950 97 968 l 97 22 q 103 6 97 13 q 121 -1 110 -1 q 137 6 131 -1 q 143 22 143 13 l 143 869 l 674 10 q 693 -1 681 -1 q 704 3 700 -1 q 715 17 713 8 q 713 35 718 26 l 140 963 q 128 971 133 969 q 114 972 122 972 m 693 972 q 676 966 683 972 q 669 950 669 960 l 669 369 l 339 894 q 319 906 332 906 q 308 903 314 906 q 298 888 300 897 q 300 871 296 879 l 674 278 q 699 268 681 267 q 715 290 715 272 l 715 950 q 693 972 715 972 m 815 897 q 799 891 806 897 q 792 875 792 885 l 792 22 q 799 6 792 13 q 815 -1 806 -1 q 831 6 825 -1 q 838 22 838 13 l 838 875 q 815 897 838 897 m 621 1161 l 614 1161 q 594 1151 600 1161 q 578 1142 588 1147 q 553 1136 568 1136 q 546 1137 550 1136 q 538 1138 542 1138 q 533 1139 536 1139 q 511 1121 514 1139 q 514 1103 508 1111 q 528 1093 519 1096 q 540 1091 535 1092 q 553 1090 546 1090 q 594 1099 576 1090 q 621 1115 611 1107 q 636 1129 632 1118 l 636 1131 q 621 1161 643 1151 m 474 1089 q 468 1100 474 1090 q 452 1122 463 1110 q 425 1145 442 1133 q 385 1163 408 1157 q 372 1165 378 1165 q 360 1165 367 1165 q 304 1151 325 1165 q 279 1131 283 1136 q 272 1121 274 1125 q 274 1102 269 1111 q 294 1090 279 1093 q 314 1101 307 1090 q 330 1112 318 1104 q 360 1119 342 1119 q 375 1118 369 1119 q 401 1108 390 1115 q 418 1092 411 1100 q 432 1071 426 1082 q 438 1060 432 1069 q 454 1038 443 1050 q 482 1015 465 1026 q 522 997 499 1003 q 535 995 529 996 q 547 994 540 994 q 581 1000 567 994 q 606 1012 596 1006 q 623 1024 617 1018 q 629 1031 629 1031 q 626 1063 644 1047 q 611 1068 621 1068 q 594 1061 601 1068 q 581 1050 593 1060 q 547 1040 569 1040 q 540 1041 543 1040 q 532 1042 536 1042 q 507 1053 518 1046 q 489 1069 496 1061 q 478 1083 482 1076 q 474 1089 474 1089 m 839 944 q 838 964 842 954 q 824 976 833 974 q 819 977 821 976 q 815 978 818 978 q 792 961 799 978 l 792 960 q 794 940 789 950 q 815 926 800 931 q 839 943 832 926 l 839 944 m 318 1015 q 335 1025 324 1019 q 361 1031 346 1031 q 375 1029 369 1031 q 403 1047 399 1029 q 400 1065 406 1057 q 385 1075 394 1072 q 372 1076 378 1076 q 360 1076 367 1076 q 315 1067 333 1076 q 288 1049 296 1057 q 275 1035 276 1043 q 277 1016 272 1025 q 297 1003 282 1007 q 318 1015 311 1003 "},"o":{"ha":992,"x_min":47,"x_max":946,"o":"m 47 492 q 81 309 47 397 q 174 153 114 221 q 316 46 233 86 q 497 6 399 6 q 677 46 594 6 q 819 153 760 86 q 913 309 879 221 q 946 492 946 397 q 913 674 946 586 q 819 828 879 761 q 678 937 760 896 q 497 978 596 978 q 474 956 474 978 l 474 856 q 348 819 404 851 q 251 737 292 786 q 190 624 211 688 q 168 494 168 561 q 192 360 168 425 q 259 244 215 294 q 363 164 303 194 q 497 133 424 133 q 632 163 571 133 q 736 243 693 193 q 803 358 779 293 q 828 494 828 424 q 813 603 828 551 q 772 698 799 654 q 707 776 744 742 q 622 831 669 810 q 614 832 619 832 q 593 818 597 832 q 592 801 589 810 q 604 789 596 792 q 734 674 686 753 q 782 494 782 594 q 762 376 782 433 q 704 276 742 319 q 614 206 667 232 q 497 179 561 179 q 381 206 433 179 q 292 276 329 232 q 234 378 254 321 q 214 494 214 435 q 234 613 214 556 q 291 714 254 669 q 381 785 328 758 q 497 811 433 811 q 519 833 519 811 l 519 932 q 674 888 604 926 q 794 788 744 849 q 872 651 844 728 q 900 492 900 574 q 870 328 900 407 q 787 187 840 249 q 660 88 733 125 q 497 51 586 51 q 334 88 408 51 q 206 186 260 125 q 123 327 153 247 q 93 492 93 407 q 108 612 93 553 q 153 723 124 671 q 225 817 182 775 q 322 889 268 860 q 334 902 331 893 q 332 921 338 911 q 313 932 325 932 q 301 929 304 932 q 194 851 242 899 q 115 747 147 804 q 65 624 82 689 q 47 492 47 558 m 361 947 l 361 946 q 363 927 357 936 q 385 913 368 918 q 408 931 401 913 q 407 950 411 940 q 393 963 403 960 q 385 964 390 964 q 361 947 365 964 "},"ó":{"ha":993,"x_min":47,"x_max":946,"o":"m 554 1044 q 565 1049 561 1044 l 731 1193 q 736 1213 740 1203 q 719 1225 731 1225 l 560 1225 q 546 1218 553 1225 l 432 1074 q 429 1054 425 1064 q 446 1044 435 1044 l 554 1044 m 482 1081 l 568 1189 l 672 1189 l 547 1081 l 482 1081 m 47 492 q 81 309 47 397 q 174 153 114 221 q 316 46 233 86 q 497 6 399 6 q 677 46 594 6 q 819 153 760 86 q 913 309 879 221 q 946 492 946 397 q 913 674 946 586 q 819 828 879 761 q 678 937 760 896 q 497 978 596 978 q 474 956 474 978 l 474 856 q 348 819 404 851 q 251 737 292 786 q 190 624 211 688 q 168 494 168 561 q 192 360 168 425 q 259 244 215 294 q 363 164 303 194 q 497 133 424 133 q 632 163 571 133 q 736 243 693 193 q 803 358 779 293 q 828 494 828 424 q 813 603 828 551 q 772 698 799 654 q 707 776 744 742 q 622 831 669 810 q 614 832 619 832 q 593 818 597 832 q 592 801 589 810 q 604 789 596 792 q 734 674 686 753 q 782 494 782 594 q 762 376 782 433 q 704 276 742 319 q 614 206 667 232 q 497 179 561 179 q 381 206 433 179 q 292 276 329 232 q 234 378 254 321 q 214 494 214 435 q 234 613 214 556 q 291 714 254 669 q 381 785 328 758 q 497 811 433 811 q 519 833 519 811 l 519 932 q 674 888 604 926 q 794 788 744 849 q 872 651 844 728 q 900 492 900 574 q 870 328 900 407 q 787 187 840 249 q 660 88 733 125 q 497 51 586 51 q 334 88 408 51 q 206 186 260 125 q 123 327 153 247 q 93 492 93 407 q 108 612 93 553 q 153 723 124 671 q 225 817 182 775 q 322 889 268 860 q 334 902 331 893 q 332 921 338 911 q 313 932 325 932 q 301 929 304 932 q 194 851 242 899 q 115 747 147 804 q 65 624 82 689 q 47 492 47 558 m 361 947 l 361 946 q 363 927 357 936 q 385 913 368 918 q 408 931 401 913 q 407 950 411 940 q 393 963 403 960 q 385 964 390 964 q 361 947 365 964 "},"ö":{"ha":992,"x_min":47,"x_max":946,"o":"m 672 1044 q 689 1051 682 1044 q 696 1068 696 1057 l 696 1197 q 689 1215 696 1208 q 672 1221 682 1221 l 542 1221 q 519 1197 519 1221 l 519 1068 q 542 1044 519 1044 l 672 1044 m 565 1090 l 565 1175 l 650 1175 l 650 1090 l 565 1090 m 422 1044 q 439 1051 432 1044 q 446 1068 446 1057 l 446 1197 q 439 1215 446 1208 q 422 1221 432 1221 l 292 1221 q 269 1197 269 1221 l 269 1068 q 292 1044 269 1044 l 422 1044 m 315 1090 l 315 1175 l 400 1175 l 400 1090 l 315 1090 m 47 492 q 81 309 47 397 q 174 153 114 221 q 316 46 233 86 q 497 6 399 6 q 677 46 594 6 q 819 153 760 86 q 913 309 879 221 q 946 492 946 397 q 913 674 946 586 q 819 828 879 761 q 678 937 760 896 q 497 978 596 978 q 474 956 474 978 l 474 856 q 348 819 404 851 q 251 737 292 786 q 190 624 211 688 q 168 494 168 561 q 192 360 168 425 q 259 244 215 294 q 363 164 303 194 q 497 133 424 133 q 632 163 571 133 q 736 243 693 193 q 803 358 779 293 q 828 494 828 424 q 813 603 828 551 q 772 698 799 654 q 707 776 744 742 q 622 831 669 810 q 614 832 619 832 q 593 818 597 832 q 592 801 589 810 q 604 789 596 792 q 734 674 686 753 q 782 494 782 594 q 762 376 782 433 q 704 276 742 319 q 614 206 667 232 q 497 179 561 179 q 381 206 433 179 q 292 276 329 232 q 234 378 254 321 q 214 494 214 435 q 234 613 214 556 q 291 714 254 669 q 381 785 328 758 q 497 811 433 811 q 519 833 519 811 l 519 932 q 674 888 604 926 q 794 788 744 849 q 872 651 844 728 q 900 492 900 574 q 870 328 900 407 q 787 187 840 249 q 660 88 733 125 q 497 51 586 51 q 334 88 408 51 q 206 186 260 125 q 123 327 153 247 q 93 492 93 407 q 108 612 93 553 q 153 723 124 671 q 225 817 182 775 q 322 889 268 860 q 334 902 331 893 q 332 921 338 911 q 313 932 325 932 q 301 929 304 932 q 194 851 242 899 q 115 747 147 804 q 65 624 82 689 q 47 492 47 558 m 361 947 l 361 946 q 363 927 357 936 q 385 913 368 918 q 408 931 401 913 q 407 950 411 940 q 393 963 403 960 q 385 964 390 964 q 361 947 365 964 "},"p":{"ha":736,"x_min":125,"x_max":636,"o":"m 272 103 q 289 109 282 103 q 296 125 296 115 l 296 400 l 381 400 q 451 413 408 400 q 533 458 493 426 q 613 566 589 501 q 636 699 636 631 q 619 806 636 756 q 570 892 603 856 q 490 950 538 929 q 381 971 442 971 l 271 971 q 254 965 261 971 q 247 949 247 958 q 254 932 247 939 q 271 925 261 925 l 381 925 q 470 908 431 925 q 536 860 510 890 q 576 789 563 831 q 590 699 590 747 q 506 493 590 563 q 434 456 469 465 q 381 446 399 446 l 272 446 q 250 424 250 446 l 250 125 q 272 103 250 103 m 125 825 l 125 19 q 131 3 125 10 q 149 -4 138 -4 q 165 3 158 -4 q 171 19 171 10 l 171 803 l 329 803 q 383 797 357 803 q 427 778 408 792 q 458 742 446 764 q 469 689 469 721 q 428 597 469 626 q 329 568 386 568 l 296 568 l 296 642 q 289 658 296 651 q 272 664 282 664 q 250 642 250 664 l 250 544 q 272 522 250 522 l 329 522 q 401 533 367 522 q 460 565 435 543 q 501 617 486 586 q 515 689 515 647 q 500 761 515 731 q 460 811 485 792 q 401 840 435 831 q 329 849 367 849 l 149 849 q 131 842 138 849 q 125 825 125 835 m 265 696 l 272 694 q 296 711 292 694 l 297 711 q 296 731 300 722 q 281 743 292 740 q 274 744 278 744 q 249 728 256 744 l 249 726 q 250 708 246 717 q 265 696 254 699 "},"q":{"ha":1068,"x_min":42,"x_max":1071,"o":"m 1046 -28 q 1068 -7 1065 -28 q 1063 10 1069 3 q 1047 18 1057 17 q 901 49 969 24 q 785 142 832 75 l 783 144 q 767 153 775 153 q 750 147 756 153 q 630 71 697 99 q 490 43 563 43 q 327 80 401 43 q 199 178 253 117 q 117 320 146 240 q 88 485 88 400 q 102 603 88 544 q 145 712 117 661 q 215 806 174 763 q 310 878 257 849 q 319 910 329 890 q 299 921 313 921 q 288 918 292 921 q 183 838 229 885 q 106 735 138 792 q 58 615 75 679 q 42 485 42 551 q 75 302 42 390 q 167 147 108 214 q 309 38 226 79 q 490 -3 392 -3 q 635 23 565 -3 q 763 97 704 49 q 829 37 793 60 q 903 0 865 14 q 977 -20 940 -14 q 1046 -28 1014 -26 m 1046 94 q 1068 114 1065 94 q 1065 131 1071 124 q 1050 140 1060 138 q 872 228 939 157 q 899 284 882 247 q 922 350 915 321 l 925 360 q 939 485 939 417 q 906 667 939 579 q 813 822 872 754 q 672 931 754 890 q 490 971 589 971 q 474 964 481 971 q 468 947 468 957 l 468 849 q 342 811 399 843 q 244 730 285 779 q 183 617 204 681 q 161 488 161 554 q 185 352 161 418 q 253 236 210 286 q 357 156 296 186 q 492 125 418 125 q 599 144 543 125 q 693 201 656 164 q 701 217 701 208 q 697 233 704 226 q 588 327 647 294 q 464 360 528 360 q 448 353 454 360 q 442 336 442 346 q 464 314 442 314 q 559 290 513 314 q 646 222 606 267 q 573 185 611 199 q 492 171 535 171 q 375 198 428 171 q 285 269 322 225 q 227 369 247 313 q 207 488 207 426 q 227 604 207 547 q 285 706 247 661 q 374 776 322 750 q 490 803 426 803 q 507 810 500 803 q 514 826 514 817 l 514 924 q 669 881 599 919 q 789 781 739 842 q 866 643 839 719 q 893 485 893 567 q 890 427 893 456 q 879 371 886 399 l 878 361 q 865 322 874 344 q 847 281 856 300 q 831 247 838 261 q 825 233 825 233 q 828 208 818 218 q 1046 94 907 115 m 747 271 l 750 271 q 768 285 764 271 l 792 343 q 810 395 804 371 q 817 422 815 419 q 821 454 819 438 q 822 488 822 471 q 808 595 822 543 q 766 691 793 647 q 701 768 739 735 q 617 822 664 801 q 608 825 611 825 q 588 811 592 825 q 587 793 583 801 q 599 781 590 785 q 728 665 679 744 q 776 488 776 586 q 775 458 776 472 q 771 431 774 444 q 766 406 771 428 q 750 361 761 385 l 740 338 q 618 429 690 393 q 471 465 546 465 q 451 460 460 465 q 442 442 442 456 q 465 419 444 419 q 613 381 544 419 q 728 279 682 343 q 747 271 735 271 m 371 904 q 394 921 388 904 l 394 922 q 393 941 397 932 q 378 953 389 950 q 371 954 376 954 q 347 938 351 954 l 346 938 q 349 917 343 926 q 371 904 354 908 "},"r":{"ha":896,"x_min":132,"x_max":785,"o":"m 278 290 q 261 284 268 290 q 254 268 254 278 l 254 26 q 261 9 254 15 q 278 3 268 3 q 300 26 300 3 l 300 268 q 278 290 300 290 m 560 104 l 292 506 q 272 515 282 515 q 260 511 264 515 q 253 479 240 499 l 522 79 q 540 68 529 68 q 554 72 549 68 q 563 88 561 78 q 560 104 565 97 m 178 813 l 432 813 q 506 806 472 813 q 564 784 540 800 q 601 740 588 768 q 614 667 614 711 q 567 549 614 581 q 440 517 521 517 l 397 517 q 381 510 388 517 q 374 494 374 504 q 381 478 374 485 q 397 471 388 471 l 440 471 q 660 667 660 471 q 643 759 660 722 q 597 818 626 796 q 524 849 567 840 q 432 858 482 858 l 156 858 q 138 851 144 858 q 132 835 132 844 l 132 26 q 156 3 132 3 q 178 26 178 3 l 178 813 m 517 368 q 713 463 642 385 q 785 669 785 542 q 704 895 785 824 q 476 967 624 967 l 279 967 q 257 944 257 967 q 279 921 257 921 l 476 921 q 672 862 606 921 q 739 669 739 803 q 720 563 739 610 q 667 482 701 515 q 583 431 632 449 q 476 413 535 413 q 456 400 463 413 q 457 376 449 386 l 704 13 q 724 3 711 3 q 736 7 731 3 q 742 39 754 19 l 517 368 m 592 51 q 583 53 589 53 q 560 36 567 53 l 560 35 q 563 16 557 25 q 583 3 568 7 q 607 19 603 3 l 608 19 q 607 40 611 31 q 592 51 603 49 "},"s":{"ha":844,"x_min":88,"x_max":747,"o":"m 169 525 q 243 472 201 493 q 324 432 285 450 l 344 424 q 510 340 453 375 q 556 264 567 306 q 558 247 553 254 q 578 236 564 239 q 600 253 596 236 q 590 322 610 289 q 539 375 575 351 q 462 420 507 399 q 363 465 417 442 l 342 475 q 259 516 296 494 q 196 563 222 538 q 157 619 169 588 q 146 690 144 650 q 150 718 146 693 q 181 768 154 743 q 270 811 218 804 q 372 818 322 818 q 422 812 396 817 q 472 797 447 807 q 518 773 497 788 q 551 736 539 758 q 572 651 575 703 q 577 635 571 642 q 594 628 583 628 q 618 649 615 628 q 518 826 622 769 q 435 856 476 850 q 374 864 393 863 q 253 854 314 864 q 149 800 193 844 q 121 765 131 783 q 106 731 111 747 q 101 704 101 715 q 100 690 100 693 q 169 525 93 594 m 413 -3 l 414 -3 q 429 3 422 -3 q 436 19 436 10 q 431 36 438 29 q 414 43 425 43 q 299 69 351 46 q 207 133 246 93 q 136 321 132 213 q 131 338 138 332 q 115 346 125 344 q 90 324 93 346 q 109 204 88 261 q 174 101 131 147 q 280 28 218 54 q 413 -3 342 1 m 693 179 q 731 240 722 211 q 739 271 739 268 q 737 338 742 307 q 704 399 732 368 q 633 456 681 426 q 497 525 585 485 q 406 567 450 546 q 331 610 363 589 q 282 655 299 632 q 269 701 265 678 q 266 719 271 711 q 251 728 261 726 q 234 725 242 728 q 224 710 226 722 q 293 581 211 642 q 372 533 325 557 q 478 483 418 510 q 604 420 558 447 q 671 369 650 393 q 692 329 688 350 q 694 274 696 308 q 660 209 685 233 q 601 171 635 185 q 531 153 568 157 q 458 149 493 149 q 403 157 432 151 q 349 174 375 163 q 301 204 322 186 q 269 250 281 222 q 247 264 263 264 q 243 263 244 264 q 239 263 242 263 q 227 249 231 258 q 226 232 224 240 q 265 175 240 199 q 322 136 290 151 q 388 113 353 121 q 457 103 424 104 q 584 115 524 103 q 693 179 644 128 m 665 864 q 418 969 576 961 q 401 963 408 969 q 394 947 394 957 q 400 931 393 938 q 417 924 407 924 q 540 897 485 919 q 631 833 594 874 q 681 749 664 797 q 694 646 697 700 q 717 621 692 624 q 740 643 738 621 q 665 864 747 774 m 260 308 l 260 310 q 258 329 263 319 q 244 342 254 339 q 240 342 242 342 q 236 343 239 343 q 213 326 217 343 l 213 325 q 214 306 208 315 q 236 292 219 296 q 260 308 253 292 "},"t":{"ha":838,"x_min":63,"x_max":774,"o":"m 386 22 l 386 357 q 364 381 386 381 q 347 374 354 381 q 340 357 340 368 l 340 22 q 347 6 340 13 q 364 0 354 0 q 386 22 386 0 m 465 607 q 472 591 465 597 q 489 585 479 585 q 511 607 511 585 l 511 801 l 746 801 q 769 824 769 801 q 763 840 769 833 q 746 847 757 847 l 489 847 q 472 840 479 847 q 465 824 465 833 l 465 607 m 256 847 l 86 847 q 69 840 75 847 q 63 824 63 833 q 86 801 63 801 l 256 801 q 278 824 278 801 q 272 840 278 833 q 256 847 265 847 m 385 946 q 363 969 385 969 l 86 969 q 63 946 63 969 q 86 924 63 924 l 339 924 l 339 483 q 346 467 339 474 q 363 461 353 461 l 465 461 l 465 129 q 472 112 465 118 q 489 106 479 106 q 511 129 511 106 l 511 483 q 505 500 511 493 q 489 507 499 507 l 385 507 l 385 946 m 489 969 q 472 963 479 969 q 465 946 465 957 q 472 930 465 936 q 489 924 479 924 l 669 924 q 692 946 692 924 q 669 969 692 969 l 489 969 m 754 971 q 747 972 753 972 q 724 956 728 972 l 722 954 q 725 935 719 944 q 746 921 731 926 q 769 939 765 921 l 771 939 q 769 958 774 949 q 754 971 765 968 "},"u":{"ha":957,"x_min":83,"x_max":874,"o":"m 206 824 l 206 467 q 248 276 206 363 q 365 143 290 189 q 378 140 369 140 q 397 150 392 140 q 400 167 403 158 q 389 182 397 176 q 328 236 354 204 q 285 306 301 268 q 260 385 268 344 q 251 467 251 426 l 251 824 q 245 840 251 833 q 229 847 239 847 q 212 840 218 847 q 206 824 206 833 m 83 469 q 110 299 83 386 q 187 142 136 213 q 310 28 238 72 q 478 -17 383 -17 q 494 -10 488 -17 q 501 7 501 -3 l 501 107 q 614 149 567 114 q 692 235 661 185 q 736 347 722 286 q 750 467 750 408 l 750 854 q 728 878 750 878 q 711 872 718 878 q 704 854 704 865 l 704 467 q 692 360 704 415 q 652 258 679 304 q 582 182 625 213 q 478 151 539 151 q 462 144 468 151 q 456 128 456 138 l 456 31 q 328 73 388 36 q 224 169 268 110 q 155 305 181 228 q 129 469 129 382 l 129 935 q 123 951 129 944 q 107 958 117 958 q 90 951 96 958 q 83 935 83 944 l 83 469 m 578 36 q 565 25 569 33 q 565 7 561 17 q 594 -6 571 -10 q 716 68 664 18 q 803 182 768 118 q 856 318 838 246 q 874 458 874 390 l 874 933 q 867 950 874 943 q 850 957 860 957 q 834 950 840 957 q 828 933 828 943 l 828 458 q 812 331 828 396 q 765 208 796 265 q 687 105 733 150 q 578 36 640 60 m 736 957 q 732 958 733 957 q 728 958 731 958 q 704 942 711 958 l 704 940 q 707 921 701 931 q 728 907 713 911 q 751 924 744 907 l 751 925 q 750 944 754 935 q 736 957 746 953 "},"ú":{"ha":957,"x_min":83,"x_max":874,"o":"m 513 1044 q 524 1049 519 1044 l 689 1193 q 694 1213 699 1203 q 678 1225 689 1225 l 518 1225 q 504 1218 511 1225 l 390 1074 q 388 1054 383 1064 q 404 1044 393 1044 l 513 1044 m 440 1081 l 526 1189 l 631 1189 l 506 1081 l 440 1081 m 206 824 l 206 467 q 248 276 206 363 q 365 143 290 189 q 378 140 369 140 q 397 150 392 140 q 400 167 403 158 q 389 182 397 176 q 328 236 354 204 q 285 306 301 268 q 260 385 268 344 q 251 467 251 426 l 251 824 q 245 840 251 833 q 229 847 239 847 q 212 840 218 847 q 206 824 206 833 m 83 469 q 110 299 83 386 q 187 142 136 213 q 310 28 238 72 q 478 -17 383 -17 q 494 -10 488 -17 q 501 7 501 -3 l 501 107 q 614 149 567 114 q 692 235 661 185 q 736 347 722 286 q 750 467 750 408 l 750 854 q 728 878 750 878 q 711 872 718 878 q 704 854 704 865 l 704 467 q 692 360 704 415 q 652 258 679 304 q 582 182 625 213 q 478 151 539 151 q 462 144 468 151 q 456 128 456 138 l 456 31 q 328 73 388 36 q 224 169 268 110 q 155 305 181 228 q 129 469 129 382 l 129 935 q 123 951 129 944 q 107 958 117 958 q 90 951 96 958 q 83 935 83 944 l 83 469 m 578 36 q 565 25 569 33 q 565 7 561 17 q 594 -6 571 -10 q 716 68 664 18 q 803 182 768 118 q 856 318 838 246 q 874 458 874 390 l 874 933 q 867 950 874 943 q 850 957 860 957 q 834 950 840 957 q 828 933 828 943 l 828 458 q 812 331 828 396 q 765 208 796 265 q 687 105 733 150 q 578 36 640 60 m 736 957 q 732 958 733 957 q 728 958 731 958 q 704 942 711 958 l 704 940 q 707 921 701 931 q 728 907 713 911 q 751 924 744 907 l 751 925 q 750 944 754 935 q 736 957 746 953 "},"ü":{"ha":1011,"x_min":83,"x_max":874,"o":"m 672 1044 q 689 1051 682 1044 q 696 1068 696 1057 l 696 1197 q 689 1215 696 1208 q 672 1221 682 1221 l 542 1221 q 519 1197 519 1221 l 519 1068 q 542 1044 519 1044 l 672 1044 m 565 1090 l 565 1175 l 650 1175 l 650 1090 l 565 1090 m 422 1044 q 439 1051 432 1044 q 446 1068 446 1057 l 446 1197 q 439 1215 446 1208 q 422 1221 432 1221 l 292 1221 q 269 1197 269 1221 l 269 1068 q 292 1044 269 1044 l 422 1044 m 315 1090 l 315 1175 l 400 1175 l 400 1090 l 315 1090 m 206 824 l 206 467 q 248 276 206 363 q 365 143 290 189 q 378 140 369 140 q 397 150 392 140 q 400 167 403 158 q 389 182 397 176 q 328 236 354 204 q 285 306 301 268 q 260 385 268 344 q 251 467 251 426 l 251 824 q 245 840 251 833 q 229 847 239 847 q 212 840 218 847 q 206 824 206 833 m 83 469 q 110 299 83 386 q 187 142 136 213 q 310 28 238 72 q 478 -17 383 -17 q 494 -10 488 -17 q 501 7 501 -3 l 501 107 q 614 149 567 114 q 692 235 661 185 q 736 347 722 286 q 750 467 750 408 l 750 854 q 728 878 750 878 q 711 872 718 878 q 704 854 704 865 l 704 467 q 692 360 704 415 q 652 258 679 304 q 582 182 625 213 q 478 151 539 151 q 462 144 468 151 q 456 128 456 138 l 456 31 q 328 73 388 36 q 224 169 268 110 q 155 305 181 228 q 129 469 129 382 l 129 935 q 123 951 129 944 q 107 958 117 958 q 90 951 96 958 q 83 935 83 944 l 83 469 m 578 36 q 565 25 569 33 q 565 7 561 17 q 594 -6 571 -10 q 716 68 664 18 q 803 182 768 118 q 856 318 838 246 q 874 458 874 390 l 874 933 q 867 950 874 943 q 850 957 860 957 q 834 950 840 957 q 828 933 828 943 l 828 458 q 812 331 828 396 q 765 208 796 265 q 687 105 733 150 q 578 36 640 60 m 736 957 q 732 958 733 957 q 728 958 731 958 q 704 942 711 958 l 704 940 q 707 921 701 931 q 728 907 713 911 q 751 924 744 907 l 751 925 q 750 944 754 935 q 736 957 746 953 "},"v":{"ha":968,"x_min":92,"x_max":894,"o":"m 444 0 l 451 1 q 465 32 472 11 l 138 950 q 117 965 132 965 q 113 965 114 965 q 108 964 111 964 q 96 951 100 960 q 94 933 92 943 l 422 15 q 444 0 428 0 m 544 360 q 567 375 560 360 l 732 854 q 731 872 735 864 q 717 883 726 881 q 710 885 715 885 q 688 869 694 885 l 522 389 q 524 372 519 381 q 544 360 529 363 m 550 0 q 571 17 567 0 l 892 935 q 890 952 894 943 q 878 964 886 961 q 874 965 875 964 q 869 965 872 965 q 849 949 853 965 l 550 94 l 296 853 q 274 868 292 868 q 267 867 269 868 q 253 838 246 860 l 528 17 q 550 0 532 3 m 738 917 q 761 933 754 917 l 761 935 q 760 953 764 944 q 746 967 756 963 q 726 965 735 967 q 714 950 718 963 q 717 930 711 939 q 738 917 722 921 "},"w":{"ha":1157,"x_min":50,"x_max":1107,"o":"m 879 457 q 903 478 899 457 l 960 865 q 956 882 963 875 q 940 890 950 889 q 938 892 939 892 q 915 872 918 892 l 857 483 q 879 457 854 461 m 778 72 l 788 74 q 799 85 796 76 q 800 103 803 94 l 664 431 q 643 446 660 446 q 635 443 640 446 q 622 431 625 440 q 622 414 618 422 l 757 86 q 778 72 763 72 m 949 -1 l 951 -1 q 972 18 969 1 l 1104 944 q 1101 961 1107 954 q 1085 969 1094 968 q 1068 965 1075 969 q 1060 950 1061 960 l 938 104 l 678 697 q 657 711 674 711 q 636 697 643 711 l 358 106 q 358 88 354 97 q 369 75 361 79 q 379 72 375 72 q 400 86 393 72 l 657 633 l 928 13 q 949 -1 935 -1 m 264 465 l 267 467 q 286 492 289 469 l 228 950 q 219 965 226 960 q 203 969 213 969 q 183 944 181 967 l 240 486 q 249 472 243 478 q 264 465 256 465 m 208 -1 q 229 13 222 -1 l 617 829 q 617 847 621 838 q 606 858 614 856 q 596 861 603 861 q 575 849 582 861 l 219 100 l 97 950 q 89 965 96 960 q 72 969 82 969 q 56 961 63 968 q 53 944 50 954 l 185 18 q 208 -1 188 3 m 949 919 q 972 936 968 919 l 972 938 q 972 957 976 947 q 957 969 968 967 q 953 970 954 969 q 949 971 951 971 q 925 954 932 971 l 925 953 q 928 933 922 943 q 949 919 933 924 "},"x":{"ha":922,"x_min":68,"x_max":856,"o":"m 442 357 l 624 71 q 643 61 629 61 q 654 64 649 61 q 661 96 674 76 l 488 369 l 850 938 q 853 955 856 946 q 843 969 850 964 q 831 972 835 972 q 811 963 818 972 l 442 382 q 442 357 435 368 m 847 29 l 613 400 q 593 411 606 411 q 581 407 588 411 q 574 375 561 394 l 808 6 q 828 -6 817 -6 q 840 -3 835 -6 q 851 13 849 3 q 847 29 853 22 m 522 693 q 535 690 526 690 q 554 700 549 690 l 663 871 q 656 903 675 890 q 644 907 651 907 q 625 896 632 907 l 515 725 q 513 708 510 717 q 522 693 515 699 m 81 -3 q 92 -6 86 -6 q 111 6 104 -6 l 481 586 q 481 610 490 599 l 257 963 q 238 972 250 972 q 226 969 232 972 q 219 938 207 957 l 435 597 l 74 29 q 70 13 68 22 q 81 -3 72 3 m 311 567 q 331 556 318 556 q 343 560 338 556 q 350 592 360 572 l 114 963 q 94 972 107 972 q 82 969 90 972 q 72 955 75 964 q 75 938 69 946 l 311 567 m 278 58 q 297 69 290 58 l 407 242 q 400 274 419 261 q 388 276 396 276 q 368 267 376 276 l 258 94 q 256 77 253 86 q 265 63 258 68 q 278 58 272 58 m 661 958 l 661 957 q 664 938 658 947 q 685 925 669 929 q 708 942 703 925 q 707 962 711 953 q 693 974 703 971 q 685 975 690 975 q 661 958 665 975 "},"y":{"ha":858,"x_min":54,"x_max":804,"o":"m 68 964 q 57 951 60 960 q 58 933 54 942 l 354 389 l 354 21 q 361 5 354 11 q 378 -1 368 -1 q 400 21 400 -1 l 400 394 q 397 406 400 403 l 99 956 q 78 967 92 967 q 68 964 71 967 m 519 21 l 519 303 q 497 325 519 325 q 481 319 488 325 q 474 303 474 313 l 474 21 q 481 5 474 11 q 497 -1 488 -1 q 519 21 519 -1 m 246 896 q 235 883 238 892 q 236 865 232 874 l 479 419 q 499 408 486 408 l 500 408 q 521 419 514 408 l 800 933 q 801 951 804 942 q 790 964 799 960 q 779 967 788 967 q 760 956 767 967 l 500 478 l 276 888 q 257 899 269 899 q 246 896 249 899 m 483 665 q 503 676 496 665 l 611 872 q 613 890 615 881 q 601 904 610 900 q 590 907 593 907 q 571 894 578 907 l 463 699 q 461 681 458 690 q 472 668 464 672 q 483 665 475 665 m 228 968 q 219 969 225 969 q 196 953 203 969 q 199 933 193 942 q 219 919 204 924 q 243 936 236 919 l 243 938 q 242 956 246 947 q 228 968 238 965 "},"z":{"ha":910,"x_min":114,"x_max":824,"o":"m 389 168 q 372 162 379 168 q 365 146 365 156 q 372 128 365 135 q 389 122 379 122 l 703 122 q 719 128 713 122 q 726 146 726 135 q 719 162 726 156 q 703 168 713 168 l 389 168 m 800 754 q 785 760 794 760 q 768 753 774 760 l 124 39 q 121 14 114 28 q 142 0 125 0 l 782 0 q 799 7 792 0 q 806 24 806 14 q 799 40 806 33 q 782 46 792 46 l 193 46 l 803 722 q 800 754 818 739 m 485 806 q 501 812 494 806 q 508 828 508 818 q 501 844 508 838 q 485 851 494 851 l 253 851 q 235 844 242 851 q 229 828 229 838 q 253 806 229 806 l 485 806 m 817 958 q 796 972 813 972 l 157 972 q 141 965 147 972 q 135 949 135 958 q 157 926 135 926 l 744 926 l 146 261 q 140 245 139 254 q 147 229 140 236 q 163 222 157 222 q 181 231 172 222 l 814 933 q 817 958 824 944 m 789 169 q 781 171 786 171 q 757 154 764 171 l 757 153 q 760 134 754 143 q 781 121 765 125 q 804 138 800 121 q 803 158 807 149 q 789 169 799 167 "},"⁄":{"ha":222,"x_min":-351,"x_max":574,"o":"m 568 1006 q 547 1018 561 1018 l 379 1018 q 360 1008 367 1018 l -343 40 q -346 17 -351 29 q -325 4 -339 4 l -157 4 q -137 14 -144 4 l 565 982 q 568 1006 574 993 m -168 50 l -281 50 l 390 972 l 503 972 l -168 50 "},"*":{"ha":618,"x_min":22,"x_max":596,"o":"m 593 758 l 550 942 q 538 957 549 951 q 528 960 529 960 q 517 957 525 960 l 411 906 l 414 1040 l 188 1013 l 213 907 l 99 963 q 89 965 93 965 q 79 963 85 965 q 67 947 69 958 l 25 761 q 29 743 22 751 q 44 733 35 736 l 149 724 l 71 621 l 232 499 l 260 508 l 310 606 l 393 499 l 550 629 l 543 646 l 468 719 l 574 731 q 590 740 583 731 q 593 758 596 750 m 414 760 q 394 744 399 757 q 400 719 390 731 l 492 631 l 388 551 l 331 667 q 310 679 324 679 q 289 667 296 679 l 232 554 l 121 640 l 219 724 q 226 747 231 733 q 207 764 222 763 l 75 776 l 106 908 l 236 844 q 246 842 242 842 q 260 847 254 842 q 268 869 272 857 l 239 994 l 385 994 l 356 869 q 363 847 351 857 q 378 842 368 842 q 388 844 382 842 l 511 904 l 543 774 l 414 760 "},"\\":{"ha":747,"x_min":31,"x_max":715,"o":"m 246 1072 q 224 1086 239 1086 l 56 1086 q 36 1076 42 1086 q 35 1056 31 1067 l 503 -103 q 524 -117 507 -117 l 692 -117 q 715 -94 715 -117 q 713 -85 715 -90 l 246 1072 m 539 -71 l 89 1040 l 208 1040 l 658 -71 l 539 -71 "},"·":{"ha":458,"x_min":53,"x_max":406,"o":"m 53 456 q 67 388 53 419 q 105 331 81 356 q 161 293 129 307 q 229 279 193 279 q 298 293 265 279 q 354 331 331 307 q 392 388 378 356 q 406 456 406 419 q 392 524 406 492 q 354 581 378 557 q 298 618 331 604 q 229 632 265 632 q 161 618 193 632 q 105 581 129 604 q 67 524 81 557 q 53 456 53 492 m 360 456 q 322 363 360 401 q 229 325 283 325 q 137 363 175 325 q 99 456 99 401 q 137 548 99 510 q 229 586 175 586 q 322 548 283 586 q 360 456 360 510 "},"•":{"ha":535,"x_min":85,"x_max":438,"o":"m 85 460 q 99 392 85 424 q 137 335 113 360 q 193 297 161 311 q 261 283 225 283 q 330 297 297 283 q 386 335 363 311 q 424 392 410 360 q 438 460 438 424 q 424 528 438 496 q 386 585 410 561 q 330 622 363 608 q 261 636 297 636 q 193 622 225 636 q 137 585 161 608 q 99 528 113 561 q 85 460 85 496 m 392 460 q 353 367 392 406 q 261 329 315 329 q 169 367 207 329 q 131 460 131 406 q 169 552 131 514 q 261 590 207 590 q 353 552 315 590 q 392 460 392 514 "},":":{"ha":410,"x_min":117,"x_max":293,"o":"m 269 768 l 140 768 q 117 746 117 768 l 117 615 q 140 593 117 593 l 269 593 q 293 615 293 593 l 293 746 q 269 768 293 768 m 247 639 l 163 639 l 163 722 l 247 722 l 247 639 m 117 140 q 140 118 117 118 l 269 118 q 293 140 293 118 l 293 271 q 269 293 293 293 l 140 293 q 117 271 117 293 l 117 140 m 163 247 l 247 247 l 247 164 l 163 164 l 163 247 "},",":{"ha":390,"x_min":75,"x_max":292,"o":"m 206 -42 l 288 176 q 285 197 292 188 q 265 207 278 207 l 139 207 q 117 189 119 207 l 76 -31 q 82 -49 75 -39 q 100 -57 89 -57 l 183 -57 q 206 -42 201 -57 m 126 -11 l 158 161 l 232 161 l 168 -11 l 126 -11 "},"…":{"ha":1044,"x_min":103,"x_max":942,"o":"m 103 183 l 103 53 q 125 31 103 31 l 256 31 q 272 37 265 31 q 279 53 279 43 l 279 183 q 272 199 279 193 q 256 206 265 206 l 125 206 q 103 183 103 206 m 149 160 l 233 160 l 233 76 l 149 76 l 149 160 m 433 183 l 433 53 q 440 37 433 43 q 457 31 447 31 l 588 31 q 610 53 610 31 l 610 183 q 588 206 610 206 l 457 206 q 440 199 447 206 q 433 183 433 193 m 479 160 l 564 160 l 564 76 l 479 76 l 479 160 m 919 206 l 789 206 q 772 199 779 206 q 765 183 765 193 l 765 53 q 772 37 765 43 q 789 31 779 31 l 919 31 q 942 53 942 31 l 942 183 q 919 206 942 206 m 896 76 l 811 76 l 811 160 l 896 160 l 896 76 "},"!":{"ha":410,"x_min":114,"x_max":294,"o":"m 163 867 q 156 883 163 876 q 140 890 150 890 q 124 883 131 890 q 117 867 117 876 l 117 618 q 124 601 117 608 q 140 594 131 594 l 243 594 l 243 278 q 250 262 243 268 q 267 256 257 256 q 289 278 289 256 l 289 618 q 267 640 289 640 l 163 640 l 163 867 m 142 256 q 164 278 164 256 l 164 492 q 158 508 164 501 q 142 515 151 515 q 125 508 132 515 q 118 492 118 501 l 118 278 q 125 262 118 268 q 142 256 132 256 m 267 972 q 250 966 257 972 q 243 950 243 960 l 243 742 q 250 725 243 732 q 267 718 257 718 q 283 725 276 718 q 289 742 289 732 l 289 950 q 267 972 289 972 m 118 24 q 125 6 118 13 q 142 0 132 0 l 272 0 q 294 24 294 0 l 294 153 q 272 176 294 176 l 142 176 q 125 170 132 176 q 118 153 118 164 l 118 24 m 164 131 l 249 131 l 249 46 l 164 46 l 164 131 m 149 968 q 140 969 146 969 q 117 953 121 969 q 119 933 114 942 q 140 919 125 924 q 164 936 157 919 l 164 938 q 163 956 167 947 q 149 968 158 965 "},"¡":{"ha":400,"x_min":111,"x_max":294,"o":"m 265 -164 q 282 -157 275 -164 q 289 -140 289 -150 l 289 110 q 282 126 289 119 q 265 133 275 133 l 163 133 l 163 450 q 156 467 163 460 q 139 474 149 474 q 123 467 129 474 q 117 450 117 460 l 117 110 q 139 88 117 88 l 243 88 l 243 -140 q 249 -157 243 -150 q 265 -164 256 -164 m 286 236 l 286 450 q 280 467 286 460 q 264 474 274 474 q 247 467 254 474 q 240 450 240 460 l 240 236 q 247 219 240 226 q 264 213 254 213 q 280 219 274 213 q 286 236 286 226 m 139 10 q 123 3 129 10 q 117 -14 117 -4 l 117 -221 q 139 -244 117 -244 q 156 -238 149 -244 q 163 -221 163 -232 l 163 -14 q 156 3 163 -4 q 139 10 149 10 m 133 551 l 264 551 q 280 558 274 551 q 286 575 286 565 l 286 706 q 264 728 286 728 l 133 728 q 111 706 111 728 l 111 575 q 117 558 111 565 q 133 551 124 551 m 157 682 l 240 682 l 240 597 l 157 597 l 157 682 m 275 -193 q 271 -192 272 -193 q 267 -192 269 -192 q 243 -210 250 -192 q 246 -229 240 -219 q 267 -243 251 -239 q 290 -226 286 -243 l 290 -225 q 290 -206 294 -215 q 275 -193 286 -197 "},"#":{"ha":951,"x_min":69,"x_max":882,"o":"m 860 724 l 768 724 l 789 860 q 783 878 789 872 q 765 886 778 886 l 636 886 q 613 867 618 886 l 590 724 l 461 724 l 482 860 q 476 878 485 872 q 460 886 471 886 l 329 886 q 307 867 310 886 l 285 724 l 165 724 q 143 701 143 724 l 143 571 q 165 549 143 549 l 257 549 l 229 372 l 92 372 q 69 350 69 372 l 69 219 q 76 203 69 210 q 92 196 82 196 l 201 196 l 183 81 q 189 63 183 68 q 207 54 196 54 l 338 54 q 360 74 357 54 l 379 196 l 508 196 l 490 81 q 496 63 489 71 q 513 54 503 54 l 643 54 q 665 74 663 54 l 685 196 l 786 196 q 802 203 796 196 q 808 219 808 210 l 808 350 q 786 372 808 372 l 713 372 l 740 549 l 860 549 q 882 571 882 549 l 882 701 q 860 724 882 724 m 836 594 l 721 594 q 697 575 703 594 l 663 353 q 668 335 663 340 q 686 326 675 326 l 763 326 l 763 242 l 665 242 q 643 222 646 242 l 624 100 l 540 100 l 558 215 q 553 233 558 228 q 535 242 547 242 l 358 242 q 336 222 339 242 l 317 100 l 233 100 l 251 215 q 246 233 254 226 q 229 242 240 242 l 115 242 l 115 326 l 249 326 q 272 346 268 326 l 306 568 q 301 586 308 578 q 283 594 296 594 l 189 594 l 189 678 l 304 678 q 326 697 324 678 l 349 840 l 433 840 l 411 706 q 417 686 411 693 q 435 678 425 678 l 610 678 q 633 697 629 678 l 656 840 l 739 840 l 718 706 q 724 686 717 696 q 740 678 732 678 l 836 678 l 836 594 m 590 594 l 414 594 q 392 575 394 594 l 357 353 q 363 335 354 340 q 379 326 369 326 l 556 326 q 578 346 575 326 l 613 568 q 607 586 614 576 q 590 594 601 594 m 536 372 l 406 372 l 433 549 l 563 549 l 536 372 "},".":{"ha":399,"x_min":111,"x_max":288,"o":"m 264 3 q 288 25 288 3 l 288 156 q 264 178 288 178 l 135 178 q 111 156 111 178 l 111 25 q 135 3 111 3 l 264 3 m 157 132 l 242 132 l 242 49 l 157 49 l 157 132 "},"?":{"ha":838,"x_min":121,"x_max":717,"o":"m 364 0 l 494 0 q 517 24 517 0 l 517 153 q 510 169 517 163 q 494 176 504 176 l 364 176 q 348 169 354 176 q 342 153 342 163 l 342 24 q 364 0 342 0 m 388 131 l 471 131 l 471 46 l 388 46 l 388 131 m 350 381 q 353 363 347 371 q 372 351 358 354 q 394 369 390 351 q 431 465 407 421 q 481 540 456 508 q 524 591 506 572 q 543 610 543 610 q 581 697 581 646 q 567 755 581 728 q 533 802 554 782 q 481 834 511 822 q 418 846 451 846 q 357 835 388 846 q 303 803 326 824 q 264 756 279 783 q 249 696 249 729 q 256 680 249 686 q 272 674 263 674 q 294 696 294 674 q 305 735 294 717 q 333 769 315 754 q 372 792 350 783 q 418 800 394 800 q 501 770 467 800 q 535 697 535 740 q 511 643 535 665 q 487 619 507 640 q 440 565 467 599 q 388 483 414 531 q 350 381 363 436 m 656 543 l 657 544 q 717 714 717 617 q 691 822 717 775 q 623 900 665 868 q 527 948 581 932 q 418 964 474 964 q 303 946 357 964 q 208 894 249 928 q 144 809 168 860 q 121 694 121 758 q 128 678 121 685 q 144 672 135 672 q 167 694 167 672 q 186 792 167 750 q 240 862 206 833 q 319 904 274 890 q 418 918 365 918 q 509 906 464 918 q 590 867 554 893 q 649 803 626 842 q 671 714 671 765 q 622 575 671 635 q 593 544 617 569 q 543 479 569 518 q 496 393 517 440 q 475 297 475 346 q 497 275 475 275 q 514 281 507 275 q 521 297 521 288 q 542 383 521 340 q 588 462 563 426 q 634 520 613 497 q 656 543 656 543 m 356 274 l 364 272 q 388 290 381 272 q 386 310 390 301 q 372 322 382 319 q 364 324 369 324 q 340 307 344 324 l 340 306 q 340 287 336 296 q 356 274 344 278 "},"¿":{"ha":831,"x_min":119,"x_max":714,"o":"m 318 699 l 318 568 q 324 551 318 558 q 342 544 331 544 l 471 544 q 488 551 482 544 q 494 568 494 558 l 494 699 q 471 721 494 721 l 342 721 q 318 699 318 721 m 364 675 l 449 675 l 449 590 l 364 590 l 364 675 m 485 339 q 483 356 488 349 q 468 367 478 364 q 451 363 458 367 q 440 350 443 360 q 403 255 428 299 q 355 179 379 211 q 312 129 331 147 q 292 111 293 111 q 256 24 256 75 q 268 -34 256 -7 q 303 -81 281 -61 q 355 -113 325 -101 q 418 -125 385 -125 q 478 -114 449 -125 q 533 -83 508 -103 q 572 -35 557 -62 q 586 25 586 -7 q 564 47 586 47 q 547 41 554 47 q 540 25 540 35 q 530 -15 540 4 q 503 -48 519 -33 q 464 -71 486 -62 q 418 -79 442 -79 q 335 -49 369 -79 q 301 24 301 -19 q 324 78 301 56 q 349 101 328 81 q 395 156 369 121 q 447 237 421 190 q 485 339 472 283 m 181 178 l 179 176 q 119 7 119 107 q 145 -101 119 -54 q 213 -179 171 -147 q 308 -227 254 -211 q 417 -243 361 -243 q 533 -226 479 -243 q 628 -174 588 -208 q 691 -89 668 -139 q 714 26 714 -39 q 692 49 714 49 q 675 42 682 49 q 668 26 668 36 q 649 -71 668 -29 q 595 -141 629 -112 q 515 -183 561 -169 q 417 -197 469 -197 q 326 -185 371 -197 q 245 -147 281 -172 q 188 -83 210 -121 q 165 7 165 -44 q 214 146 165 89 q 242 177 218 151 q 292 242 265 203 q 340 328 318 281 q 361 424 361 375 q 354 440 361 433 q 338 446 347 446 q 315 424 315 446 q 294 338 315 381 q 249 259 274 294 q 202 201 224 224 q 181 178 181 178 m 481 446 q 476 447 478 446 q 472 447 475 447 q 449 431 456 447 l 449 429 q 451 410 446 419 q 472 396 457 400 q 496 413 492 396 l 496 414 q 496 433 500 424 q 481 446 492 443 "},"\"":{"ha":638,"x_min":108,"x_max":532,"o":"m 507 932 l 381 932 q 364 924 371 932 q 357 907 357 918 l 372 689 q 396 667 375 667 l 481 667 q 495 673 489 667 q 503 688 501 679 l 529 906 q 524 924 532 918 q 507 932 518 932 m 460 713 l 417 713 l 404 886 l 481 886 l 460 713 m 258 932 l 131 932 q 114 924 121 932 q 108 907 108 918 l 124 689 q 147 667 126 667 l 231 667 q 247 673 240 667 q 254 688 253 679 l 281 906 q 275 924 283 917 q 258 932 269 932 m 211 713 l 168 713 l 156 886 l 232 886 l 211 713 "},"'":{"ha":340,"x_min":83,"x_max":257,"o":"m 207 667 q 222 673 215 667 q 229 688 228 679 l 257 906 q 251 924 257 917 q 233 932 244 932 l 107 932 q 90 924 97 932 q 83 907 83 917 l 100 689 q 122 667 100 667 l 207 667 m 208 886 l 186 713 l 143 713 l 132 886 l 208 886 "},";":{"ha":421,"x_min":82,"x_max":297,"o":"m 271 765 l 140 765 q 124 758 131 765 q 118 742 118 751 l 118 611 q 140 589 118 589 l 271 589 q 288 595 281 589 q 294 611 294 601 l 294 742 q 288 758 294 751 q 271 765 281 765 m 249 635 l 164 635 l 164 719 l 249 719 l 249 635 m 82 53 q 88 33 82 42 q 106 25 93 25 l 190 25 q 211 40 206 25 l 293 258 q 290 279 297 269 q 271 290 283 290 l 144 290 q 122 271 125 290 l 82 53 m 164 244 l 239 244 l 174 71 l 132 71 l 164 244 "},"/":{"ha":749,"x_min":28,"x_max":721,"o":"m 54 -121 l 222 -121 q 243 -106 239 -121 l 717 1060 q 714 1082 721 1071 q 694 1092 707 1092 l 526 1092 q 506 1078 510 1092 l 32 -89 q 35 -110 28 -100 q 54 -121 42 -121 m 542 1046 l 661 1046 l 207 -75 l 88 -75 l 542 1046 "},"_":{"ha":1019,"x_min":90,"x_max":943,"o":"m 919 88 l 114 88 q 97 81 104 88 q 90 65 90 75 l 90 -65 q 97 -81 90 -75 q 114 -87 104 -87 l 919 -87 q 936 -81 929 -87 q 943 -65 943 -75 l 943 65 q 936 81 943 75 q 919 88 929 88 m 897 -42 l 136 -42 l 136 42 l 897 42 l 897 -42 "},"{":{"ha":599,"x_min":0,"x_max":599,"o":"m 49 342 l 68 332 q 132 196 132 299 q 158 26 132 103 q 236 -108 185 -51 q 363 -195 288 -164 q 538 -229 439 -226 l 546 -229 q 583 -213 568 -229 q 599 -175 599 -197 l 599 -83 q 585 -49 599 -64 q 551 -31 572 -33 l 543 -29 q 461 -2 496 -25 q 403 56 426 21 q 369 133 381 90 q 358 217 358 175 q 339 338 358 275 q 275 443 319 401 q 336 535 314 475 q 358 671 358 594 q 372 765 358 721 q 410 841 386 808 q 469 893 435 874 q 543 917 503 913 l 551 917 q 585 935 571 919 q 599 969 599 950 l 599 1061 q 583 1100 599 1085 q 546 1115 568 1115 l 536 1115 q 364 1082 439 1113 q 238 997 289 1051 q 159 864 186 942 q 132 690 132 786 q 68 556 132 586 l 49 546 q 15 519 31 535 q 0 471 0 503 l 0 417 q 15 369 0 385 q 49 342 31 353 m 46 471 q 51 489 46 482 q 71 506 56 496 l 89 514 q 178 690 178 558 q 185 778 178 736 q 204 857 192 821 q 333 1017 249 965 q 536 1069 418 1068 l 546 1069 q 553 1061 553 1069 l 553 969 q 546 963 553 963 l 540 961 q 442 931 485 957 q 370 864 399 904 q 327 773 342 824 q 313 671 313 722 q 288 539 313 594 q 224 464 264 483 q 210 443 210 457 q 222 422 210 429 q 265 387 247 411 q 292 333 282 363 q 308 272 303 303 q 313 217 313 240 q 327 115 313 165 q 369 25 342 65 q 440 -42 397 -15 q 538 -74 482 -68 l 544 -75 q 553 -83 553 -78 l 553 -175 q 546 -183 553 -183 l 539 -183 q 384 -155 451 -182 q 271 -78 317 -128 q 201 40 225 -29 q 178 196 178 110 q 88 374 178 328 l 71 382 q 51 399 56 392 q 46 417 46 406 l 46 471 "},"}":{"ha":599,"x_min":0,"x_max":599,"o":"m 64 -229 q 235 -196 160 -226 q 361 -110 310 -165 q 440 23 413 -54 q 467 196 467 100 q 531 331 467 300 l 550 340 q 583 367 568 351 q 599 415 599 383 l 599 469 q 583 518 599 501 q 547 546 567 535 l 531 554 q 467 690 467 588 q 440 860 467 783 q 363 994 414 938 q 235 1081 311 1050 q 61 1115 160 1113 l 54 1115 q 15 1099 31 1115 q 0 1061 0 1083 l 0 969 q 13 935 0 950 q 47 917 26 919 l 56 915 q 138 888 103 911 q 195 831 172 865 q 229 753 218 796 q 240 669 240 711 q 260 548 240 611 q 324 443 279 485 q 263 351 285 411 q 240 215 240 292 q 226 122 240 165 q 188 45 213 78 q 130 -7 164 13 q 56 -31 96 -26 l 47 -31 q 14 -49 28 -33 q 0 -83 0 -64 l 0 -175 q 15 -214 0 -199 q 54 -229 31 -229 l 64 -229 m 63 -183 l 54 -183 q 46 -175 46 -183 l 46 -83 q 53 -76 46 -76 l 58 -75 q 157 -44 114 -71 q 228 22 200 -18 q 272 113 257 63 q 286 215 286 164 q 310 347 286 292 q 375 422 335 403 q 389 443 389 429 q 376 464 389 457 q 334 499 351 475 q 306 553 317 524 q 291 615 296 583 q 286 669 286 646 q 272 771 286 721 q 229 861 257 821 q 159 928 201 901 q 61 960 117 954 l 54 961 q 46 969 46 964 l 46 1061 q 54 1069 46 1069 l 60 1069 q 215 1041 147 1068 q 328 965 282 1014 q 397 846 374 915 q 421 690 421 776 q 511 513 421 558 l 528 504 q 548 488 543 494 q 553 469 553 481 l 553 415 q 548 397 553 404 q 528 381 543 390 l 510 372 q 421 196 421 328 q 414 108 421 150 q 394 29 407 65 q 265 -131 350 -79 q 63 -183 181 -182 "},"[":{"ha":539,"x_min":96,"x_max":501,"o":"m 478 1068 l 119 1068 q 96 1046 96 1068 l 96 -172 q 102 -189 96 -182 q 119 -196 108 -196 l 478 -196 q 494 -189 488 -196 q 501 -172 501 -182 l 501 -53 q 494 -37 501 -43 q 478 -31 488 -31 l 261 -31 l 261 903 l 478 903 q 494 909 488 903 q 501 925 501 915 l 501 1046 q 494 1062 501 1056 q 478 1068 488 1068 m 456 949 l 239 949 q 222 942 229 949 q 215 925 215 936 l 215 -53 q 222 -69 215 -62 q 239 -76 229 -76 l 456 -76 l 456 -150 l 142 -150 l 142 1022 l 456 1022 l 456 949 "},"]":{"ha":539,"x_min":49,"x_max":454,"o":"m 431 1064 l 72 1064 q 49 1042 49 1064 l 49 921 q 72 899 49 899 l 288 899 l 288 -35 l 72 -35 q 49 -57 49 -35 l 49 -176 q 55 -193 49 -186 q 72 -200 61 -200 l 431 -200 q 447 -193 440 -200 q 454 -176 454 -186 l 454 1042 q 447 1058 454 1051 q 431 1064 440 1064 m 408 1018 l 408 -154 l 94 -154 l 94 -81 l 311 -81 q 327 -74 321 -81 q 333 -57 333 -67 l 333 921 q 311 944 333 944 l 94 944 l 94 1018 l 408 1018 "},"(":{"ha":539,"x_min":140,"x_max":482,"o":"m 433 -99 q 469 -81 457 -99 q 482 -44 482 -67 l 482 33 q 469 69 482 53 q 436 88 456 86 q 342 186 368 94 q 310 499 310 293 q 342 813 310 706 q 438 910 368 903 q 469 928 456 911 q 482 964 482 944 l 482 1042 q 469 1078 482 1064 q 433 1096 457 1096 q 292 1062 350 1096 q 200 950 235 1028 q 154 774 168 882 q 140 499 140 665 q 154 224 140 332 q 200 47 168 117 q 292 -65 235 -31 q 433 -99 350 -99 m 433 1053 l 436 1051 q 439 1042 439 1049 l 432 953 q 350 915 383 949 q 302 828 319 882 q 277 715 285 775 q 268 598 269 656 q 267 499 267 540 q 300 174 267 282 q 349 83 318 113 q 439 33 381 54 l 439 -44 q 433 -56 439 -51 q 315 -26 361 -56 q 239 65 268 3 q 197 233 211 129 q 183 499 183 338 q 197 765 183 661 q 239 932 211 868 q 315 1024 268 994 q 433 1053 361 1053 "},")":{"ha":539,"x_min":56,"x_max":396,"o":"m 103 -111 q 244 -77 189 -111 q 338 35 300 -43 q 382 211 368 103 q 396 485 396 319 q 382 760 396 653 q 338 938 368 868 q 244 1049 300 1015 q 103 1083 189 1083 q 68 1065 81 1083 q 56 1029 56 1051 l 56 951 q 68 915 56 932 q 100 897 82 899 q 196 799 167 892 q 228 485 228 692 q 196 172 228 279 q 100 75 167 81 q 68 57 82 74 q 56 21 56 40 l 56 -57 q 68 -94 56 -78 q 103 -111 81 -111 m 104 32 q 188 69 153 36 q 235 156 218 103 q 260 269 253 210 q 269 385 268 328 q 271 485 271 443 q 269 584 271 526 q 260 701 268 642 q 235 815 253 761 q 188 903 218 869 q 148 930 169 919 q 99 951 126 940 l 99 1029 q 103 1040 99 1036 q 223 1011 176 1040 q 297 919 269 982 q 340 751 326 856 q 353 485 353 647 q 340 220 353 324 q 297 53 326 117 q 223 -39 269 -10 q 101 -67 176 -68 q 99 -57 99 -64 l 104 32 "},"—":{"ha":1050,"x_min":122,"x_max":942,"o":"m 122 482 l 122 353 q 144 329 122 329 l 919 329 q 942 353 942 329 l 942 482 q 935 499 942 492 q 919 506 929 506 l 144 506 q 128 499 135 506 q 122 482 122 492 m 168 460 l 896 460 l 896 375 l 168 375 l 168 460 "},"–":{"ha":786,"x_min":64,"x_max":722,"o":"m 722 364 l 722 494 q 715 510 722 504 q 699 517 708 517 l 88 517 q 71 510 78 517 q 64 494 64 504 l 64 364 q 71 348 64 354 q 88 342 78 342 l 699 342 q 715 348 708 342 q 722 364 722 354 m 676 388 l 110 388 l 110 471 l 676 471 l 676 388 "},"-":{"ha":661,"x_min":99,"x_max":563,"o":"m 122 328 l 539 328 q 556 334 549 328 q 563 350 563 340 l 563 481 q 556 497 563 490 q 539 503 549 503 l 122 503 q 106 497 113 503 q 99 481 99 490 l 99 350 q 106 334 99 340 q 122 328 113 328 m 144 457 l 517 457 l 517 374 l 144 374 l 144 457 "},"­":{"ha":347,"x_min":0,"x_max":0,"o":""},"„":{"ha":703,"x_min":106,"x_max":586,"o":"m 500 -42 l 582 176 q 579 197 586 188 q 560 207 572 207 l 433 207 q 411 189 414 207 l 371 -31 q 377 -49 371 -42 q 394 -57 383 -57 l 479 -57 q 492 -53 486 -57 q 500 -42 497 -49 m 463 -11 l 421 -11 l 453 161 l 528 161 l 463 -11 m 315 197 q 296 207 308 207 l 169 207 q 147 189 150 207 l 107 -31 q 113 -49 106 -39 q 131 -57 119 -57 l 214 -57 q 236 -42 229 -57 l 318 176 q 315 197 322 188 m 199 -11 l 157 -11 l 189 161 l 263 161 l 199 -11 "},"“":{"ha":693,"x_min":92,"x_max":572,"o":"m 285 939 l 200 939 q 178 924 185 939 l 97 706 q 100 685 92 693 q 118 675 107 675 l 246 675 q 268 693 263 675 l 307 913 q 301 931 310 924 q 285 939 296 939 m 226 721 l 151 721 l 215 893 l 257 893 l 226 721 m 549 939 l 464 939 q 443 924 447 939 l 361 706 q 364 685 357 694 q 382 675 371 675 l 510 675 q 532 693 526 675 l 571 913 q 567 931 572 922 q 549 939 558 939 m 490 721 l 415 721 l 479 893 l 521 893 l 490 721 "},"”":{"ha":686,"x_min":90,"x_max":571,"o":"m 379 675 l 464 675 q 476 679 471 675 q 485 690 482 683 l 567 908 q 564 929 571 919 q 544 939 557 939 l 418 939 q 396 921 399 939 l 356 701 q 362 683 356 690 q 379 675 368 675 m 438 893 l 513 893 l 447 721 l 406 721 l 438 893 m 281 939 l 154 939 q 132 921 135 939 l 92 701 q 97 683 90 693 q 115 675 104 675 l 199 675 q 221 690 214 675 l 303 908 q 300 929 307 919 q 281 939 293 939 m 183 721 l 142 721 l 174 893 l 247 893 l 183 721 "},"‘":{"ha":379,"x_min":78,"x_max":294,"o":"m 269 939 l 186 939 q 164 924 171 939 l 82 706 q 85 685 78 694 q 104 675 92 675 l 231 675 q 253 693 250 675 l 293 913 q 288 931 294 921 q 269 939 282 939 m 211 721 l 138 721 l 201 893 l 243 893 l 211 721 "},"’":{"ha":372,"x_min":93,"x_max":310,"o":"m 135 921 l 94 701 q 100 683 93 693 q 118 675 107 675 l 201 675 q 224 690 219 675 l 306 908 q 303 929 310 919 q 283 939 296 939 l 157 939 q 135 921 138 939 m 250 893 l 186 721 l 144 721 l 176 893 l 250 893 "},"‚":{"ha":389,"x_min":81,"x_max":297,"o":"m 211 -42 l 293 176 q 290 197 297 188 q 271 207 283 207 l 144 207 q 122 189 125 207 l 82 -31 q 88 -49 81 -39 q 106 -57 94 -57 l 189 -57 q 211 -42 207 -57 m 132 -11 l 164 161 l 238 161 l 174 -11 l 132 -11 "},"׳":{"ha":372,"x_min":93,"x_max":310,"o":"m 224 539 l 306 757 q 303 778 310 768 q 283 788 296 788 l 157 788 q 135 769 138 788 l 94 550 q 100 532 93 542 q 118 524 107 524 l 201 524 q 224 539 219 524 m 144 569 l 176 742 l 250 742 l 186 569 l 144 569 "},"״":{"ha":686,"x_min":118,"x_max":599,"o":"m 513 539 l 594 757 q 592 778 599 768 q 572 788 585 788 l 446 788 q 424 769 426 788 l 383 550 q 390 531 383 539 q 407 524 396 524 l 492 524 q 504 528 499 524 q 513 539 510 532 m 475 569 l 433 569 l 465 742 l 540 742 l 475 569 m 328 778 q 308 788 321 788 l 182 788 q 160 769 163 788 l 119 550 q 125 532 118 542 q 143 524 132 524 l 226 524 q 249 539 242 524 l 331 757 q 328 778 335 768 m 211 569 l 169 569 l 201 742 l 275 742 l 211 569 "},"־":{"ha":558,"x_min":39,"x_max":503,"o":"m 63 596 l 479 596 q 496 602 489 596 q 503 619 503 608 l 503 749 q 496 765 503 758 q 479 772 489 772 l 63 772 q 46 765 53 772 q 39 749 39 758 l 39 619 q 46 602 39 608 q 63 596 53 596 m 85 726 l 457 726 l 457 642 l 85 642 l 85 726 "}," ":{"ha":292,"x_min":0,"x_max":0,"o":""},"¢":{"ha":833,"x_min":54,"x_max":761,"o":"m 169 464 q 171 447 167 456 q 190 435 175 438 q 213 450 208 435 q 287 565 235 518 q 414 611 339 611 q 522 580 474 611 q 603 490 571 549 q 624 478 610 478 q 633 481 631 478 q 644 494 642 485 q 643 511 647 503 q 549 617 608 578 q 414 657 490 657 q 260 602 324 657 q 169 464 196 547 m 656 232 q 656 249 660 240 q 644 263 653 258 q 635 264 642 264 q 614 251 621 264 q 531 153 585 189 q 414 118 478 118 q 322 139 364 118 q 251 194 281 160 q 206 272 222 228 q 189 364 189 317 q 167 386 189 386 l 100 386 q 151 553 107 475 q 274 676 194 632 q 284 690 282 681 q 282 707 286 699 q 263 718 275 718 q 251 715 254 718 q 167 652 204 690 q 106 567 131 614 q 67 469 81 521 q 54 364 54 417 q 60 347 54 354 q 78 340 67 340 l 144 340 q 169 238 147 286 q 227 152 192 189 q 310 94 263 115 q 414 72 358 72 q 556 115 492 72 q 656 232 621 157 m 731 479 l 739 481 q 752 492 749 483 q 753 510 756 501 q 699 611 732 565 q 621 690 665 657 q 522 742 576 724 q 408 760 468 760 l 367 760 l 367 831 q 343 853 367 853 q 321 831 321 853 l 321 738 q 343 715 321 715 l 417 714 q 514 697 468 714 q 597 651 560 681 q 664 581 635 621 q 710 494 693 542 q 718 483 713 488 q 731 479 724 479 m 744 264 q 740 265 742 264 q 738 265 739 265 q 715 249 719 265 q 648 125 693 179 q 542 42 603 71 q 530 30 533 39 q 531 11 526 21 q 551 -1 538 -1 q 561 1 556 -1 q 683 95 632 35 q 758 235 735 156 q 757 253 761 244 q 744 264 753 261 m 464 -201 q 488 -179 488 -201 l 488 -10 q 481 7 488 0 q 465 14 475 14 l 378 17 q 283 46 326 24 q 206 102 240 68 q 147 180 171 136 q 111 272 124 224 q 89 290 107 290 q 83 289 85 290 q 69 278 74 286 q 67 263 64 271 q 108 157 81 207 q 176 68 136 107 q 266 3 215 29 q 375 -29 317 -22 l 442 -32 l 442 -179 q 464 -201 442 -201 m 442 908 l 442 828 q 464 806 442 806 q 488 828 488 806 l 488 908 q 464 931 488 931 q 442 908 442 931 m 321 -100 l 321 -179 q 327 -196 321 -189 q 343 -203 333 -203 q 360 -196 354 -203 q 367 -179 367 -189 l 367 -100 q 360 -83 367 -90 q 343 -76 354 -76 q 327 -83 333 -76 q 321 -100 321 -90 m 321 917 l 319 915 q 322 897 317 906 q 343 882 328 888 q 368 900 361 882 q 367 919 371 910 q 351 932 363 929 q 344 933 350 933 q 321 917 325 933 "},"$":{"ha":935,"x_min":140,"x_max":794,"o":"m 221 515 q 295 465 254 486 q 375 428 336 444 l 396 419 q 492 377 449 397 q 565 338 536 357 q 599 309 585 325 q 608 269 614 293 q 631 240 601 247 q 644 245 638 240 q 651 258 650 250 q 642 325 661 292 q 590 376 628 351 q 513 417 558 397 q 414 461 468 438 l 393 471 q 310 510 347 490 q 248 553 274 529 q 209 608 222 578 q 197 675 196 638 q 218 735 197 711 q 270 772 239 758 q 336 790 301 785 q 399 796 371 796 q 503 783 449 796 q 593 732 558 771 q 624 638 625 696 q 630 621 624 628 q 647 614 636 614 q 663 620 656 614 q 669 636 669 626 q 626 763 674 713 q 535 821 590 804 q 426 842 479 838 q 365 840 396 842 q 305 833 335 839 q 247 813 275 826 q 197 778 219 800 q 172 744 181 761 q 158 713 163 728 q 152 688 153 699 q 151 675 151 678 q 221 515 147 582 m 792 275 q 789 340 793 310 q 757 399 785 369 q 684 454 732 426 q 549 518 636 482 q 458 559 501 539 q 382 599 414 579 q 333 641 350 619 q 321 685 317 663 q 318 702 324 694 q 303 713 313 710 q 285 709 293 713 q 276 694 278 706 q 344 569 261 628 q 424 524 378 546 q 531 476 469 501 q 656 416 611 442 q 722 368 701 390 q 743 330 739 349 q 746 279 747 311 q 715 222 738 244 q 662 185 692 199 q 599 165 632 171 q 533 160 565 160 q 431 173 485 160 q 342 224 376 186 q 311 318 307 260 q 305 335 311 328 q 289 342 299 342 q 272 337 279 343 q 265 321 265 331 q 307 193 261 243 q 399 135 344 151 q 508 114 454 118 q 635 126 572 114 q 744 186 697 139 q 783 245 775 218 q 792 275 790 272 m 778 744 q 728 831 760 794 q 657 890 697 867 q 569 926 617 914 q 471 942 522 939 l 428 944 l 428 1011 q 421 1027 428 1021 q 404 1033 414 1033 q 382 1011 382 1033 l 382 922 q 403 900 382 900 l 468 896 q 689 807 615 889 q 746 638 750 739 q 752 621 746 628 q 769 614 758 614 q 785 620 778 614 q 792 635 792 626 q 778 744 794 694 m 549 1010 l 549 1090 q 542 1107 549 1100 q 525 1114 535 1114 q 509 1107 515 1114 q 503 1090 503 1100 l 503 1010 q 525 988 503 988 q 542 994 535 988 q 549 1010 549 1000 m 143 321 q 158 208 140 261 q 214 114 176 154 q 464 10 303 17 l 507 7 l 507 -131 q 514 -147 507 -140 q 531 -154 521 -154 q 547 -147 540 -154 q 553 -131 553 -140 l 553 28 q 532 51 553 49 l 467 54 q 340 81 396 58 q 249 144 285 104 q 201 224 217 179 q 189 318 186 268 q 167 343 189 340 q 150 337 157 343 q 143 321 143 331 m 432 -132 l 432 -51 q 410 -29 432 -29 q 393 -35 400 -29 q 386 -51 386 -42 l 386 -132 q 393 -148 386 -142 q 410 -154 400 -154 q 432 -132 432 -154 m 396 1065 l 404 1064 q 428 1081 424 1064 q 428 1101 432 1092 q 413 1113 424 1110 q 404 1114 410 1114 q 381 1097 388 1114 l 381 1096 q 382 1077 378 1086 q 396 1065 386 1068 "},"€":{"ha":1096,"x_min":74,"x_max":947,"o":"m 192 429 q 185 446 192 439 q 169 453 179 453 l 99 453 q 83 446 89 453 q 76 429 76 439 q 99 407 76 407 l 169 407 q 192 429 192 407 m 901 793 q 770 915 851 879 q 593 950 689 950 q 467 933 526 950 q 360 880 407 915 q 283 791 314 844 q 244 667 253 738 q 249 649 243 657 q 264 640 254 642 q 290 661 288 640 q 389 844 307 785 q 593 904 471 904 q 797 844 715 904 q 899 658 878 785 l 799 658 q 723 776 775 728 q 594 824 671 824 q 431 728 486 824 q 403 665 410 693 q 396 635 396 636 q 394 614 396 633 q 390 565 392 594 q 390 498 389 535 q 394 425 390 461 q 417 406 397 406 l 579 406 q 601 428 601 406 q 595 444 601 438 q 579 451 589 451 l 438 451 q 435 513 435 482 q 436 568 435 543 q 439 610 438 593 q 440 629 440 626 q 447 654 442 632 q 469 704 453 676 q 594 778 514 778 q 725 706 674 778 q 741 678 735 692 q 751 654 747 665 q 758 631 756 642 q 781 613 763 613 l 924 613 q 940 618 935 613 q 947 635 947 628 q 946 650 947 636 q 940 686 944 664 q 927 736 936 708 q 901 793 918 764 m 889 156 q 916 206 906 181 q 932 250 926 231 q 940 281 938 269 q 942 294 942 293 q 936 313 944 306 q 919 319 929 319 l 781 319 q 760 307 767 319 q 695 223 739 260 q 597 186 651 186 q 541 199 565 186 q 499 233 517 213 q 469 281 482 254 q 450 333 457 307 q 440 347 449 343 q 424 350 432 350 q 408 340 414 347 q 406 322 403 332 q 431 254 414 288 q 471 196 447 221 q 526 156 494 171 q 597 140 557 140 q 713 180 660 140 q 794 274 767 219 l 892 274 q 790 116 865 169 q 608 63 715 63 q 329 239 414 63 q 303 305 313 272 q 290 364 294 338 q 283 406 285 390 q 282 422 282 422 q 281 452 282 433 q 279 490 279 471 q 280 528 279 510 q 282 556 281 546 q 278 574 285 567 q 260 582 269 582 l 96 582 q 74 560 74 582 q 80 543 74 550 q 96 536 86 536 l 235 536 q 233 501 233 519 q 234 465 233 482 q 235 436 235 449 q 236 419 236 424 q 238 399 236 417 q 245 353 240 381 q 260 290 250 325 q 288 219 271 256 q 417 68 336 119 q 608 17 499 17 q 713 29 667 17 q 792 62 758 42 q 850 107 826 82 q 889 156 874 132 m 676 551 q 670 568 676 561 q 654 575 664 575 l 518 575 q 502 568 508 575 q 496 551 496 561 q 518 529 496 529 l 654 529 q 676 551 676 529 m 649 404 l 657 403 q 681 419 675 403 q 679 440 683 431 q 665 451 675 449 q 657 453 663 453 q 633 436 638 453 q 634 416 629 425 q 649 404 639 407 "},"£":{"ha":1007,"x_min":60,"x_max":954,"o":"m 675 -10 q 775 10 731 -10 q 854 63 819 29 q 913 140 889 96 q 951 235 938 185 q 949 252 954 244 q 935 263 944 260 q 929 264 933 264 q 907 246 911 264 q 854 131 888 174 q 787 68 821 89 q 722 42 753 47 q 675 36 690 36 q 628 39 649 36 q 589 47 608 42 q 547 63 569 53 q 496 86 525 72 q 477 94 486 90 q 460 101 468 99 q 404 125 428 117 q 351 133 381 133 q 281 115 308 133 q 239 54 254 96 q 240 37 236 46 q 253 25 244 28 q 261 24 256 24 q 282 39 278 24 q 308 77 293 67 q 351 88 324 88 q 392 81 374 88 q 442 60 411 74 q 458 53 449 57 q 478 43 467 49 q 532 19 508 29 q 578 2 556 8 q 623 -7 600 -4 q 675 -10 646 -10 m 132 22 q 156 44 153 22 q 160 108 157 78 q 176 162 164 138 q 211 203 189 186 q 271 226 233 219 q 290 249 290 232 l 290 528 q 283 545 290 539 q 267 551 276 551 l 82 551 q 60 528 60 551 q 82 506 60 506 l 244 506 l 244 268 q 176 235 203 257 q 135 183 150 213 q 116 118 121 153 q 110 46 111 83 q 115 29 108 36 q 132 22 122 22 m 643 126 q 753 182 710 126 q 774 219 768 203 q 782 238 781 236 q 780 255 785 247 q 765 265 775 263 q 760 267 764 267 q 738 250 742 267 q 717 211 729 228 q 688 184 706 196 q 643 172 669 172 q 612 179 626 172 q 578 197 597 186 q 563 206 571 201 q 543 215 554 211 q 485 239 518 228 q 428 257 451 250 l 428 314 q 421 330 428 324 q 404 336 414 336 q 382 314 382 336 l 382 240 q 400 217 382 221 q 424 211 408 215 q 456 201 439 207 q 492 189 474 196 q 524 175 510 182 q 581 142 549 158 q 643 126 613 126 m 644 381 q 667 404 667 381 q 644 426 667 426 l 426 426 l 426 647 q 456 742 426 704 q 546 781 486 781 q 624 759 585 781 q 676 683 663 738 q 699 667 681 667 q 704 668 703 667 q 719 678 714 671 q 721 696 724 686 q 656 792 704 757 q 546 826 608 826 q 424 775 467 826 q 381 647 381 724 l 381 404 q 403 381 381 381 l 644 381 m 167 383 q 183 390 176 383 q 190 406 190 396 q 183 422 190 415 q 167 429 176 429 l 85 429 q 69 422 75 429 q 63 406 63 415 q 85 383 63 383 l 167 383 m 563 506 q 585 528 585 506 q 578 544 585 538 q 563 551 572 551 l 496 551 q 479 544 486 551 q 472 528 472 538 q 479 512 472 518 q 496 506 486 506 l 563 506 m 264 604 q 288 626 288 604 q 303 744 289 690 q 347 836 317 797 q 424 896 376 875 q 542 917 471 917 l 546 917 q 649 902 600 917 q 738 859 699 888 q 801 787 776 831 q 832 686 826 743 q 841 671 833 676 q 858 667 849 665 q 878 692 881 669 q 841 809 869 758 q 768 894 813 860 q 667 945 724 928 q 546 963 610 963 l 542 963 q 406 938 463 963 q 314 869 350 914 q 260 763 278 825 q 242 628 243 701 q 248 611 242 618 q 264 604 254 604 m 639 503 q 663 519 658 503 l 664 521 q 647 553 671 543 q 643 553 644 553 q 639 554 642 554 q 615 536 622 554 q 618 517 613 526 q 639 503 624 507 "},"∕":{"ha":749,"x_min":28,"x_max":721,"o":"m 54 -121 l 222 -121 q 243 -106 239 -121 l 717 1060 q 714 1082 721 1071 q 694 1092 707 1092 l 526 1092 q 506 1078 510 1092 l 32 -89 q 35 -110 28 -100 q 54 -121 42 -121 m 542 1046 l 661 1046 l 207 -75 l 88 -75 l 542 1046 "},"+":{"ha":840,"x_min":64,"x_max":776,"o":"m 754 514 l 508 514 l 508 760 q 502 776 508 769 q 485 783 496 783 l 356 783 q 338 776 344 783 q 332 760 332 769 l 332 514 l 86 514 q 64 492 64 514 l 64 361 q 86 339 64 339 l 332 339 l 332 93 q 338 76 332 83 q 356 69 344 69 l 485 69 q 502 76 496 69 q 508 93 508 83 l 508 339 l 754 339 q 776 361 776 339 l 776 492 q 754 514 776 514 m 731 385 l 485 385 q 469 378 475 385 q 463 361 463 371 l 463 115 l 378 115 l 378 361 q 372 378 378 371 q 356 385 365 385 l 110 385 l 110 468 l 356 468 q 372 475 365 468 q 378 492 378 482 l 378 738 l 463 738 l 463 492 q 469 475 463 482 q 485 468 475 468 l 731 468 l 731 385 "},"−":{"ha":896,"x_min":89,"x_max":801,"o":"m 779 508 l 111 508 q 89 486 89 508 l 89 356 q 95 339 89 346 q 111 332 101 332 l 779 332 q 795 339 789 332 q 801 356 801 346 l 801 486 q 779 508 801 508 m 756 378 l 135 378 l 135 463 l 756 463 l 756 378 "},"×":{"ha":842,"x_min":100,"x_max":739,"o":"m 731 656 q 724 671 731 664 l 631 764 q 615 771 624 771 q 599 764 606 771 l 419 585 l 240 764 q 224 771 233 771 q 208 764 215 771 l 115 671 q 108 656 108 664 q 115 639 108 646 l 294 460 l 115 281 q 115 249 100 264 l 208 156 q 224 149 215 149 q 240 156 233 149 l 419 335 l 599 156 q 615 149 606 149 q 631 156 624 149 l 724 249 q 724 281 739 264 l 544 460 l 724 639 q 731 656 731 646 m 496 476 q 489 460 489 469 q 496 443 489 450 l 675 264 l 615 204 l 436 383 q 419 390 429 390 q 403 383 410 390 l 224 204 l 164 264 l 343 443 q 350 460 350 450 q 343 476 350 469 l 164 656 l 224 715 l 403 536 q 419 529 410 529 q 436 536 429 529 l 615 715 l 675 656 l 496 476 "},"÷":{"ha":740,"x_min":54,"x_max":686,"o":"m 686 364 l 686 494 q 664 517 686 517 l 76 517 q 54 494 54 517 l 54 364 q 76 342 54 342 l 664 342 q 686 364 686 342 m 640 388 l 100 388 l 100 471 l 640 471 l 640 388 m 304 776 q 282 754 282 776 l 282 624 q 288 607 282 614 q 304 600 294 600 l 435 600 q 451 607 444 600 q 457 624 457 614 l 457 754 q 435 776 457 776 l 304 776 m 411 646 l 328 646 l 328 731 l 411 731 l 411 646 m 435 258 l 304 258 q 288 251 294 258 q 282 235 282 244 l 282 104 q 304 82 282 82 l 435 82 q 457 104 457 82 l 457 235 q 451 251 457 244 q 435 258 444 258 m 411 128 l 328 128 l 328 213 l 411 213 l 411 128 "},"=":{"ha":786,"x_min":76,"x_max":710,"o":"m 710 668 q 686 690 710 690 l 100 690 q 76 668 76 690 l 76 538 q 83 521 76 528 q 100 514 89 514 l 686 514 q 703 521 697 514 q 710 538 710 528 l 710 668 m 664 560 l 122 560 l 122 644 l 664 644 l 664 560 m 710 190 l 710 321 q 703 338 710 331 q 686 344 697 344 l 100 344 q 83 338 89 344 q 76 321 76 331 l 76 190 q 100 168 76 168 l 686 168 q 710 190 710 168 m 664 214 l 122 214 l 122 299 l 664 299 l 664 214 "},"≠":{"ha":763,"x_min":65,"x_max":697,"o":"m 675 517 q 691 524 685 517 q 697 540 697 531 l 697 671 q 675 693 697 693 l 567 693 l 599 772 q 596 793 603 783 q 576 803 590 803 l 446 803 q 425 789 432 803 l 388 693 l 88 693 q 65 671 65 693 l 65 540 q 72 524 65 531 q 88 517 78 517 l 318 517 l 251 347 l 88 347 q 65 324 65 347 l 65 194 q 72 178 65 185 q 88 171 78 171 l 181 171 l 147 86 q 150 65 143 75 q 169 56 156 56 l 300 56 q 321 69 314 56 l 361 171 l 675 171 q 691 178 685 171 q 697 194 697 185 l 697 324 q 675 347 697 347 l 431 347 l 497 517 l 675 517 m 461 549 l 375 333 q 378 311 371 322 q 397 301 385 301 l 651 301 l 651 217 l 346 217 q 324 203 331 217 l 283 101 l 203 101 l 236 186 q 233 207 240 196 q 215 217 226 217 l 111 217 l 111 301 l 267 301 q 288 315 283 301 l 372 532 q 371 553 378 544 q 351 563 365 563 l 111 563 l 111 647 l 403 647 q 424 663 419 647 l 463 757 l 543 757 l 513 679 q 514 657 508 667 q 533 647 521 647 l 651 647 l 651 563 l 482 563 q 461 549 465 563 "},">":{"ha":721,"x_min":82,"x_max":669,"o":"m 658 599 l 117 900 q 106 903 113 903 q 89 897 96 903 q 82 881 82 892 l 82 676 q 94 657 82 664 l 383 501 l 92 297 q 82 279 82 290 l 82 75 q 106 51 82 51 q 118 56 113 51 l 660 410 q 669 429 669 415 l 669 578 q 658 599 669 592 m 624 442 l 128 117 l 128 267 l 440 485 q 450 504 453 492 q 439 524 450 517 l 128 690 l 128 842 l 624 564 l 624 442 "},"<":{"ha":721,"x_min":51,"x_max":639,"o":"m 626 900 q 617 903 624 903 q 603 900 607 903 l 61 544 q 51 525 51 539 l 51 376 q 63 357 51 364 l 604 54 q 617 51 613 51 q 628 54 619 51 q 639 75 639 61 l 639 278 q 626 299 639 293 l 338 454 l 629 657 q 639 676 639 664 l 639 881 q 626 900 639 896 m 593 688 l 281 471 q 271 450 269 461 q 282 431 271 438 l 593 264 l 593 114 l 97 390 l 97 513 l 593 838 l 593 688 "},"¬":{"ha":792,"x_min":74,"x_max":707,"o":"m 499 310 l 499 156 q 506 139 499 146 q 522 132 513 132 l 685 132 q 701 139 694 132 q 707 156 707 146 l 707 464 q 685 486 707 486 l 97 486 q 81 480 88 486 q 74 464 74 474 l 74 333 q 81 317 74 324 q 97 310 88 310 l 499 310 m 119 440 l 661 440 l 661 178 l 544 178 l 544 333 q 538 349 544 342 q 522 356 531 356 l 119 356 l 119 440 "},"∞":{"ha":1238,"x_min":143,"x_max":1072,"o":"m 389 103 q 517 133 456 103 q 526 165 536 146 q 506 178 519 178 q 494 175 503 178 q 389 149 447 149 q 303 167 340 149 q 241 217 267 186 q 202 290 215 249 q 189 376 189 332 q 203 463 189 421 q 242 535 217 504 q 306 585 268 567 q 392 604 343 604 q 518 572 472 604 q 599 471 564 539 l 644 367 q 669 315 654 340 q 704 271 685 290 q 749 240 724 251 q 806 228 775 228 q 863 240 836 228 q 910 272 890 251 q 942 319 931 292 q 954 378 954 347 q 942 435 954 408 q 910 483 931 463 q 864 515 890 503 q 807 526 838 526 q 749 514 776 526 q 736 483 729 504 q 757 469 743 469 q 767 472 761 469 q 807 481 786 481 q 878 450 849 481 q 908 378 908 419 q 878 303 908 333 q 806 274 849 274 q 763 284 782 274 q 730 310 744 294 q 705 346 715 326 q 686 385 694 365 l 640 489 q 392 650 571 650 q 288 628 335 650 q 210 568 242 606 q 160 481 178 531 q 143 376 143 431 q 160 273 143 322 q 208 185 176 224 q 286 125 240 147 q 389 103 332 103 m 826 650 q 782 646 803 650 q 766 638 772 644 q 763 621 760 631 q 772 606 764 610 q 789 601 779 601 q 806 603 797 603 q 826 604 815 604 q 911 585 874 604 q 974 535 949 567 q 1013 462 1000 503 q 1026 376 1026 421 q 1013 290 1026 332 q 973 217 999 249 q 910 167 947 186 q 824 149 872 149 q 721 169 757 149 q 654 218 685 190 q 626 252 640 232 q 598 295 611 272 q 574 341 585 318 q 558 383 564 364 q 539 435 551 410 q 508 480 526 460 q 465 513 489 500 q 410 525 440 525 q 351 513 379 525 q 303 481 324 501 q 272 434 283 461 q 260 375 260 407 q 272 317 260 344 q 303 270 283 290 q 351 238 324 250 q 407 226 378 226 q 467 239 438 226 q 478 251 475 243 q 478 269 482 260 q 457 283 474 283 q 449 281 454 283 q 407 272 428 272 q 336 303 367 272 q 306 375 306 333 q 336 449 306 419 q 410 479 367 479 q 449 469 432 479 q 478 444 465 460 q 500 409 492 428 q 514 372 508 390 q 531 324 519 350 q 558 272 543 297 q 590 224 572 246 q 624 185 607 201 q 658 156 640 171 q 701 129 676 140 q 755 110 725 118 q 824 103 785 103 q 927 125 881 103 q 1006 185 974 147 q 1055 272 1038 222 q 1072 376 1072 322 q 1056 480 1072 431 q 1007 567 1039 529 q 929 628 975 606 q 826 650 883 650 m 688 608 l 688 607 q 690 588 685 597 q 711 574 696 579 q 735 592 731 574 q 735 612 739 603 q 719 624 731 621 q 711 625 717 625 q 688 608 694 625 "},"%":{"ha":1126,"x_min":83,"x_max":1043,"o":"m 354 72 q 372 81 367 72 l 665 478 q 667 503 672 490 q 646 515 660 515 l 538 515 l 854 943 q 849 976 865 961 q 835 981 843 981 q 817 971 824 981 l 474 506 q 472 482 465 493 q 493 469 479 469 l 601 469 l 335 108 q 331 92 329 101 q 340 76 333 82 q 354 72 347 72 m 154 8 q 172 17 167 8 l 457 399 q 462 415 464 406 q 453 431 460 424 q 439 435 447 435 q 421 426 428 435 l 136 44 q 131 28 129 38 q 140 13 133 19 q 154 8 147 8 m 710 554 q 728 564 721 554 l 932 842 q 937 858 939 849 q 928 874 935 867 q 914 878 922 878 q 896 868 901 878 l 690 592 q 686 574 685 583 q 696 560 688 565 q 710 554 701 554 m 260 558 q 328 572 296 558 q 385 610 361 586 q 422 667 408 635 q 436 735 436 699 q 422 803 436 771 q 385 860 408 836 q 328 897 361 883 q 260 911 296 911 q 192 897 224 911 q 135 860 160 883 q 97 803 111 836 q 83 735 83 771 q 97 667 83 699 q 135 610 111 635 q 192 572 160 586 q 260 558 224 558 m 260 865 q 352 827 314 865 q 390 735 390 789 q 352 642 390 681 q 260 604 314 604 q 167 642 206 604 q 129 735 129 681 q 167 827 129 789 q 260 865 206 865 m 260 664 q 310 685 289 664 q 332 735 332 706 q 310 786 332 765 q 260 807 289 807 q 210 786 231 807 q 189 735 189 765 q 210 685 189 706 q 260 664 231 664 m 260 761 q 278 753 271 761 q 286 735 286 746 q 278 717 286 724 q 260 710 271 710 q 242 717 249 710 q 235 735 235 724 q 242 753 235 746 q 260 761 249 761 m 867 78 q 935 92 903 78 q 992 130 968 106 q 1029 186 1015 154 q 1043 254 1043 218 q 1029 323 1043 290 q 992 379 1015 356 q 935 417 968 403 q 867 431 903 431 q 799 417 831 431 q 742 379 767 403 q 704 323 718 356 q 690 254 690 290 q 704 186 690 218 q 742 130 718 154 q 799 92 767 106 q 867 78 831 78 m 867 385 q 918 374 894 385 q 959 346 942 364 q 987 304 976 328 q 997 254 997 281 q 959 162 997 200 q 867 124 921 124 q 774 162 813 124 q 736 254 736 200 q 747 304 736 281 q 774 346 757 328 q 816 374 792 364 q 867 385 840 385 m 867 182 q 917 203 896 182 q 938 254 938 224 q 917 304 938 283 q 867 325 896 325 q 816 304 838 325 q 794 254 794 283 q 816 203 794 224 q 867 182 838 182 m 867 279 q 885 272 878 279 q 892 254 892 265 q 885 235 892 243 q 867 228 878 228 q 848 235 856 228 q 840 254 840 243 q 848 272 840 265 q 867 279 856 279 m 308 7 q 332 24 325 7 l 332 25 q 331 44 335 35 q 317 56 326 53 q 308 57 314 57 q 285 40 292 57 q 288 20 282 29 q 308 7 293 11 "},"@":{"ha":1175,"x_min":40,"x_max":1135,"o":"m 594 -92 q 724 -83 660 -92 q 848 -52 788 -74 q 962 4 908 -31 q 1058 90 1015 39 q 1056 122 1074 107 q 1042 128 1050 128 q 1024 119 1031 128 q 933 41 983 72 q 828 -10 883 10 q 713 -37 772 -29 q 594 -46 654 -46 q 424 -28 504 -46 q 280 31 344 -10 q 169 138 215 71 q 101 300 122 204 q 74 318 97 318 q 59 308 64 315 q 57 290 54 300 q 128 116 79 189 q 249 -3 178 43 q 408 -70 319 -49 q 594 -92 496 -92 m 594 46 q 717 53 660 46 q 833 90 775 61 q 843 122 853 100 q 822 133 836 133 q 813 131 815 133 q 707 98 757 104 q 594 92 657 92 q 338 163 426 92 q 235 379 250 233 q 231 489 231 419 q 224 506 231 500 q 207 513 217 513 l 86 513 q 88 567 88 544 q 90 606 88 590 q 140 783 100 706 q 243 915 179 861 q 392 997 307 968 q 576 1025 476 1025 q 963 906 836 1025 q 1089 522 1089 788 q 1088 478 1089 500 q 1086 435 1088 456 q 1031 299 1081 353 q 896 246 982 246 q 800 264 838 246 q 744 306 760 286 q 725 315 735 315 q 707 304 711 313 q 638 245 676 258 q 546 232 600 232 q 452 254 490 232 q 391 313 414 276 q 358 395 368 349 q 347 490 347 442 q 357 584 347 538 q 389 668 367 631 q 449 728 411 706 q 542 751 486 751 q 610 740 582 751 q 663 697 638 728 q 681 688 668 688 q 694 693 689 688 q 703 708 701 699 q 699 725 704 718 q 629 781 667 764 q 542 797 592 797 q 431 771 476 797 q 356 701 385 744 q 315 603 328 658 q 301 490 301 547 q 315 377 301 432 q 358 280 329 322 q 434 212 388 238 q 546 186 481 186 q 647 199 600 186 q 728 257 693 213 q 806 213 761 226 q 896 200 851 200 q 1058 261 989 200 q 1102 318 1086 288 q 1125 382 1118 349 q 1133 451 1132 415 q 1135 522 1135 486 q 998 937 1135 803 q 576 1071 861 1071 q 441 1058 507 1071 q 315 1017 375 1044 q 206 944 256 989 q 119 839 156 900 q 78 753 93 796 q 54 669 63 711 q 43 582 46 626 q 40 489 40 538 q 47 473 40 479 q 64 467 54 467 l 185 467 q 281 154 185 263 q 594 46 376 46 m 574 324 q 636 338 611 324 q 676 374 661 351 q 697 427 692 397 q 703 490 703 457 q 697 554 703 524 q 677 608 692 585 q 638 644 663 631 q 574 658 613 658 q 511 644 536 658 q 472 607 486 631 q 451 553 457 583 q 446 490 446 522 q 452 428 446 458 q 474 376 458 399 q 513 338 489 353 q 574 324 538 324 m 574 613 q 636 588 615 613 q 657 490 657 558 q 654 445 657 467 q 643 407 651 424 q 618 380 635 390 q 574 369 601 369 q 531 381 547 369 q 507 409 515 392 q 495 448 499 426 q 492 490 492 469 q 514 586 492 558 q 574 613 532 613 m 896 338 q 967 371 946 338 q 989 449 989 404 q 990 482 990 461 q 990 531 990 503 q 990 572 990 554 q 989 601 990 589 q 953 761 983 697 q 871 863 924 825 q 744 917 818 901 q 576 933 669 933 q 310 851 411 933 q 189 603 210 769 q 208 578 186 581 l 211 578 q 226 583 219 578 q 235 597 233 589 q 341 817 253 747 q 576 888 429 888 q 790 856 711 888 q 874 799 843 833 q 921 723 906 765 q 940 631 936 681 q 944 531 944 582 q 944 483 944 503 q 943 450 944 463 q 931 399 943 419 q 920 389 928 394 q 896 383 913 383 q 857 404 867 383 q 847 450 847 425 l 847 754 q 840 770 847 764 q 824 776 833 776 l 751 776 q 729 754 729 776 q 751 731 729 731 l 801 731 l 801 450 q 824 372 801 406 q 896 338 847 338 m 68 347 q 92 364 85 347 l 92 365 q 90 384 94 375 q 76 396 86 393 q 68 397 74 397 q 44 381 49 397 q 46 360 40 369 q 68 347 51 351 "},"&":{"ha":1038,"x_min":89,"x_max":1079,"o":"m 1049 350 q 1065 357 1058 350 q 1071 374 1071 364 q 1049 396 1071 396 l 1047 396 q 935 372 989 396 q 831 310 881 347 q 738 229 782 274 q 658 144 694 185 q 651 136 653 139 q 546 67 607 90 q 421 43 485 43 q 308 61 361 43 q 217 112 256 79 q 157 188 179 144 q 135 282 135 232 q 211 447 135 379 q 265 488 240 475 q 290 500 289 500 l 432 560 q 483 582 458 569 q 527 612 507 594 q 559 652 547 629 q 571 707 571 675 q 559 765 571 738 q 527 813 547 792 q 480 845 507 833 q 421 857 453 857 q 363 845 390 857 q 316 813 336 833 q 284 766 296 793 q 272 710 272 739 q 285 650 272 679 q 295 624 285 642 q 319 607 306 607 q 329 608 326 607 q 342 622 339 613 q 340 640 344 631 q 333 657 338 647 q 326 668 328 667 q 318 710 318 688 q 349 781 318 750 q 421 811 379 811 q 495 781 465 811 q 525 707 525 750 q 494 644 525 669 q 458 621 479 631 q 414 601 438 611 l 272 542 q 242 526 269 540 q 181 482 214 513 q 89 282 89 399 q 115 170 89 222 q 185 80 140 118 q 291 19 231 42 q 421 -3 351 -3 q 564 24 493 -3 q 685 106 635 51 l 692 114 q 758 184 719 143 q 844 263 796 225 q 1047 350 956 350 l 1049 350 m 149 728 q 160 647 149 685 q 194 572 172 608 q 214 561 201 561 q 225 564 217 561 q 235 577 232 568 q 232 599 239 586 q 205 660 215 633 q 194 728 194 688 q 213 813 194 776 q 264 876 232 850 q 337 915 296 901 q 422 928 378 928 q 508 914 467 928 q 581 874 550 900 q 631 811 613 849 q 650 725 650 774 q 596 574 650 635 q 560 540 576 550 q 542 529 543 531 q 525 522 540 529 q 488 505 510 515 q 437 481 465 494 q 379 454 408 468 q 331 428 357 443 q 281 394 304 414 q 243 350 258 375 q 228 293 228 325 q 245 226 228 256 q 290 174 263 196 q 351 141 317 153 q 418 129 385 129 q 518 158 457 129 q 644 261 579 188 q 715 337 679 301 q 792 401 751 372 q 879 451 833 431 q 979 482 925 472 q 994 491 989 483 q 999 508 1000 499 q 972 526 994 526 q 848 488 904 515 q 747 426 792 460 q 669 356 703 392 q 610 290 635 319 q 567 249 592 269 q 518 212 543 228 q 467 185 493 196 q 418 175 442 175 q 367 183 393 175 q 321 207 342 192 q 287 244 300 222 q 274 293 274 265 q 286 332 274 314 q 317 365 299 350 q 358 392 336 379 q 400 414 381 404 q 457 441 429 428 q 510 465 485 454 q 560 488 536 476 q 583 501 561 489 q 629 540 604 513 q 674 612 653 567 q 696 725 696 657 q 674 828 696 782 q 614 907 651 875 q 526 956 576 939 q 422 974 476 974 q 319 957 368 974 q 231 908 269 940 q 171 831 193 876 q 149 728 149 785 m 846 18 q 875 3 853 1 q 889 14 885 6 q 890 31 893 22 q 799 146 871 93 q 785 150 793 150 q 767 140 772 150 q 762 124 760 133 q 771 108 764 115 q 846 18 831 64 m 414 356 q 400 361 406 361 q 382 353 389 361 q 385 319 368 333 q 440 281 411 299 q 504 250 468 264 q 525 263 519 250 q 526 281 529 272 q 514 293 522 290 q 414 356 463 317 m 988 18 q 1015 3 993 1 q 1029 14 1025 6 q 1031 31 1033 22 q 975 128 1015 79 q 874 221 935 178 q 861 225 868 225 q 842 217 849 225 q 847 185 829 197 q 938 102 900 146 q 988 18 975 58 m 581 326 q 600 338 593 326 q 603 355 606 346 q 592 369 600 364 q 518 418 556 390 q 504 424 513 424 q 486 414 493 424 q 481 398 479 407 q 490 382 483 389 q 508 369 496 378 q 535 350 521 360 q 561 333 549 340 q 581 326 574 326 m 1076 503 q 1075 523 1079 514 q 1061 535 1071 532 q 1053 536 1058 536 q 1029 519 1036 536 l 1029 518 q 1032 499 1026 508 q 1053 486 1038 490 q 1076 503 1071 486 "},"°":{"ha":574,"x_min":110,"x_max":463,"o":"m 110 749 q 124 681 110 713 q 162 624 138 649 q 218 586 186 600 q 286 572 250 572 q 355 586 322 572 q 411 624 388 600 q 449 681 435 649 q 463 749 463 713 q 449 817 463 785 q 411 874 435 850 q 355 911 388 897 q 286 925 322 925 q 218 911 250 925 q 162 874 186 897 q 124 817 138 850 q 110 749 110 785 m 417 749 q 378 656 417 694 q 286 618 340 618 q 194 656 232 618 q 156 749 156 694 q 194 841 156 803 q 286 879 232 879 q 378 841 340 879 q 417 749 417 803 "},"|":{"ha":372,"x_min":85,"x_max":299,"o":"m 299 -249 l 299 1204 q 276 1228 299 1228 l 108 1228 q 85 1204 85 1228 l 85 -249 q 108 -272 85 -272 l 276 -272 q 299 -249 299 -272 m 253 -226 l 131 -226 l 131 1182 l 253 1182 l 253 -226 "},"̀":{"ha":0,"x_min":-482,"x_max":-101,"o":"m -478 1042 q -471 1015 -482 1026 l -250 832 q -236 826 -244 826 l -128 826 q -106 840 -112 826 q -110 865 -101 854 l -281 1049 q -297 1056 -287 1056 l -457 1056 q -478 1042 -474 1056 m -393 1010 l -307 1010 l -179 872 l -228 872 l -393 1010 "},"́":{"ha":0,"x_min":-457,"x_max":-76,"o":"m -103 1056 l -261 1056 q -278 1049 -271 1056 l -449 865 q -453 840 -457 854 q -431 826 -446 826 l -324 826 q -308 832 -314 826 l -87 1015 q -81 1042 -76 1026 q -103 1056 -85 1056 m -331 872 l -379 872 l -251 1010 l -165 1010 l -331 872 "},"̋":{"ha":0,"x_min":-624,"x_max":-142,"o":"m -228 818 l -147 1036 q -150 1058 -142 1049 q -168 1068 -157 1068 l -296 1068 q -318 1049 -314 1068 l -357 831 q -351 811 -360 819 q -335 803 -343 803 l -250 803 q -228 818 -236 803 m -265 849 l -307 849 l -276 1022 l -201 1022 l -265 849 m -414 1058 q -432 1068 -421 1068 l -560 1068 q -582 1049 -579 1068 l -621 831 q -617 811 -624 819 q -599 803 -606 803 l -514 803 q -493 818 -499 803 l -411 1036 q -414 1058 -407 1047 m -529 849 l -571 849 l -540 1022 l -465 1022 l -529 849 "},"̃":{"ha":0,"x_min":-506,"x_max":-132,"o":"m -154 1004 q -162 1006 -157 1006 q -182 996 -176 1006 q -198 986 -187 992 q -224 981 -208 981 q -231 981 -226 981 q -237 982 -235 982 q -243 983 -239 983 q -265 965 -260 983 q -262 948 -268 956 q -247 938 -257 940 q -235 935 -240 936 q -224 935 -229 935 q -183 943 -200 935 q -154 960 -165 951 q -140 974 -143 963 l -140 975 q -140 993 -136 985 q -154 1004 -144 1001 m -301 933 q -307 944 -301 935 q -324 966 -312 954 q -351 990 -335 978 q -392 1007 -368 1001 q -404 1009 -399 1008 q -417 1010 -410 1010 q -440 1006 -426 1010 q -465 997 -453 1003 q -489 983 -478 992 q -503 965 -500 975 l -503 964 q -501 947 -506 956 q -482 933 -497 938 q -461 946 -468 933 q -447 956 -458 949 q -417 964 -435 964 q -401 963 -407 964 q -376 952 -386 960 q -358 936 -365 944 q -343 915 -349 926 q -337 904 -343 914 q -321 883 -332 894 q -293 859 -310 871 q -253 842 -276 847 q -240 840 -246 840 q -229 839 -235 839 q -196 844 -211 839 q -170 856 -181 850 q -153 869 -160 863 q -147 875 -147 875 q -150 907 -132 892 q -165 913 -156 913 q -182 904 -176 913 q -194 894 -187 899 q -210 888 -201 890 q -229 885 -218 885 q -243 886 -239 885 q -269 897 -258 889 q -287 913 -279 904 q -301 933 -296 922 m -458 860 q -442 869 -453 864 q -415 875 -431 875 q -401 874 -406 875 q -374 892 -378 874 q -376 908 -371 901 q -392 918 -382 915 q -404 921 -399 921 q -415 921 -410 921 q -461 911 -443 921 q -489 893 -479 901 q -501 879 -497 889 q -499 860 -504 869 q -479 847 -494 851 q -458 860 -465 847 "},"̦":{"ha":0,"x_min":-314,"x_max":-97,"o":"m -183 -314 l -101 -96 q -104 -75 -97 -85 q -124 -65 -110 -65 l -250 -65 q -272 -83 -269 -65 l -312 -303 q -307 -321 -314 -311 q -289 -329 -301 -329 l -206 -329 q -183 -314 -187 -329 m -262 -283 l -231 -111 l -157 -111 l -221 -283 l -262 -283 "},"ʼ":{"ha":257,"x_min":21,"x_max":238,"o":"m 63 1085 l 22 867 q 28 849 21 857 q 46 840 35 840 l 129 840 q 151 854 147 840 l 233 1074 q 231 1094 238 1083 q 211 1104 224 1104 l 85 1104 q 63 1085 65 1104 m 178 1058 l 114 886 l 72 886 l 104 1058 l 178 1058 "},"´":{"ha":561,"x_min":89,"x_max":471,"o":"m 443 1044 l 285 1044 q 268 1038 275 1044 l 97 853 q 93 828 89 842 q 115 815 100 815 l 222 815 q 238 819 232 815 l 458 1004 q 465 1029 471 1014 q 443 1044 461 1044 m 215 861 l 167 861 l 294 999 l 381 999 l 215 861 "},"¨":{"ha":646,"x_min":110,"x_max":536,"o":"m 514 1040 l 383 1040 q 367 1034 374 1040 q 360 1018 360 1028 l 360 888 q 367 871 360 878 q 383 864 374 864 l 514 864 q 530 871 524 864 q 536 888 536 878 l 536 1018 q 514 1040 536 1040 m 490 910 l 406 910 l 406 994 l 490 994 l 490 910 m 263 1040 l 132 1040 q 110 1018 110 1040 l 110 888 q 116 871 110 878 q 132 864 122 864 l 263 864 q 279 871 272 864 q 286 888 286 878 l 286 1018 q 279 1034 286 1028 q 263 1040 272 1040 m 240 910 l 156 910 l 156 994 l 240 994 l 240 910 "},"˙":{"ha":364,"x_min":94,"x_max":271,"o":"m 247 857 q 265 864 258 857 q 271 881 271 871 l 271 1011 q 247 1033 271 1033 l 118 1033 q 94 1011 94 1033 l 94 881 q 101 864 94 871 q 118 857 107 857 l 247 857 m 140 988 l 225 988 l 225 903 l 140 903 l 140 988 "},"`":{"ha":561,"x_min":79,"x_max":460,"o":"m 83 1042 q 90 1015 79 1026 l 311 832 q 326 826 317 826 l 433 826 q 456 840 449 826 q 451 865 460 854 l 281 1049 q 264 1056 274 1056 l 106 1056 q 83 1042 88 1056 m 168 1010 l 254 1010 l 382 872 l 333 872 l 168 1010 "},"˝":{"ha":768,"x_min":42,"x_max":692,"o":"m 397 1056 l 238 1056 q 221 1049 228 1056 l 51 865 q 47 840 42 853 q 68 826 54 826 l 176 826 q 192 832 186 826 l 413 1015 q 419 1042 424 1026 q 397 1056 413 1056 m 168 872 l 121 872 l 247 1010 l 333 1010 l 168 872 m 667 1056 l 507 1056 q 490 1049 497 1056 l 319 865 q 315 840 311 854 q 338 826 322 826 l 446 826 q 460 832 454 826 l 681 1015 q 688 1042 692 1026 q 667 1056 683 1056 m 438 872 l 389 872 l 517 1010 l 603 1010 l 438 872 "},"˜":{"ha":644,"x_min":150,"x_max":519,"o":"m 501 1004 q 494 1006 500 1006 q 475 996 481 1006 q 458 986 468 992 q 433 981 449 981 q 426 981 431 981 q 418 982 422 982 q 414 983 417 983 q 392 965 394 983 q 394 948 389 956 q 408 938 399 940 q 421 935 415 936 q 433 935 426 935 q 474 943 457 935 q 501 960 492 951 q 517 974 513 963 l 517 975 q 515 993 519 985 q 501 1004 511 1001 m 354 933 q 349 944 354 935 q 333 966 343 954 q 306 990 322 978 q 265 1007 289 1001 q 252 1009 258 1008 q 240 1010 246 1010 q 185 995 206 1010 q 160 975 164 981 q 153 965 154 969 l 153 964 q 155 947 150 956 q 175 933 160 938 q 194 946 188 933 q 210 956 199 949 q 240 964 222 964 q 256 963 250 964 q 281 952 271 960 q 299 936 292 944 q 313 915 307 926 q 318 904 313 914 q 335 883 324 894 q 363 859 346 871 q 403 842 379 847 q 415 840 410 840 q 428 839 421 839 q 462 844 447 839 q 487 856 476 850 q 503 869 497 863 q 510 875 510 875 q 515 891 515 882 q 507 907 514 900 q 492 913 501 913 q 475 904 482 913 q 462 894 474 904 q 428 885 450 885 q 413 886 418 885 q 387 897 397 889 q 369 913 376 904 q 354 933 360 922 m 199 860 q 215 869 204 864 q 240 875 225 875 q 256 874 250 875 q 283 892 279 874 q 265 918 286 914 q 253 921 258 921 q 240 921 247 921 q 195 911 214 921 q 167 893 176 901 q 156 879 157 889 q 158 860 153 869 q 178 847 163 851 q 199 860 193 847 "},"Ñ":{"ha":922,"x_min":97,"x_max":842,"o":"m 219 485 l 219 92 q 226 75 219 82 q 243 68 233 68 q 259 75 253 68 q 265 92 265 82 l 265 485 q 259 501 265 494 q 243 508 253 508 q 226 501 233 508 q 219 485 219 494 m 114 972 q 97 950 97 968 l 97 22 q 103 6 97 13 q 121 -1 110 -1 q 137 6 131 -1 q 143 22 143 13 l 143 869 l 674 10 q 693 -1 681 -1 q 704 3 700 -1 q 715 17 713 8 q 713 35 718 26 l 140 963 q 128 971 133 969 q 114 972 122 972 m 693 972 q 676 966 683 972 q 669 950 669 960 l 669 369 l 339 894 q 319 906 332 906 q 308 903 314 906 q 298 888 300 897 q 300 871 296 879 l 674 278 q 699 268 681 267 q 715 290 715 272 l 715 950 q 693 972 715 972 m 815 897 q 799 891 806 897 q 792 875 792 885 l 792 22 q 799 6 792 13 q 815 -1 806 -1 q 831 6 825 -1 q 838 22 838 13 l 838 875 q 815 897 838 897 m 621 1161 l 614 1161 q 594 1151 600 1161 q 578 1142 588 1147 q 553 1136 568 1136 q 546 1137 550 1136 q 538 1138 542 1138 q 533 1139 536 1139 q 511 1121 514 1139 q 514 1103 508 1111 q 528 1093 519 1096 q 540 1091 535 1092 q 553 1090 546 1090 q 594 1099 576 1090 q 621 1115 611 1107 q 636 1129 632 1118 l 636 1131 q 621 1161 643 1151 m 474 1089 q 468 1100 474 1090 q 452 1122 463 1110 q 425 1145 442 1133 q 385 1163 408 1157 q 372 1165 378 1165 q 360 1165 367 1165 q 304 1151 325 1165 q 279 1131 283 1136 q 272 1121 274 1125 q 274 1102 269 1111 q 294 1090 279 1093 q 314 1101 307 1090 q 330 1112 318 1104 q 360 1119 342 1119 q 375 1118 369 1119 q 401 1108 390 1115 q 418 1092 411 1100 q 432 1071 426 1082 q 438 1060 432 1069 q 454 1038 443 1050 q 482 1015 465 1026 q 522 997 499 1003 q 535 995 529 996 q 547 994 540 994 q 581 1000 567 994 q 606 1012 596 1006 q 623 1024 617 1018 q 629 1031 629 1031 q 626 1063 644 1047 q 611 1068 621 1068 q 594 1061 601 1068 q 581 1050 593 1060 q 547 1040 569 1040 q 540 1041 543 1040 q 532 1042 536 1042 q 507 1053 518 1046 q 489 1069 496 1061 q 478 1083 482 1076 q 474 1089 474 1089 m 839 944 q 838 964 842 954 q 824 976 833 974 q 819 977 821 976 q 815 978 818 978 q 792 961 799 978 l 792 960 q 794 940 789 950 q 815 926 800 931 q 839 943 832 926 l 839 944 m 318 1015 q 335 1025 324 1019 q 361 1031 346 1031 q 375 1029 369 1031 q 403 1047 399 1029 q 400 1065 406 1057 q 385 1075 394 1072 q 372 1076 378 1076 q 360 1076 367 1076 q 315 1067 333 1076 q 288 1049 296 1057 q 275 1035 276 1043 q 277 1016 272 1025 q 297 1003 282 1007 q 318 1015 311 1003 "}}}
